<svg width="170" height="170" viewBox="0 0 170 170" fill="none" xmlns="http://www.w3.org/2000/svg">
<path d="M170 85.0011C170 131.943 131.943 170 84.9989 170C38.0566 170 0 131.943 0 85.0011C0 38.0566 38.0566 0 84.9989 0C131.943 0 170 38.0566 170 85.0011Z" fill="url(#paint0_linear_332_2)"/>
<path d="M50.8426 134.085C49.8499 134.395 49.0959 134.351 48.5805 133.954C48.0572 133.53 47.6723 132.924 47.4258 132.135C47.2032 131.422 47.0546 130.589 46.98 129.634C46.8672 128.468 46.869 127.043 46.9853 125.358C47.1272 123.666 47.3127 121.89 47.5421 120.03C47.7889 118.137 48.0469 116.324 48.316 114.592C48.6105 112.852 48.8708 111.36 49.0969 110.116C48.8614 110.524 48.6171 110.95 48.3641 111.392C48.1366 111.826 47.9083 112.303 47.6791 112.821C46.7196 114.937 45.8634 116.936 45.1107 118.82C44.3755 120.67 43.6745 122.495 43.0077 124.296C42.3584 126.063 41.6829 127.881 40.981 129.748C40.6071 130.787 40.2967 131.582 40.0501 132.134C39.8209 132.653 39.5775 133.036 39.3198 133.284C39.0795 133.499 38.743 133.674 38.3103 133.809C37.674 134.008 36.8889 134.043 35.9551 133.916C36.1763 133.372 36.1279 132.367 35.81 130.902C35.5175 129.429 35.085 127.776 34.5126 125.944C33.9322 124.085 33.2683 122.184 32.5209 120.238C31.7735 118.292 31.034 116.596 30.3025 115.148C30.2293 115.45 30.1242 116.097 29.9872 117.09C29.8757 118.075 29.7387 119.291 29.5763 120.739C29.4313 122.153 29.284 123.693 29.1342 125.361C28.9765 127.002 28.8354 128.653 28.7111 130.312C28.6043 131.938 28.5246 133.471 28.4719 134.912C28.4446 136.346 28.4635 137.569 28.5286 138.582C28.5937 139.596 28.7201 140.269 28.9077 140.601L25.3951 141.698C25.5099 140.098 25.6533 138.321 25.8254 136.368C26.0149 134.381 26.2181 132.348 26.4347 130.269C26.6513 128.189 26.8712 126.165 27.0941 124.196C27.3426 122.218 27.5624 120.418 27.7535 118.794C27.9621 117.136 28.1357 115.769 28.2743 114.692C28.4128 113.615 28.5099 112.942 28.5657 112.673C27.4377 112.997 26.3281 113.47 25.2367 114.09C24.1374 114.685 23.1462 115.358 22.2632 116.108C21.3802 116.859 20.6698 117.626 20.132 118.408C19.6197 119.183 19.3571 119.908 19.3443 120.582C19.3427 120.666 19.3037 120.72 19.2273 120.744C19.0237 120.808 18.8702 120.674 18.7668 120.343C18.7509 120.292 18.735 120.241 18.7191 120.191C18.7207 120.106 18.7224 120.022 18.724 119.938C18.7463 119.204 18.8435 118.531 19.0154 117.919C19.2127 117.299 19.4212 116.759 19.6408 116.299C20.2104 115.171 20.9892 114.355 21.9772 113.851C22.9572 113.321 24.0327 112.874 25.2035 112.508L28.9071 111.351C29.4671 111.176 30.0143 111.005 30.5489 110.838C31.0834 110.671 31.598 110.664 32.0927 110.817C32.5795 110.944 33.0058 111.37 33.3716 112.094C33.6403 112.597 33.9838 113.383 34.4021 114.454C34.8378 115.491 35.2878 116.664 35.7522 117.971C36.2419 119.271 36.715 120.562 37.1714 121.844C37.6278 123.127 38.0158 124.235 38.3354 125.169C38.3513 125.219 38.399 125.372 38.4785 125.627C38.5755 125.848 38.6797 126.137 38.791 126.493C38.8943 126.824 39.0009 127.21 39.1106 127.65C39.2378 128.058 39.3355 128.46 39.4039 128.858C39.7317 128.029 40.1391 127.008 40.6261 125.794C41.1305 124.547 41.6748 123.204 42.2588 121.764C42.8349 120.299 43.4237 118.83 44.0252 117.357C44.6267 115.884 45.206 114.474 45.7629 113.126C46.3199 111.779 46.8061 110.608 47.2214 109.612C47.6542 108.583 47.9725 107.813 48.1762 107.302C48.5549 106.457 49.15 105.769 49.9614 105.236C50.7648 104.678 51.612 104.259 52.5029 103.981L54.8701 103.242C54.4627 103.816 54.092 104.686 53.7577 105.852C53.4235 107.018 53.1259 108.256 52.8648 109.567C52.6292 110.87 52.4254 112.051 52.2534 113.111C52.0209 114.692 51.8115 116.392 51.6251 118.21C51.4387 120.028 51.3247 121.81 51.2831 123.555C51.2415 125.3 51.3042 126.887 51.471 128.315C51.5218 128.747 51.6188 129.191 51.7619 129.649C51.9368 130.209 52.1809 130.678 52.4943 131.055C52.8251 131.399 53.2451 131.491 53.7542 131.332C54.1614 131.205 54.6061 130.884 55.0882 130.37L55.1264 130.359C55.1773 130.343 55.2313 130.382 55.2886 130.475C55.3379 130.544 55.3451 130.612 55.31 130.678C54.9854 131.338 54.3824 132.002 53.501 132.668C52.6196 133.335 51.7335 133.807 50.8426 134.085ZM68.6522 128.439C67.8631 128.685 67.2205 128.551 66.7242 128.035C66.2534 127.512 65.8789 126.804 65.6006 125.914C65.3462 125.099 65.1721 124.273 65.0784 123.437C65.0434 123.056 65.0085 122.676 64.9735 122.296C64.9561 121.882 64.9474 121.452 64.9475 121.005C64.7612 121.929 64.5416 122.836 64.2885 123.725C64.0609 124.607 63.7927 125.403 63.484 126.114C62.9796 127.361 62.3725 128.458 61.6629 129.406C60.9787 130.347 60.1912 130.956 59.3003 131.234C58.5876 131.457 57.8972 131.393 57.2291 131.043C56.5785 130.659 56.0505 129.818 55.645 128.52C55.2316 127.197 55.0353 125.763 55.0562 124.22C55.0771 122.677 55.308 121.18 55.7489 119.73C56.2072 118.245 56.8811 116.959 57.7705 115.871C58.6854 114.775 59.8173 114.017 61.1664 113.595C61.5991 113.46 62.0899 113.377 62.6387 113.345C63.1875 113.313 63.734 113.408 64.278 113.629C64.8141 113.825 65.2539 114.204 65.5974 114.768C65.607 114.709 65.6205 114.663 65.638 114.629C65.6809 114.588 65.7112 114.551 65.7287 114.517C65.9101 113.846 66.1703 113.248 66.5092 112.723C66.8481 112.198 67.2976 111.848 67.8576 111.673C68.1376 111.586 68.5361 111.475 69.0531 111.342C69.5701 111.208 69.9392 111.093 70.1603 110.996C70.0649 111.137 69.9503 111.397 69.8166 111.774C69.7084 112.143 69.6169 112.52 69.5421 112.907C69.4593 113.268 69.3948 113.554 69.3487 113.764C69.0748 115.302 68.8606 116.808 68.7061 118.281C68.5516 119.754 68.5085 121.136 68.5767 122.428C68.5798 122.706 68.6045 122.964 68.6506 123.201C68.6887 123.412 68.7396 123.62 68.8032 123.824C69.0099 124.486 69.3296 124.749 69.7623 124.614C70.1696 124.486 70.5992 124.073 71.051 123.373C71.7193 122.382 72.2174 121.249 72.5453 119.973C72.8986 118.689 73.1748 117.471 73.3738 116.32C73.42 116.11 73.4812 115.993 73.5576 115.969C73.7103 115.921 73.8543 116.114 73.9894 116.547C74.053 116.75 74.0864 116.991 74.0895 117.27C74.1181 117.54 74.1046 117.81 74.0489 118.079C73.8833 118.801 73.647 119.699 73.3398 120.772C73.0581 121.838 72.696 122.915 72.2536 124.003C71.8033 125.066 71.275 126.013 70.6688 126.845C70.088 127.669 69.4158 128.2 68.6522 128.439ZM60.0167 127.49C60.101 127.492 60.2195 127.469 60.3722 127.421C60.8559 127.27 61.3141 126.903 61.7468 126.321C62.1796 125.739 62.5766 125.042 62.9378 124.231C63.2911 123.394 63.5808 122.577 63.8068 121.78C64.3702 119.649 64.7801 118.054 65.0363 116.996C65.2926 115.938 65.439 115.334 65.4756 115.183C65.2132 114.79 64.8848 114.543 64.4903 114.443C64.1212 114.335 63.7203 114.348 63.2876 114.483C62.7276 114.658 62.1771 114.998 61.6362 115.502C61.1207 115.998 60.7142 116.53 60.4166 117.098C59.9615 117.967 59.5915 119.018 59.3066 120.253C59.0471 121.479 58.8855 122.661 58.8217 123.798C58.7834 124.928 58.8715 125.836 59.0862 126.524C59.285 127.16 59.5951 127.482 60.0167 127.49ZM85.2859 123.243C84.4205 123.513 83.7428 123.446 83.2529 123.04C82.7805 122.601 82.437 122.038 82.2223 121.35C81.9918 120.612 81.84 119.724 81.7669 118.685C81.7114 117.613 81.6988 116.499 81.7292 115.344C81.7771 114.156 81.8489 113.044 81.9445 112.008C81.9763 111.663 81.9875 111.297 81.978 110.908C81.994 110.512 81.9582 110.174 81.8708 109.894C81.7118 109.385 81.4032 109.202 80.945 109.345C80.7668 109.401 80.5751 109.503 80.3699 109.651C80.1567 109.773 79.9252 109.971 79.6754 110.245C79.2204 110.666 78.8226 111.182 78.4821 111.791C78.1336 112.375 77.9061 112.809 77.7995 113.094C77.5958 113.604 77.4207 114.162 77.2743 114.766C77.1199 115.345 77.0076 115.925 76.9376 116.506C76.7704 117.759 76.6891 118.93 76.6937 120.018C76.7158 121.073 76.7069 121.984 76.6671 122.75C76.6495 123.231 76.6359 123.724 76.6263 124.23C76.6167 124.736 76.6158 125.225 76.6237 125.697L72.9201 126.854C72.9201 126.854 72.9098 126.508 72.8893 125.816C72.8687 125.124 72.8863 124.42 72.9421 123.704C73.1668 120.31 73.3081 116.871 73.3659 113.389C73.4236 109.907 73.7375 106.484 74.3075 103.121C74.5638 101.616 74.9028 100.197 75.3246 98.8643C75.7718 97.5233 76.3287 96.3995 76.9954 95.4929C77.6796 94.5528 78.5053 93.9317 79.4725 93.6296C80.2362 93.3911 80.8136 93.4063 81.2049 93.6752C81.6137 93.9107 81.8976 94.283 82.0566 94.792C82.2315 95.352 82.2999 95.9732 82.2616 96.6557C82.2233 97.3381 82.1572 97.9315 82.0633 98.4358C81.8913 99.4952 81.6152 100.713 81.2348 102.089C80.8544 103.465 80.4119 104.776 79.9075 106.024C79.8009 106.308 79.6107 106.773 79.337 107.417C79.0553 108.036 78.7649 108.671 78.4658 109.323C78.192 109.968 77.9716 110.47 77.8046 110.829C78.4537 109.956 79.0321 109.258 79.5396 108.737C80.0472 108.215 80.4974 107.823 80.8904 107.56C81.5649 107.126 82.144 106.834 82.6277 106.683C84.0785 106.229 85.0027 106.639 85.4002 107.912C85.5672 108.446 85.6132 109.13 85.5384 109.964C85.5128 110.419 85.4674 111.034 85.4021 111.808C85.3368 112.583 85.2746 113.413 85.2156 114.297C85.1741 115.148 85.1629 115.962 85.1819 116.738C85.2263 117.507 85.3201 118.12 85.4632 118.578C85.5506 118.858 85.6683 119.101 85.8162 119.306C85.9816 119.478 86.1916 119.524 86.4462 119.444C86.6243 119.389 86.8511 119.22 87.1263 118.939C87.7118 118.309 88.1947 117.529 88.5751 116.6C88.9808 115.664 89.2944 114.7 89.5156 113.708C89.7623 112.71 89.9565 111.811 90.0982 111.012C90.1189 110.81 90.1802 110.693 90.282 110.661C90.4093 110.622 90.5405 110.818 90.6757 111.251C90.7393 111.454 90.7893 111.704 90.8259 112C90.8545 112.271 90.8322 112.557 90.759 112.859C90.5934 113.581 90.3571 114.479 90.0499 115.553C89.7682 116.619 89.4061 117.696 88.9637 118.784C88.5134 119.846 87.9851 120.794 87.3789 121.626C86.7727 122.458 86.075 122.997 85.2859 123.243ZM76.6138 110.908C77.4175 109.008 78.202 107.003 78.9675 104.892C79.7505 102.748 80.2964 100.65 80.6053 98.5978C80.6165 98.4546 80.6515 98.1643 80.7104 97.7269C80.7693 97.2894 80.8036 96.8177 80.8132 96.3119C80.8149 95.7805 80.764 95.3494 80.6607 95.0185C80.5255 94.5858 80.2925 94.4211 79.9616 94.5245C79.6307 94.6278 79.3077 94.9802 78.9926 95.5814C78.703 96.1748 78.4484 96.9248 78.2287 97.8315C77.9454 98.9816 77.6971 100.288 77.4837 101.752C77.2624 103.19 77.0776 104.7 76.9295 106.283C76.8068 107.858 76.7015 109.4 76.6138 110.908ZM103.44 117.573C102.651 117.819 102.008 117.685 101.512 117.169C101.041 116.646 100.667 115.939 100.388 115.048C100.134 114.233 99.96 113.408 99.8662 112.571C99.8313 112.191 99.7963 111.81 99.7614 111.43C99.744 111.017 99.7353 110.586 99.7353 110.139C99.5491 111.063 99.3294 111.97 99.0764 112.859C98.8487 113.741 98.5806 114.537 98.2719 115.248C97.7674 116.495 97.1604 117.593 96.4507 118.541C95.7666 119.481 94.979 120.09 94.0881 120.368C93.3754 120.591 92.685 120.527 92.0169 120.177C91.3664 119.793 90.8383 118.953 90.4329 117.654C90.0194 116.331 89.8232 114.898 89.8441 113.354C89.865 111.811 90.0958 110.314 90.5367 108.864C90.9951 107.38 91.6689 106.094 92.5584 105.006C93.4732 103.91 94.6052 103.151 95.9542 102.73C96.387 102.594 96.8777 102.511 97.4266 102.479C97.9754 102.447 98.5218 102.542 99.0658 102.763C99.6019 102.959 100.042 103.339 100.385 103.902C100.395 103.843 100.408 103.797 100.426 103.763C100.469 103.722 100.499 103.685 100.517 103.651C100.698 102.98 100.958 102.382 101.297 101.857C101.636 101.332 102.085 100.982 102.645 100.807C102.925 100.72 103.324 100.609 103.841 100.476C104.358 100.342 104.727 100.227 104.948 100.13C104.853 100.271 104.738 100.531 104.604 100.908C104.496 101.277 104.405 101.655 104.33 102.041C104.247 102.402 104.183 102.688 104.136 102.898C103.863 104.436 103.648 105.942 103.494 107.415C103.339 108.888 103.296 110.27 103.365 111.562C103.368 111.84 103.392 112.098 103.438 112.335C103.477 112.547 103.527 112.754 103.591 112.958C103.798 113.62 104.117 113.883 104.55 113.748C104.957 113.621 105.387 113.207 105.839 112.507C106.507 111.516 107.005 110.383 107.333 109.107C107.686 107.823 107.963 106.606 108.162 105.454C108.208 105.244 108.269 105.127 108.345 105.103C108.498 105.056 108.642 105.248 108.777 105.681C108.841 105.884 108.874 106.125 108.877 106.404C108.906 106.674 108.892 106.944 108.837 107.213C108.671 107.935 108.435 108.833 108.128 109.907C107.846 110.972 107.484 112.049 107.041 113.137C106.591 114.2 106.063 115.147 105.457 115.979C104.876 116.803 104.204 117.334 103.44 117.573ZM94.8045 116.624C94.8888 116.626 95.0074 116.603 95.1601 116.555C95.6437 116.404 96.1019 116.037 96.5347 115.455C96.9675 114.873 97.3645 114.176 97.7257 113.365C98.079 112.528 98.3686 111.712 98.5946 110.915C99.1581 108.783 99.5679 107.188 99.8242 106.13C100.08 105.073 100.227 104.468 100.263 104.317C100.001 103.924 99.6726 103.677 99.2781 103.577C98.909 103.469 98.5082 103.482 98.0754 103.618C97.5155 103.792 96.965 104.132 96.4241 104.636C95.9086 105.132 95.502 105.665 95.2045 106.232C94.7494 107.101 94.3794 108.152 94.0945 109.387C93.835 110.613 93.6734 111.795 93.6096 112.933C93.5712 114.062 93.6594 114.97 93.874 115.658C94.0728 116.294 94.383 116.616 94.8045 116.624ZM111.865 114.941C111.152 115.164 110.538 115.076 110.023 114.679C109.499 114.255 109.099 113.598 108.82 112.707C108.781 112.58 108.741 112.453 108.701 112.326C108.661 112.198 108.634 112.067 108.62 111.932C108.445 110.925 108.32 109.763 108.244 108.446C108.193 107.12 108.173 105.716 108.184 104.232C108.201 103.388 108.221 102.335 108.245 101.07C108.286 99.7718 108.367 98.3774 108.489 96.8869C108.602 95.3708 108.77 93.8517 108.993 92.3293C109.241 90.799 109.593 89.3761 110.048 88.0605C110.495 86.7196 111.048 85.583 111.707 84.6509C112.391 83.7108 113.23 83.0858 114.222 82.7757C115.037 82.5213 115.66 82.55 116.093 82.8619C116.518 83.1483 116.814 83.5587 116.98 84.0933C117.155 84.6532 117.232 85.2578 117.212 85.9068C117.183 86.5304 117.126 87.0649 117.042 87.5103C116.87 88.5698 116.594 89.7875 116.214 91.1635C115.833 92.5394 115.391 93.851 114.886 95.0981C114.601 95.8855 114.226 96.7851 113.76 97.7967C113.293 98.8084 112.845 99.7446 112.416 100.605C112.012 101.458 111.709 102.055 111.509 102.397L111.446 104.344C111.419 104.883 111.42 105.512 111.449 106.229C111.503 106.939 111.569 107.644 111.649 108.346C111.746 109.014 111.831 109.602 111.906 110.109C111.912 110.219 111.932 110.325 111.963 110.427C111.995 110.528 112.023 110.618 112.047 110.694C112.285 111.458 112.697 111.748 113.283 111.565C113.639 111.454 114.033 111.149 114.464 110.651C114.878 110.187 115.238 109.641 115.545 109.015C115.87 108.354 116.094 107.865 116.218 107.547C116.521 106.726 116.786 105.875 117.013 104.994C117.233 104.087 117.409 103.264 117.541 102.524C117.605 102.281 117.662 102.151 117.713 102.135C117.866 102.088 118.01 102.28 118.145 102.713C118.208 102.917 118.246 103.17 118.257 103.474C118.285 103.745 118.272 104.014 118.216 104.283C118.051 105.005 117.841 105.811 117.588 106.7C117.335 107.589 117.061 108.457 116.767 109.303C116.544 109.932 116.181 110.646 115.676 111.446C115.172 112.246 114.589 112.973 113.927 113.627C113.265 114.281 112.578 114.719 111.865 114.941ZM111.593 99.9822C112.396 98.0829 113.181 96.0778 113.946 93.9669C114.729 91.8226 115.275 89.7244 115.584 87.6724C115.595 87.5292 115.63 87.2389 115.689 86.8014C115.748 86.364 115.782 85.8923 115.792 85.3864C115.794 84.8551 115.743 84.424 115.639 84.0931C115.504 83.6604 115.271 83.4957 114.94 83.599L114.673 83.6825C114.342 83.7859 114.019 84.1382 113.704 84.7395C113.415 85.3328 113.16 86.0828 112.94 86.9895C112.657 88.1396 112.434 89.4385 112.272 90.8861C112.101 92.3083 111.967 93.8028 111.87 95.3697C111.773 96.9366 111.68 98.4741 111.593 99.9822Z" fill="white"/>
<path d="M3 89.869C18.9868 68.2656 12.767 39.8557 64.3729 24.3239C64.3729 24.3239 39.6285 39.5249 39.9965 61.4167C40.0657 65.4706 42.722 70.3165 42.7183 70.5443C42.7183 70.5443 54.3764 35.9121 86.197 21.2385C86.197 21.2385 98.8716 16.1537 105.676 16.0949C110.027 16.0545 118.187 15.4058 123.15 18.1513C126.196 19.8327 131.31 22.1959 133.416 31.3327C134.159 34.5504 135.234 42.7536 133.01 47.5701C132.252 49.2056 131.889 49.8451 128.794 53.3991C126.535 55.9939 122.47 57.8003 122.47 57.8003C122.47 57.8003 120.45 58.9396 118.05 58.4085C116.657 58.0961 115.536 56.898 115.536 56.898C115.536 56.898 112.745 52.4288 117.507 49.4151C117.507 49.4151 114.806 55.698 118.73 54.4962C120.084 54.0827 122.126 51.6772 122.505 50.2457C122.816 49.0733 122.92 47.1254 122.811 45.7214C122.605 43.1157 122.259 41.9488 120.362 41.1953C119.049 40.6698 116.412 39.9604 112.741 43.4575C110.849 45.262 108.622 48.7462 108.941 55.845C109.045 58.1862 109.482 60.7037 110.572 64.1328C111.661 67.5637 112.362 75.1237 129.676 79.9439C133.62 81.0373 144.635 80.927 167 80.5576C167 80.5576 139.311 83.5824 133.081 82.965C126.141 82.2722 113.971 81.9322 106.186 66.1358C106.186 66.1358 103.091 60.7552 103.636 51.341C104.009 44.9 106.87 40.5154 110.027 37.3932C110.027 37.3932 113.348 34.0046 118.595 34.747C126.617 35.8864 127.57 44.2091 127.57 46.8185C127.57 46.8185 131.579 39.0802 126.89 31.3327C125.494 29.0246 124.99 28.0286 121.893 24.9395C119.634 22.6866 114.024 18.0906 104.658 18.7706C98.2212 19.2336 93.55 19.8823 85.787 24.0133C82.8684 25.5698 78.3429 27.6115 73.8575 32.0034C69.3703 36.388 66.6156 37.0772 55.7027 51.3777C53.0792 54.8159 52.3487 56.9402 48.8707 67.5287C46.5297 74.6515 46.6918 79.6333 46.8303 83.0623C46.9669 86.4896 49.0912 93.6049 49.5157 94C42.1044 87.1401 39.572 81.8458 38.5681 79.6884C36.9886 76.2925 35.91 73.9844 35.2032 68.7636C33.7766 58.2174 36.1615 51.148 38.6082 46.5429C39.408 45.0378 44.7898 38.2992 53.358 30.186C53.358 30.186 37.9323 38.7255 29.9216 48.794C25.7003 54.1048 12.6959 76.7666 3 89.869Z" fill="white"/>
<path d="M85.5176 141.93C84.8813 142.129 84.2716 142.256 83.6886 142.313C83.1055 142.369 82.5877 142.321 82.1352 142.169C81.821 142.058 81.5482 141.878 81.3167 141.629C81.098 141.376 80.941 141.097 80.8455 140.791C80.7262 140.41 80.7231 140.019 80.8361 139.621C80.949 139.222 81.2231 138.892 81.6582 138.631C81.7178 138.598 81.7731 138.574 81.824 138.558C81.8837 138.525 81.939 138.501 81.9899 138.485C82.2444 138.406 82.485 138.393 82.7117 138.448C82.9511 138.499 83.1329 138.589 83.2569 138.718C83.2179 138.772 83.1698 138.864 83.1125 138.993C83.0513 139.11 83.0179 139.205 83.0123 139.276C82.9208 139.654 82.9248 140.002 83.0242 140.32C83.1593 140.753 83.4361 141.058 83.8545 141.234C84.2816 141.394 84.7688 141.389 85.316 141.218C85.8124 141.062 86.2391 140.796 86.5963 140.419C86.9622 140.026 87.2132 139.577 87.3492 139.074C87.498 138.566 87.4869 138.039 87.3159 137.492C87.1887 137.084 86.9581 136.682 86.624 136.283C86.3353 135.94 85.9969 135.662 85.6088 135.448C85.2333 135.23 84.8766 135.027 84.5386 134.839C84.0797 134.577 83.6374 134.324 83.2119 134.08C82.7951 133.819 82.4213 133.517 82.0905 133.173C81.7684 132.813 81.5258 132.372 81.3628 131.85C81.2077 131.354 81.1584 130.838 81.2149 130.304C81.2842 129.765 81.4644 129.269 81.7555 128.815C82.0817 128.294 82.5072 127.868 83.0322 127.536C83.5572 127.204 84.1315 126.941 84.7551 126.746C85.5314 126.504 86.1741 126.415 86.6832 126.479C87.201 126.527 87.603 126.674 87.8894 126.92C88.1884 127.161 88.3916 127.454 88.499 127.798C88.6024 128.129 88.6254 128.471 88.5681 128.824C88.5235 129.173 88.4078 129.496 88.2209 129.791C88.0299 130.075 87.7897 130.289 87.5002 130.436C87.4532 130.464 87.4043 130.487 87.3534 130.502C87.3025 130.518 87.2452 130.536 87.1816 130.556C86.9016 130.644 86.6336 130.658 86.3775 130.598C86.1341 130.534 85.9647 130.35 85.8692 130.044C85.8573 130.006 85.8434 129.961 85.8275 129.911C85.8243 129.856 85.8211 129.801 85.818 129.746C86.047 129.674 86.2566 129.518 86.4467 129.277C86.6369 129.036 86.7383 128.802 86.751 128.574C86.763 128.389 86.7471 128.226 86.7033 128.086C86.596 127.743 86.3534 127.525 85.9756 127.434C85.6065 127.326 85.212 127.337 84.792 127.468C84.2957 127.623 83.8841 127.871 83.5571 128.21C83.239 128.533 83.0254 128.9 82.9164 129.311C82.8034 129.71 82.8085 130.106 82.9318 130.501C83.055 130.895 83.2952 131.24 83.6523 131.533C83.9474 131.762 84.2974 131.988 84.7022 132.211C85.1031 132.421 85.5083 132.622 85.918 132.816C86.3236 132.996 86.6787 133.172 86.9834 133.342C87.6642 133.688 88.2027 134.093 88.5987 134.556C88.9908 135.006 89.2664 135.485 89.4254 135.994C89.6083 136.58 89.6413 137.177 89.5243 137.786C89.4161 138.379 89.1818 138.948 88.8215 139.494C88.4611 140.039 87.9986 140.526 87.4338 140.954C86.8691 141.382 86.2303 141.707 85.5176 141.93ZM92.0858 139.584C91.7549 139.688 91.4336 139.621 91.1218 139.383C90.8188 139.128 90.5893 138.662 90.4335 137.984C90.3715 137.696 90.3238 137.32 90.2904 136.856C90.257 136.391 90.2455 135.885 90.2559 135.337C90.275 134.772 90.3192 134.221 90.3884 133.682C90.4537 133.131 90.5559 132.631 90.6952 132.182C90.7755 131.948 90.8797 131.789 91.0078 131.708C91.1446 131.609 91.4103 131.498 91.8048 131.375L92.7211 131.088C92.6002 131.461 92.4904 131.915 92.3917 132.449C92.2931 132.982 92.2135 133.51 92.153 134.032C92.0885 134.541 92.0468 134.966 92.0276 135.307C92.03 135.404 92.0288 135.579 92.024 135.832C92.0153 136.072 92.0208 136.336 92.0407 136.623C92.0605 136.91 92.1063 137.168 92.1778 137.398C92.2414 137.601 92.3333 137.761 92.4534 137.877C92.5735 137.993 92.7354 138.02 92.939 137.956C93.1768 137.868 93.39 137.633 93.5785 137.253C93.7671 136.873 93.9298 136.41 94.0666 135.865C94.2035 135.319 94.328 134.756 94.4402 134.176C94.5611 133.58 94.6622 133.031 94.7433 132.531C94.8333 132.014 94.9168 131.611 94.994 131.321C95.0934 130.969 95.2175 130.651 95.3663 130.367C95.5111 130.07 95.7235 129.878 96.0034 129.791C96.1053 129.759 96.2409 129.723 96.4103 129.684C96.5885 129.629 96.7603 129.575 96.9257 129.523C97.1039 129.468 97.2228 129.424 97.2825 129.391C97.222 129.466 97.1647 129.595 97.1106 129.78C97.0565 129.964 97.0044 130.155 96.9543 130.353C96.9129 130.533 96.8827 130.682 96.8636 130.8C96.7395 131.565 96.6237 132.335 96.5162 133.109C96.4176 133.866 96.3853 134.567 96.4195 135.213C96.4274 135.462 96.4572 135.669 96.5089 135.835C96.6282 136.217 96.8151 136.368 97.0696 136.288C97.2478 136.233 97.4626 136.026 97.7139 135.668C97.9049 135.385 98.0715 135.046 98.2139 134.653C98.3778 134.238 98.5146 133.804 98.6244 133.351C98.7342 132.898 98.8222 132.486 98.8882 132.116C98.9113 132.011 98.9419 131.953 98.9801 131.941C99.0564 131.917 99.1264 132.007 99.19 132.21C99.2219 132.312 99.2405 132.439 99.2461 132.591C99.2604 132.726 99.2493 132.869 99.2127 133.021C99.1299 133.382 99.0253 133.784 98.8988 134.229C98.7683 134.661 98.6315 135.095 98.4883 135.531C98.3817 135.815 98.2277 136.15 98.0265 136.534C97.8252 136.918 97.5929 137.27 97.3296 137.59C97.079 137.906 96.801 138.111 96.4956 138.207C96.3174 138.262 96.1401 138.276 95.9635 138.247C95.7909 138.231 95.6219 138.137 95.4564 137.966C95.2457 137.738 95.0687 137.395 94.9256 136.937C94.8818 136.797 94.8425 136.649 94.8075 136.492C94.7685 136.323 94.7359 136.151 94.7097 135.978C94.6023 136.305 94.4762 136.617 94.3314 136.913C94.1994 137.206 94.0609 137.501 93.9161 137.797C93.5836 138.432 93.2654 138.867 92.9616 139.101C92.6704 139.332 92.3785 139.493 92.0858 139.584ZM102.882 136.232C102.475 136.36 102.128 136.279 101.843 135.991C101.607 135.73 101.424 135.389 101.293 134.969C101.146 134.498 101.053 133.954 101.014 133.338C100.975 132.721 100.983 132.076 101.038 131.403C101.059 131.159 101.088 130.849 101.125 130.474C101.174 130.096 101.251 129.716 101.355 129.334C101.225 129.542 101.054 129.735 100.844 129.912C100.63 130.077 100.409 130.195 100.18 130.267C100.002 130.322 99.8474 130.343 99.7169 130.328C99.6787 130.563 99.6167 130.946 99.5307 131.475C99.4448 132.005 99.3083 132.641 99.1214 133.384C99.1031 133.46 99.0649 133.472 99.0068 133.42C98.9575 133.352 98.913 133.254 98.8732 133.127C98.8414 133.025 98.8203 132.913 98.81 132.79C98.7997 132.668 98.8041 132.548 98.8231 132.43C98.8749 132.148 98.9246 131.86 98.9723 131.566C99.0161 131.259 99.0571 130.988 99.0953 130.752C99.1335 130.517 99.151 130.372 99.1478 130.317C98.883 130.274 98.6614 130.168 98.4833 130.001C98.3012 129.82 98.1783 129.628 98.1147 129.424C98.051 129.221 98.0379 129.022 98.0753 128.829C98.1255 128.632 98.232 128.459 98.3951 128.31C98.4977 128.236 98.5999 128.183 98.7018 128.151C98.9817 128.064 99.2387 128.081 99.4725 128.204C99.4757 128.259 99.4808 128.32 99.488 128.388C99.5039 128.439 99.5218 128.496 99.5417 128.559C99.6649 128.954 99.9155 129.197 100.293 129.288C100.671 129.38 101.037 129.343 101.39 129.176C101.488 128.866 101.622 128.58 101.792 128.317C101.961 128.055 102.18 127.882 102.447 127.798C102.587 127.755 102.786 127.699 103.045 127.633C103.316 127.562 103.507 127.502 103.617 127.454C103.557 127.528 103.5 127.658 103.446 127.843C103.391 128.027 103.346 128.216 103.308 128.409C103.271 128.603 103.241 128.752 103.218 128.857C103.081 129.626 102.969 130.387 102.883 131.14C102.793 131.881 102.766 132.574 102.8 133.22C102.81 133.342 102.818 133.459 102.825 133.568C102.84 133.661 102.863 133.759 102.895 133.861C103.014 134.242 103.201 134.394 103.456 134.314C103.634 134.258 103.849 134.052 104.1 133.694C104.317 133.36 104.495 133.012 104.632 132.647C104.783 132.237 104.914 131.805 105.024 131.352C105.134 130.898 105.221 130.487 105.288 130.117C105.319 129.995 105.348 129.93 105.373 129.922C105.45 129.898 105.524 130.001 105.595 130.23C105.623 130.319 105.644 130.431 105.659 130.567C105.673 130.702 105.666 130.837 105.638 130.971C105.547 131.349 105.44 131.766 105.317 132.224C105.191 132.668 105.056 133.109 104.913 133.545C104.819 133.825 104.665 134.16 104.451 134.548C104.25 134.932 104.011 135.286 103.735 135.61C103.472 135.929 103.187 136.137 102.882 136.232ZM105.445 140.482C104.783 140.688 104.262 140.676 103.883 140.446C103.504 140.215 103.256 139.915 103.141 139.546C103.069 139.317 103.053 139.085 103.091 138.849C103.116 138.618 103.198 138.432 103.335 138.291C103.443 138.187 103.547 138.12 103.649 138.088C103.789 138.044 103.93 138.049 104.073 138.102C104.215 138.156 104.31 138.259 104.358 138.411C104.37 138.45 104.38 138.481 104.388 138.507C104.387 138.549 104.386 138.591 104.385 138.633C104.329 138.721 104.289 138.838 104.265 138.985C104.228 139.136 104.217 139.28 104.231 139.415C104.227 139.444 104.23 139.478 104.242 139.516C104.254 139.554 104.264 139.586 104.272 139.612C104.324 139.777 104.418 139.901 104.556 139.984C104.694 140.067 104.826 140.088 104.953 140.048C105.284 139.945 105.564 139.725 105.794 139.387C106.024 139.05 106.209 138.657 106.348 138.209C106.504 137.769 106.626 137.333 106.714 136.9C106.803 136.467 106.869 136.097 106.913 135.79C107.128 134.424 107.296 133.016 107.416 131.568C107.549 130.116 107.66 128.705 107.75 127.336L107.215 127.503C106.986 127.575 106.756 127.688 106.525 127.844C106.307 127.996 106.168 128.221 106.108 128.52C106.027 128.978 105.936 129.467 105.833 129.988C105.743 130.505 105.622 131.032 105.468 131.569C105.445 131.674 105.414 131.733 105.376 131.744C105.313 131.764 105.251 131.679 105.191 131.488C105.12 131.259 105.098 131.056 105.127 130.879C105.218 130.502 105.294 130.094 105.352 129.657C105.42 129.202 105.475 128.773 105.516 128.369C105.557 127.965 105.58 127.637 105.585 127.384C105.593 127.186 105.619 127.045 105.663 126.961C105.719 126.874 105.866 126.807 106.103 126.761L107.825 126.37C107.85 125.915 107.873 125.474 107.894 125.049C107.924 124.607 107.953 124.186 107.981 123.785C108.043 122.956 108.16 122.144 108.331 121.35C108.502 120.557 108.802 119.862 109.231 119.267C109.668 118.656 110.294 118.223 111.109 117.968C111.576 117.808 111.998 117.753 112.377 117.802C112.756 117.852 113.087 118.063 113.371 118.435C113.445 118.537 113.506 118.665 113.553 118.818C113.633 119.072 113.651 119.353 113.607 119.66C113.563 119.967 113.449 120.205 113.265 120.375C113.213 120.433 113.151 120.48 113.078 120.517C113.006 120.553 112.938 120.582 112.874 120.601C112.709 120.653 112.549 120.654 112.394 120.605C112.238 120.556 112.135 120.448 112.083 120.283C112.06 120.206 112.053 120.118 112.063 120.017C112.24 119.78 112.326 119.495 112.32 119.161C112.317 119.106 112.309 119.06 112.297 119.022C112.298 118.98 112.292 118.939 112.28 118.901C112.201 118.647 112.048 118.492 111.821 118.437C111.725 118.397 111.63 118.385 111.537 118.4C111.44 118.402 111.347 118.418 111.258 118.445C110.838 118.577 110.524 118.891 110.316 119.389C110.056 119.987 109.862 120.684 109.733 121.478C109.617 122.269 109.536 123.062 109.492 123.858C109.46 124.651 109.428 125.352 109.395 125.963C109.917 125.8 110.417 125.637 110.897 125.473C111.385 125.292 111.802 125.127 112.146 124.978C112.487 124.815 112.687 124.697 112.748 124.622C112.734 124.892 112.641 125.13 112.468 125.338C112.308 125.542 112.029 125.741 111.628 125.936C111.352 126.078 111.014 126.226 110.614 126.378C110.211 126.518 109.795 126.662 109.366 126.81L109.314 128.587C109.294 129.151 109.263 129.811 109.219 130.565C109.188 131.315 109.129 132.109 109.041 132.946C108.95 133.771 108.814 134.589 108.634 135.399C108.467 136.206 108.242 136.96 107.959 137.664C107.692 138.375 107.35 138.978 106.931 139.472C106.526 139.962 106.03 140.299 105.445 140.482ZM122.672 130.322C122.036 130.521 121.426 130.648 120.843 130.705C120.26 130.761 119.742 130.713 119.29 130.561C118.976 130.45 118.703 130.27 118.471 130.021C118.253 129.768 118.096 129.489 118 129.183C117.881 128.802 117.878 128.411 117.991 128.013C118.104 127.614 118.378 127.284 118.813 127.023C118.873 126.99 118.928 126.966 118.979 126.95C119.038 126.917 119.094 126.893 119.145 126.877C119.399 126.798 119.64 126.785 119.866 126.84C120.106 126.891 120.288 126.981 120.412 127.11C120.373 127.164 120.325 127.256 120.267 127.385C120.206 127.502 120.173 127.597 120.167 127.668C120.075 128.046 120.079 128.394 120.179 128.712C120.314 129.145 120.591 129.45 121.009 129.626C121.436 129.786 121.923 129.781 122.471 129.61C122.967 129.455 123.394 129.188 123.751 128.811C124.117 128.418 124.368 127.969 124.504 127.466C124.653 126.958 124.642 126.431 124.471 125.884C124.343 125.476 124.113 125.074 123.779 124.675C123.49 124.332 123.152 124.054 122.763 123.84C122.388 123.622 122.031 123.419 121.693 123.231C121.234 122.969 120.792 122.717 120.367 122.472C119.95 122.211 119.576 121.909 119.245 121.565C118.923 121.205 118.68 120.764 118.517 120.242C118.362 119.746 118.313 119.231 118.37 118.696C118.439 118.158 118.619 117.661 118.91 117.207C119.236 116.686 119.662 116.26 120.187 115.928C120.712 115.596 121.286 115.333 121.91 115.138C122.686 114.896 123.329 114.807 123.838 114.871C124.356 114.919 124.758 115.066 125.044 115.312C125.343 115.553 125.546 115.846 125.654 116.19C125.757 116.521 125.78 116.863 125.723 117.216C125.678 117.565 125.562 117.888 125.376 118.183C125.185 118.467 124.944 118.681 124.655 118.828C124.608 118.856 124.559 118.879 124.508 118.894C124.457 118.91 124.4 118.928 124.336 118.948C124.056 119.036 123.788 119.05 123.532 118.99C123.289 118.926 123.119 118.742 123.024 118.436C123.012 118.398 122.998 118.354 122.982 118.303C122.979 118.248 122.976 118.193 122.973 118.138C123.202 118.066 123.411 117.91 123.601 117.669C123.792 117.428 123.893 117.194 123.906 116.966C123.918 116.781 123.902 116.618 123.858 116.478C123.751 116.135 123.508 115.917 123.13 115.826C122.761 115.718 122.367 115.729 121.947 115.86C121.45 116.015 121.039 116.263 120.712 116.602C120.394 116.925 120.18 117.292 120.071 117.703C119.958 118.102 119.963 118.498 120.086 118.893C120.21 119.288 120.45 119.632 120.807 119.925C121.102 120.154 121.452 120.38 121.857 120.603C122.258 120.813 122.663 121.014 123.073 121.208C123.478 121.388 123.833 121.564 124.138 121.734C124.819 122.08 125.357 122.485 125.753 122.948C126.146 123.398 126.421 123.877 126.58 124.386C126.763 124.972 126.796 125.569 126.679 126.179C126.571 126.771 126.337 127.34 125.976 127.886C125.616 128.431 125.153 128.918 124.589 129.346C124.024 129.774 123.385 130.099 122.672 130.322ZM126.77 133.819C126.806 133.71 126.839 133.525 126.869 133.264C126.904 133.016 126.938 132.747 126.973 132.456C127.008 132.166 127.036 131.92 127.057 131.718C127.106 131.116 127.15 130.383 127.187 129.519C127.228 128.668 127.264 127.777 127.295 126.845C127.325 125.914 127.354 125.025 127.383 124.178C127.412 123.33 127.45 122.627 127.499 122.067C127.547 121.549 127.599 121.135 127.655 120.824C127.708 120.5 127.844 120.241 128.062 120.047C128.29 119.836 128.671 119.647 129.205 119.48L129.778 119.301C129.64 119.484 129.496 119.851 129.346 120.4C129.205 120.933 129.085 121.488 128.986 122.063C129.039 121.921 129.088 121.787 129.132 121.661C129.173 121.523 129.224 121.395 129.285 121.278C129.537 120.655 129.841 120.106 130.196 119.632C130.55 119.158 130.944 118.853 131.377 118.718C131.733 118.607 132.074 118.647 132.399 118.839C132.737 119.026 133.006 119.439 133.205 120.075C133.387 120.66 133.458 121.288 133.416 121.958C133.382 122.611 133.264 123.262 133.062 123.912C132.856 124.549 132.594 125.141 132.276 125.687C132.215 125.804 132.141 125.925 132.054 126.05C131.976 126.158 131.892 126.268 131.801 126.38C132.22 126.291 132.591 126.071 132.914 125.718C133.25 125.362 133.531 124.967 133.759 124.532C133.999 124.094 134.186 123.708 134.319 123.373C134.47 122.962 134.605 122.501 134.724 121.989C134.856 121.472 134.954 121.023 135.016 120.641C135.039 120.536 135.069 120.477 135.108 120.465C135.209 120.433 135.296 120.532 135.368 120.761C135.431 120.965 135.433 121.195 135.373 121.451C135.331 121.673 135.267 121.959 135.18 122.307C135.093 122.656 135.014 122.96 134.941 123.22C134.622 124.256 134.16 125.168 133.555 125.958C132.95 126.748 132.1 127.314 131.005 127.656C130.916 127.683 130.821 127.713 130.719 127.745C130.63 127.773 130.532 127.796 130.426 127.815C130.113 127.885 129.803 127.899 129.496 127.855C129.193 127.824 128.945 127.657 128.753 127.354L128.727 131.028C128.726 131.518 128.714 131.926 128.691 132.255C128.656 132.587 128.57 132.851 128.436 133.047C128.293 133.259 128.043 133.421 127.687 133.533L126.77 133.819ZM129.737 127.151C129.953 127.083 130.168 126.898 130.38 126.594C130.588 126.277 130.775 125.912 130.938 125.497C131.111 125.066 131.243 124.662 131.335 124.284C131.468 123.683 131.553 123.084 131.59 122.486C131.627 121.888 131.591 121.417 131.484 121.073C131.365 120.692 131.152 120.548 130.847 120.644C130.58 120.727 130.327 120.946 130.088 121.3C129.915 121.55 129.735 121.892 129.55 122.327C129.377 122.758 129.219 123.234 129.074 123.754C128.938 124.258 128.85 124.76 128.811 125.261C128.781 125.745 128.821 126.166 128.933 126.522C128.953 126.586 128.973 126.649 128.992 126.713C129.021 126.76 129.052 126.813 129.084 126.873C129.239 127.146 129.457 127.238 129.737 127.151ZM137.1 115.338C136.734 115.326 136.5 115.162 136.401 114.844C136.31 114.551 136.331 114.216 136.464 113.839C136.607 113.445 136.804 113.16 137.056 112.984C137.112 112.938 137.159 112.91 137.197 112.898C137.248 112.882 137.299 112.866 137.35 112.85C137.566 112.782 137.764 112.79 137.944 112.874C138.124 112.957 138.239 113.082 138.291 113.247C138.363 113.476 138.301 113.705 138.107 113.933C137.908 113.968 137.738 114.07 137.595 114.24C137.453 114.41 137.338 114.6 137.249 114.809C137.174 115.014 137.124 115.19 137.1 115.338ZM136.715 125.641C136.55 125.693 136.379 125.704 136.202 125.676C136.03 125.66 135.861 125.566 135.695 125.394C135.46 125.132 135.276 124.792 135.145 124.372C135.002 123.913 134.913 123.383 134.878 122.779C134.839 122.162 134.841 121.519 134.883 120.85C134.905 120.605 134.936 120.302 134.976 119.94C135.017 119.579 135.083 119.209 135.174 118.831C135.266 118.453 135.401 118.125 135.579 117.845C135.766 117.55 136.006 117.356 136.298 117.264C136.438 117.221 136.638 117.165 136.896 117.099C137.155 117.032 137.339 116.974 137.45 116.926C137.389 117 137.332 117.13 137.278 117.315C137.224 117.499 137.178 117.688 137.141 117.881C137.099 118.062 137.067 118.205 137.044 118.31C136.92 119.075 136.813 119.828 136.723 120.568C136.633 121.309 136.605 122.002 136.639 122.648C136.645 122.757 136.658 122.865 136.677 122.971C136.696 123.077 136.72 123.174 136.748 123.263C136.863 123.632 137.042 123.779 137.283 123.704C137.385 123.672 137.485 123.613 137.584 123.526C137.691 123.422 137.808 123.281 137.934 123.102C138.155 122.782 138.328 122.441 138.453 122.081C138.604 121.671 138.736 121.245 138.85 120.805C138.96 120.351 139.048 119.94 139.114 119.57C139.146 119.448 139.174 119.383 139.2 119.375C139.276 119.351 139.348 119.448 139.416 119.664C139.448 119.766 139.466 119.893 139.472 120.045C139.486 120.18 139.479 120.315 139.451 120.449C139.369 120.81 139.264 121.213 139.138 121.658C139.011 122.102 138.874 122.536 138.727 122.959C138.624 123.257 138.472 123.598 138.271 123.982C138.07 124.366 137.838 124.718 137.574 125.038C137.307 125.345 137.021 125.546 136.715 125.641ZM143.113 123.663C142.705 123.791 142.359 123.71 142.073 123.422C141.838 123.161 141.655 122.82 141.523 122.4C141.376 121.929 141.283 121.385 141.244 120.769C141.205 120.152 141.213 119.507 141.268 118.834C141.29 118.59 141.319 118.28 141.355 117.905C141.405 117.527 141.482 117.147 141.586 116.765C141.455 116.973 141.285 117.166 141.075 117.343C140.861 117.508 140.64 117.626 140.411 117.698C140.232 117.753 140.078 117.774 139.948 117.759C139.909 117.994 139.847 118.377 139.761 118.906C139.676 119.436 139.539 120.072 139.352 120.815C139.334 120.891 139.296 120.903 139.238 120.851C139.188 120.783 139.144 120.685 139.104 120.558C139.072 120.456 139.051 120.344 139.041 120.221C139.03 120.099 139.035 119.979 139.054 119.861C139.106 119.579 139.155 119.291 139.203 118.997C139.247 118.69 139.288 118.419 139.326 118.183C139.364 117.948 139.382 117.803 139.379 117.748C139.114 117.705 138.892 117.599 138.714 117.432C138.532 117.251 138.409 117.059 138.345 116.855C138.282 116.652 138.269 116.453 138.306 116.26C138.356 116.063 138.463 115.89 138.626 115.741C138.728 115.667 138.831 115.614 138.932 115.582C139.212 115.495 139.469 115.512 139.703 115.635C139.706 115.69 139.712 115.751 139.719 115.819C139.735 115.87 139.753 115.927 139.772 115.99C139.896 116.385 140.146 116.628 140.524 116.719C140.902 116.811 141.267 116.774 141.62 116.607C141.719 116.297 141.853 116.011 142.023 115.748C142.192 115.486 142.41 115.313 142.678 115.229C142.818 115.186 143.017 115.13 143.275 115.064C143.547 114.993 143.738 114.933 143.848 114.885C143.788 114.959 143.73 115.089 143.676 115.274C143.622 115.458 143.576 115.647 143.539 115.84C143.502 116.034 143.471 116.183 143.448 116.288C143.311 117.057 143.2 117.818 143.114 118.571C143.024 119.312 142.996 120.005 143.03 120.651C143.041 120.773 143.049 120.89 143.055 120.999C143.071 121.092 143.094 121.19 143.126 121.292C143.245 121.673 143.432 121.825 143.687 121.745C143.865 121.689 144.079 121.483 144.331 121.125C144.548 120.791 144.725 120.443 144.863 120.078C145.014 119.668 145.145 119.236 145.254 118.783C145.364 118.329 145.452 117.918 145.518 117.548C145.55 117.426 145.579 117.361 145.604 117.353C145.681 117.33 145.754 117.432 145.826 117.661C145.854 117.75 145.875 117.862 145.889 117.998C145.904 118.133 145.897 118.268 145.869 118.402C145.777 118.78 145.67 119.197 145.548 119.655C145.421 120.099 145.287 120.54 145.143 120.976C145.049 121.256 144.896 121.591 144.682 121.979C144.48 122.363 144.242 122.717 143.966 123.041C143.702 123.36 143.418 123.568 143.113 123.663ZM147.633 112.047C147.267 112.036 147.034 111.871 146.934 111.553C146.843 111.26 146.864 110.925 146.997 110.548C147.14 110.155 147.337 109.869 147.589 109.693C147.645 109.648 147.692 109.619 147.73 109.607C147.781 109.591 147.832 109.575 147.883 109.559C148.099 109.492 148.297 109.5 148.477 109.583C148.657 109.667 148.772 109.791 148.824 109.957C148.896 110.186 148.834 110.414 148.64 110.643C148.441 110.677 148.271 110.779 148.128 110.949C147.986 111.119 147.871 111.309 147.782 111.518C147.707 111.723 147.657 111.9 147.633 112.047ZM147.248 122.35C147.083 122.402 146.912 122.414 146.735 122.385C146.563 122.369 146.394 122.275 146.228 122.103C145.993 121.842 145.81 121.501 145.678 121.081C145.535 120.623 145.446 120.092 145.411 119.488C145.372 118.872 145.374 118.229 145.416 117.559C145.438 117.315 145.469 117.012 145.509 116.65C145.55 116.288 145.616 115.918 145.707 115.54C145.799 115.162 145.934 114.834 146.112 114.555C146.299 114.259 146.539 114.065 146.831 113.974C146.971 113.93 147.171 113.875 147.429 113.808C147.688 113.741 147.872 113.683 147.983 113.635C147.922 113.71 147.865 113.839 147.811 114.024C147.757 114.208 147.711 114.397 147.674 114.591C147.632 114.771 147.6 114.914 147.577 115.019C147.453 115.784 147.346 116.537 147.256 117.277C147.166 118.018 147.138 118.711 147.172 119.357C147.179 119.467 147.191 119.574 147.21 119.68C147.229 119.786 147.253 119.883 147.281 119.973C147.396 120.342 147.575 120.488 147.816 120.413C147.918 120.381 148.018 120.322 148.117 120.235C148.224 120.132 148.341 119.991 148.467 119.812C148.688 119.491 148.861 119.151 148.986 118.79C149.137 118.38 149.269 117.954 149.383 117.514C149.493 117.06 149.581 116.649 149.647 116.279C149.679 116.157 149.707 116.092 149.733 116.084C149.809 116.061 149.881 116.157 149.949 116.373C149.981 116.475 149.999 116.602 150.005 116.754C150.019 116.889 150.012 117.024 149.984 117.158C149.902 117.519 149.797 117.922 149.671 118.367C149.544 118.811 149.407 119.245 149.26 119.668C149.157 119.966 149.006 120.307 148.804 120.691C148.603 121.075 148.371 121.427 148.107 121.747C147.84 122.054 147.554 122.255 147.248 122.35ZM152.036 120.855C151.667 120.97 151.341 120.911 151.059 120.678C150.926 120.566 150.811 120.42 150.713 120.241C150.615 120.062 150.534 119.871 150.471 119.667C150.407 119.464 150.356 119.256 150.318 119.045C150.276 118.82 150.242 118.6 150.217 118.385C150.177 118.034 150.154 117.713 150.146 117.422C150.148 117.114 150.154 116.819 150.163 116.537L150.157 116.518C150.115 116.74 150.053 116.99 149.972 117.267C149.887 117.531 149.829 117.724 149.797 117.845C149.751 118.013 149.703 118.105 149.652 118.121C149.602 118.137 149.558 118.088 149.522 117.973C149.443 117.719 149.432 117.415 149.489 117.062C149.527 116.826 149.586 116.522 149.665 116.148C149.739 115.761 149.813 115.347 149.884 114.906C149.956 114.464 150.006 114.043 150.035 113.643L148.756 114.043C148.692 114.063 148.663 114.016 148.67 113.902C148.676 113.788 148.703 113.675 148.752 113.562C148.797 113.436 148.838 113.368 148.876 113.356L150.327 112.902C150.364 112.528 150.411 112.122 150.47 111.684C150.542 111.243 150.64 110.821 150.766 110.418C150.901 109.999 151.074 109.638 151.286 109.334C151.499 109.03 151.764 108.829 152.082 108.729C152.222 108.685 152.394 108.632 152.598 108.568C152.814 108.501 152.946 108.452 152.993 108.424C152.781 108.685 152.581 109.139 152.391 109.785C152.198 110.418 152.044 111.29 151.93 112.401L153.859 111.799C153.897 111.787 153.9 111.842 153.868 111.964C153.832 112.073 153.779 112.194 153.709 112.328C153.652 112.457 153.579 112.536 153.49 112.564L151.848 113.077C151.814 113.548 151.772 114.064 151.724 114.624C151.688 115.18 151.663 115.726 151.649 116.261C151.643 116.78 151.664 117.248 151.711 117.667C151.735 117.924 151.779 118.155 151.843 118.359C151.994 118.842 152.222 119.036 152.528 118.941C152.731 118.877 152.941 118.7 153.158 118.409C153.374 118.118 153.567 117.75 153.735 117.306C153.886 116.896 154.017 116.464 154.127 116.011C154.249 115.553 154.344 115.14 154.41 114.77C154.433 114.665 154.463 114.607 154.501 114.595C154.578 114.571 154.648 114.661 154.711 114.864C154.743 114.966 154.762 115.093 154.767 115.245C154.782 115.38 154.771 115.523 154.734 115.674C154.651 116.035 154.547 116.438 154.42 116.883C154.29 117.315 154.153 117.749 154.01 118.185C153.903 118.469 153.749 118.804 153.548 119.188C153.359 119.568 153.133 119.918 152.87 120.238C152.62 120.554 152.342 120.759 152.036 120.855Z" fill="white"/>
<defs>
<linearGradient id="paint0_linear_332_2" x1="85" y1="170" x2="85" y2="0" gradientUnits="userSpaceOnUse">
<stop stop-color="#0D2562"/>
<stop offset="1" stop-color="#03022C"/>
</linearGradient>
</defs>
</svg>
