<svg width="136" height="119" viewBox="0 0 136 119" fill="none" xmlns="http://www.w3.org/2000/svg">
<path d="M2.49538 72.9121C2.25056 72.6724 2.26442 72.2989 2.52634 72.078L37.5912 42.5045C65.1589 19.2541 108.396 20.8591 134.164 46.0894C134.409 46.3291 134.395 46.7025 134.133 46.9234L99.0683 76.4969C71.5006 99.7474 28.2634 98.1424 2.49538 72.9121Z" fill="#A22129"/>
<ellipse cx="68.738" cy="58.8265" rx="4.53213" ry="27.7937" transform="rotate(0.424676 68.738 58.8265)" fill="black"/>
<path d="M24.57 67.504C23.114 67.504 22.05 67.126 21.378 66.37C20.706 65.586 20.37 64.564 20.37 63.304C20.37 62.016 21 58.572 22.26 52.972C19.88 53.028 17.976 53.252 16.548 53.644C15.736 57.592 14.49 61.008 12.81 63.892C11.942 65.348 10.892 66.496 9.66 67.336C8.428 68.204 7.084 68.638 5.628 68.638C4.172 68.638 2.982 68.148 2.058 67.168C1.134 66.216 0.672 64.956 0.672 63.388C0.672 61.148 1.596 59.048 3.444 57.088C5.292 55.1 7.63 53.504 10.458 52.3C10.71 49.724 10.836 47.624 10.836 46C10.836 44.348 10.668 43.186 10.332 42.514C10.024 41.842 9.52 41.506 8.82 41.506C8.12 41.506 7.196 41.772 6.048 42.304C4.9 42.808 3.822 43.494 2.814 44.362L1.764 42.85C2.772 41.618 4.256 40.456 6.216 39.364C8.176 38.244 10.066 37.684 11.886 37.684C15.554 37.684 17.388 40.47 17.388 46.042C17.388 47.358 17.276 48.94 17.052 50.788C18.872 50.424 20.818 50.186 22.89 50.074C23.842 45.65 24.318 42.15 24.318 39.574C24.318 39.098 24.29 38.734 24.234 38.482C26.474 37.614 28.728 37.18 30.996 37.18C31.08 37.404 31.122 37.796 31.122 38.356C31.122 40.092 30.436 44.054 29.064 50.242C32.424 50.494 34.72 50.83 35.952 51.25C35.98 51.362 35.994 51.572 35.994 51.88C35.994 52.468 35.728 53.21 35.196 54.106C33.376 53.546 31.136 53.182 28.476 53.014C27.496 57.718 27.006 60.77 27.006 62.17C27.006 63.542 27.342 64.228 28.014 64.228C28.378 64.228 28.77 64.158 29.19 64.018L29.82 65.656C27.804 66.888 26.054 67.504 24.57 67.504ZM5.208 64.606C6.104 64.606 6.986 63.836 7.854 62.296C8.722 60.756 9.422 58.46 9.954 55.408C8.386 56.08 6.958 57.13 5.67 58.558C4.382 59.986 3.738 61.358 3.738 62.674C3.738 63.29 3.878 63.766 4.158 64.102C4.466 64.438 4.816 64.606 5.208 64.606ZM45.6451 49.612C45.7011 49.556 45.8551 49.192 46.1071 48.52C47.4231 48.52 49.1871 48.912 51.3991 49.696C50.6991 52.02 50.1391 54.456 49.7191 57.004C49.2991 59.524 49.0891 61.33 49.0891 62.422C49.0891 63.486 49.2011 64.018 49.4251 64.018C49.5931 64.018 50.2091 63.752 51.2731 63.22L51.7771 62.968L52.5331 64.438C52.2811 64.662 51.9451 64.942 51.5251 65.278C51.1331 65.614 50.3771 66.076 49.2571 66.664C48.1371 67.224 47.1291 67.504 46.2331 67.504C44.4971 67.504 43.4891 66.72 43.2091 65.152C41.4171 66.72 39.7931 67.504 38.3371 67.504C36.9091 67.504 35.6911 66.944 34.6831 65.824C33.7031 64.704 33.2131 62.94 33.2131 60.532C33.2131 56.78 33.9831 53.826 35.5231 51.67C37.0631 49.486 38.9251 48.394 41.1091 48.394C42.6771 48.394 44.1891 48.8 45.6451 49.612ZM40.8571 63.934C41.5291 63.934 42.2851 63.668 43.1251 63.136C43.3211 59.188 43.9791 55.282 45.0991 51.418C44.2591 51.054 43.5451 50.872 42.9571 50.872C41.9491 50.872 41.0811 51.866 40.3531 53.854C39.6531 55.814 39.3031 57.984 39.3031 60.364C39.3031 62.744 39.8211 63.934 40.8571 63.934ZM54.4428 67.126H53.6448C53.6448 65.81 54.0368 63.29 54.8208 59.566C55.6328 55.842 56.0388 53.728 56.0388 53.224C56.0388 52.3 55.6468 51.32 54.8628 50.284L54.4848 49.78L54.5268 49.234C56.0388 48.814 58.4608 48.604 61.7928 48.604C62.1568 49.08 62.3528 49.948 62.3808 51.208C64.8168 49.332 66.8748 48.394 68.5548 48.394C69.5628 48.394 70.3608 48.744 70.9488 49.444C71.5648 50.144 71.8728 51.026 71.8728 52.09C71.8728 53.126 71.5508 54.932 70.9068 57.508C70.2628 60.084 69.9408 61.82 69.9408 62.716C69.9408 63.584 70.0528 64.018 70.2768 64.018C70.4448 64.018 71.0328 63.752 72.0408 63.22L72.5448 62.968L73.3008 64.438C73.0488 64.662 72.7128 64.942 72.2928 65.278C71.8728 65.614 71.0888 66.076 69.9408 66.664C68.8208 67.224 67.8128 67.504 66.9168 67.504C64.8728 67.504 63.8508 66.342 63.8508 64.018C63.8508 63.038 64.1588 61.232 64.7748 58.6C65.4188 55.968 65.7408 54.274 65.7408 53.518C65.7408 52.762 65.5028 52.384 65.0268 52.384C64.2148 52.384 63.2208 52.734 62.0448 53.434C61.9608 53.91 61.6808 55.17 61.2048 57.214C60.2248 61.61 59.7348 64.718 59.7348 66.538C58.7548 66.93 56.9908 67.126 54.4428 67.126ZM75.771 67.126H74.973C74.973 65.81 75.365 63.29 76.149 59.566C76.961 55.842 77.367 53.728 77.367 53.224C77.367 52.3 76.975 51.32 76.191 50.284L75.813 49.78L75.855 49.234C77.367 48.814 79.789 48.604 83.121 48.604C83.485 49.08 83.681 49.948 83.709 51.208C86.145 49.332 88.203 48.394 89.883 48.394C90.891 48.394 91.689 48.744 92.277 49.444C92.893 50.144 93.201 51.026 93.201 52.09C93.201 53.126 92.879 54.932 92.235 57.508C91.591 60.084 91.269 61.82 91.269 62.716C91.269 63.584 91.381 64.018 91.605 64.018C91.773 64.018 92.361 63.752 93.369 63.22L93.873 62.968L94.629 64.438C94.377 64.662 94.041 64.942 93.621 65.278C93.201 65.614 92.417 66.076 91.269 66.664C90.149 67.224 89.141 67.504 88.245 67.504C86.201 67.504 85.179 66.342 85.179 64.018C85.179 63.038 85.487 61.232 86.103 58.6C86.747 55.968 87.069 54.274 87.069 53.518C87.069 52.762 86.831 52.384 86.355 52.384C85.543 52.384 84.549 52.734 83.373 53.434C83.289 53.91 83.009 55.17 82.533 57.214C81.553 61.61 81.063 64.718 81.063 66.538C80.083 66.93 78.319 67.126 75.771 67.126ZM99.6191 67.168C97.2951 67.168 96.1331 65.88 96.1331 63.304C96.1331 62.688 96.4131 60.91 96.9731 57.97C97.5331 55.03 97.8131 52.58 97.8131 50.62C97.8131 50.2 97.7571 49.808 97.6451 49.444C99.1571 48.856 101.229 48.562 103.861 48.562C104.001 48.954 104.071 49.626 104.071 50.578C104.071 51.53 103.763 53.434 103.147 56.29C102.531 59.146 102.223 61.008 102.223 61.876C102.223 62.744 102.447 63.178 102.895 63.178C104.127 63.178 105.317 62.744 106.465 61.876C106.549 60.84 107.109 56.626 108.145 49.234C109.125 48.842 110.889 48.646 113.437 48.646H114.235C113.899 49.962 113.339 53.294 112.555 58.642C111.799 63.962 111.253 67.336 110.917 68.764C110.581 70.192 110.119 71.452 109.531 72.544C108.971 73.636 108.271 74.448 107.431 74.98C106.619 75.54 105.793 75.918 104.953 76.114C104.113 76.31 103.021 76.408 101.677 76.408C100.361 76.408 99.1011 75.974 97.8971 75.106C96.7211 74.266 96.1331 73.538 96.1331 72.922C96.1331 72.53 96.6231 71.928 97.6031 71.116C98.6111 70.304 99.4511 69.8 100.123 69.604C101.551 71.032 102.601 72.586 103.273 74.266C104.001 74.266 104.645 73.398 105.205 71.662C105.765 69.926 106.143 67.378 106.339 64.018C105.667 64.69 104.645 65.39 103.273 66.118C101.901 66.818 100.683 67.168 99.6191 67.168ZM127.676 49.612C127.732 49.556 127.886 49.192 128.138 48.52C129.454 48.52 131.218 48.912 133.43 49.696C132.73 52.02 132.17 54.456 131.75 57.004C131.33 59.524 131.12 61.33 131.12 62.422C131.12 63.486 131.232 64.018 131.456 64.018C131.624 64.018 132.24 63.752 133.304 63.22L133.808 62.968L134.564 64.438C134.312 64.662 133.976 64.942 133.556 65.278C133.164 65.614 132.408 66.076 131.288 66.664C130.168 67.224 129.16 67.504 128.264 67.504C126.528 67.504 125.52 66.72 125.24 65.152C123.448 66.72 121.824 67.504 120.368 67.504C118.94 67.504 117.722 66.944 116.714 65.824C115.734 64.704 115.244 62.94 115.244 60.532C115.244 56.78 116.014 53.826 117.554 51.67C119.094 49.486 120.956 48.394 123.14 48.394C124.708 48.394 126.22 48.8 127.676 49.612ZM122.888 63.934C123.56 63.934 124.316 63.668 125.156 63.136C125.352 59.188 126.01 55.282 127.13 51.418C126.29 51.054 125.576 50.872 124.988 50.872C123.98 50.872 123.112 51.866 122.384 53.854C121.684 55.814 121.334 57.984 121.334 60.364C121.334 62.744 121.852 63.934 122.888 63.934Z" fill="#F3F3F3"/>
</svg>
