<svg width="24" height="24" viewBox="0 0 24 24" fill="none" xmlns="http://www.w3.org/2000/svg">
<path d="M11.2121 2.33448C10.7359 2.63551 10.7359 2.70241 11.1824 3.43827C11.9562 4.7093 11.8074 6.63256 10.8848 7.80324C10.0216 8.92375 9.27758 9.40875 8.05731 9.69306C7.31324 9.87702 7.1049 9.84358 6.27154 9.45892C5.20009 8.9572 4.93222 8.94048 3.68219 9.27496C2.78931 9.52582 2.75955 9.57599 2.93813 10.3453C3.02741 10.8303 2.84884 11.9675 2.46192 13.2218C1.95596 14.911 1.89643 15.4796 2.13453 16.1987C2.58097 17.5199 4.06911 18.9415 6.15249 20.0285C10.6467 22.4033 15.6468 22.6542 18.7421 20.664C20.2898 19.6606 20.4683 18.9749 19.7243 16.4663C19.3671 15.2622 19.0993 14.1249 19.0993 13.9242C19.0993 13.7068 19.5457 13.2051 20.1112 12.8037C21.2124 11.9843 22.2243 10.4958 21.9565 10.1112C21.8374 9.9272 21.3017 9.8603 20.0517 9.8603C18.3552 9.8603 18.2957 9.84358 18.4147 9.45892C18.5338 9.15789 18.3254 8.99065 17.4623 8.68962C16.6885 8.42203 16.4504 8.23807 16.5992 8.03738C17.0159 7.50221 17.0754 5.71274 16.7182 5.0605C16.1528 4.10723 14.7837 3.07034 13.2955 2.50172C12.5812 2.23414 11.9562 2 11.8669 2C11.8074 2 11.5098 2.15052 11.2121 2.33448ZM14.0396 8.47221C13.8313 8.82341 13.5039 9.20806 13.3253 9.34186C13.0872 9.52582 13.0872 9.59272 13.3848 9.65961C13.5932 9.69306 14.4265 10.2784 15.2301 10.9474C16.0635 11.633 16.9266 12.2518 17.2242 12.3355C17.6706 12.486 17.6706 12.5361 17.2242 13.1884C16.5397 14.1417 16.5992 14.9277 17.4921 16.5499C18.3254 18.0216 18.3254 18.7742 17.4623 19.4933C16.6587 20.179 15.617 20.4466 13.8015 20.4466C11.2121 20.4299 8.8609 19.8613 6.8668 18.7408C5.08104 17.7373 4.72389 17.2356 5.14056 16.2489C5.28938 15.881 5.25961 15.1451 5.05128 14.4594C4.75365 13.3222 4.84294 10.9641 5.20009 10.7634C5.28938 10.7132 5.67629 10.7801 6.06321 10.9306C6.98585 11.2986 8.56327 11.2651 9.75378 10.847C10.5871 10.5627 12.8491 9.07427 12.8491 8.80669C12.8491 8.77324 13.0574 8.45548 13.3253 8.10428C13.9503 7.25135 14.5456 7.55238 14.0396 8.47221Z" fill="url(#paint0_linear_95_692)"/>
<defs>
<linearGradient id="paint0_linear_95_692" x1="12" y1="22" x2="12" y2="2" gradientUnits="userSpaceOnUse">
<stop stop-color="#5E0909"/>
<stop offset="1" stop-color="#E27236"/>
</linearGradient>
</defs>
</svg>
