<svg width="222" height="37" viewBox="0 0 222 37" fill="none" xmlns="http://www.w3.org/2000/svg">
<path d="M13.6875 11.2109C13.6875 9.20573 12.8932 8.20312 11.3047 8.20312C9.89844 8.20312 9.05208 8.66536 8.76562 9.58984C8.63542 9.99349 8.57031 10.6641 8.57031 11.6016C8.57031 12.526 8.59635 13.4701 8.64844 14.4336C8.70052 15.3841 8.77214 16.1458 8.86328 16.7188C8.95443 17.2786 9.05208 17.7604 9.15625 18.1641C9.26042 18.5677 9.36458 18.8672 9.46875 19.0625C9.57292 19.2578 9.67057 19.4206 9.76172 19.5508C9.95703 19.8372 10.0547 20.0521 10.0547 20.1953C10.0547 20.3385 9.97656 20.5273 9.82031 20.7617C9.66406 20.9961 9.49479 21.3021 9.3125 21.6797C8.81771 22.6823 8.57031 24.7656 8.57031 27.9297C8.57031 29.8958 8.76562 31.1198 9.15625 31.6016C9.58594 32.1224 10.2435 32.3828 11.1289 32.3828C12.0013 32.3828 12.5612 32.2461 12.8086 31.9727C13.069 31.6992 13.2513 31.4714 13.3555 31.2891C13.4596 31.0938 13.5378 30.7943 13.5898 30.3906C13.6549 29.8177 13.6875 29.0234 13.6875 28.0078V27.7539C13.6875 24.6549 13.4401 22.6172 12.9453 21.6406C12.763 21.2891 12.5938 20.9961 12.4375 20.7617C12.2812 20.5143 12.2031 20.3255 12.2031 20.1953C12.2031 20.0521 12.2552 19.9154 12.3594 19.7852C12.4635 19.6419 12.5872 19.4336 12.7305 19.1602C12.8737 18.8737 13.0169 18.4766 13.1602 17.9688C13.5117 16.7318 13.6875 14.4792 13.6875 11.2109ZM0.152344 34.8047C1.72786 33.3464 2.51562 31.0352 2.51562 27.8711C2.51562 25.1497 2.26823 23.2617 1.77344 22.207C1.44792 21.5169 1.13542 21.0417 0.835938 20.7812C0.536458 20.5208 0.386719 20.332 0.386719 20.2148C0.386719 20.0846 0.458333 19.9544 0.601562 19.8242C0.744792 19.681 0.920573 19.4792 1.12891 19.2188C1.35026 18.9583 1.5651 18.5938 1.77344 18.125C2.26823 17.0312 2.51562 15.3581 2.51562 13.1055C2.51562 10.8398 2.33984 9.23828 1.98828 8.30078C1.64974 7.36328 1.03776 6.47786 0.152344 5.64453C0.152344 5.17578 0.510417 4.83073 1.22656 4.60938C1.51302 4.53125 1.90365 4.49219 2.39844 4.49219C2.90625 4.49219 3.44661 4.65495 4.01953 4.98047C4.60547 5.30599 5.02865 5.63151 5.28906 5.95703L5.67969 6.44531C6.82552 5.14323 9.01302 4.49219 12.2422 4.49219C14.6901 4.49219 16.5326 5.0651 17.7695 6.21094C19.3451 7.68229 20.1328 9.94792 20.1328 13.0078C20.1328 16.4974 20.6406 18.776 21.6562 19.8438C21.7734 19.974 21.832 20.0977 21.832 20.2148C21.832 20.332 21.7734 20.4557 21.6562 20.5859C21.5391 20.7031 21.3958 20.8919 21.2266 21.1523C21.0703 21.4128 20.9076 21.7643 20.7383 22.207C20.3346 23.2617 20.1328 25.1237 20.1328 27.793C20.1328 30.4622 19.4427 32.4935 18.0625 33.8867C16.6953 35.2799 14.8073 35.9766 12.3984 35.9766C9.19531 35.9766 6.95573 35.2279 5.67969 33.7305C5.11979 34.668 4.35807 35.3385 3.39453 35.7422C3.00391 35.8984 2.5612 35.9766 2.06641 35.9766C1.57161 35.9766 1.15495 35.8789 0.816406 35.6836C0.477865 35.4883 0.282552 35.293 0.230469 35.0977L0.152344 34.8047ZM39 27.168C39 26.9336 39.1172 26.7513 39.3516 26.6211C39.599 26.4909 39.918 26.4258 40.3086 26.4258C40.7122 26.4258 41.0768 26.4974 41.4023 26.6406C41.7409 26.7839 41.9102 26.9792 41.9102 27.2266C41.9102 31.4323 40.6797 34.2057 38.2188 35.5469C37.4115 35.9896 36.6628 36.237 35.9727 36.2891C35.2956 36.3411 34.7617 36.3672 34.3711 36.3672C31.9232 36.3672 29.957 35.6185 28.4727 34.1211C26.9883 32.6107 26.1094 30.332 25.8359 27.2852C25.6797 25.3841 25.0026 24.056 23.8047 23.3008C23.5703 23.1576 23.4401 23.0729 23.4141 23.0469C23.4141 23.0078 23.4987 22.9492 23.668 22.8711C23.8372 22.7799 24.0391 22.6497 24.2734 22.4805C24.5078 22.2982 24.7422 22.0638 24.9766 21.7773C25.5495 21.0742 25.8359 20.0391 25.8359 18.6719C25.8359 12.474 28.5508 9.375 33.9805 9.375C36.5586 9.375 38.5117 10.2083 39.8398 11.875C40.9857 13.3073 41.5586 15.3841 41.5586 18.1055C41.5586 19.7982 41.6107 20.8659 41.7148 21.3086C41.832 21.7513 41.9818 22.1289 42.1641 22.4414C42.3594 22.7539 42.4831 22.9622 42.5352 23.0664C42.0273 23.6523 41.474 23.9453 40.875 23.9453C40.6667 23.9453 40.4714 23.9062 40.2891 23.8281C39.2474 23.2812 37.8477 23.0078 36.0898 23.0078C34.332 23.0078 33.1211 23.1315 32.457 23.3789C31.9232 24.069 31.6562 25.319 31.6562 27.1289C31.6562 28.9388 31.9818 30.3451 32.6328 31.3477C33.2969 32.3372 34.2539 32.832 35.5039 32.832C36.7539 32.832 37.6458 32.3633 38.1797 31.4258C38.7266 30.4883 39 29.069 39 27.168ZM36.1875 19.7461L36.2266 17.2461C36.2266 14.3555 35.582 12.9102 34.293 12.9102C33.4076 12.9102 32.7565 13.151 32.3398 13.6328C32.0273 13.9974 31.8581 14.5312 31.832 15.2344C31.806 15.9245 31.793 16.8945 31.793 18.1445C31.793 19.3815 31.9297 20.3385 32.2031 21.0156C33.2318 20.9766 34.1497 20.8398 34.957 20.6055C35.7773 20.3581 36.1875 20.0716 36.1875 19.7461ZM57.5547 32.9102C57.1901 34.2253 56.4805 35.1432 55.4258 35.6641C54.931 35.9115 54.4297 36.0872 53.9219 36.1914C53.4141 36.3086 52.7565 36.3672 51.9492 36.3672C51.1419 36.3672 50.2956 36.1979 49.4102 35.8594C48.8633 35.651 48.375 35.3776 47.9453 35.0391C47.5286 34.7005 47.1445 34.2318 46.793 33.6328C46.4414 33.0208 46.194 32.3307 46.0508 31.5625C45.9076 30.7812 45.4714 29.9479 44.7422 29.0625C44.5078 28.7891 44.3906 28.6198 44.3906 28.5547C44.3906 28.4896 44.6185 28.1966 45.0742 27.6758C45.543 27.1419 45.8359 26.6016 45.9531 26.0547C46.3307 24.2969 47.1901 23.0599 48.5312 22.3438C49.1172 22.0182 49.7487 21.7448 50.4258 21.5234C51.1029 21.3021 51.7539 21.1003 52.3789 20.918C53.0169 20.7357 53.5964 20.5208 54.1172 20.2734C54.638 20.013 55.0547 19.6419 55.3672 19.1602C55.6797 18.6654 55.8359 17.9492 55.8359 17.0117C55.8359 16.0612 55.8034 15.1823 55.7383 14.375C55.6992 13.8802 55.6276 13.5026 55.5234 13.2422C55.4323 12.9818 55.3086 12.7279 55.1523 12.4805C54.9961 12.2331 54.7943 12.0638 54.5469 11.9727C54.2995 11.8685 53.9544 11.8164 53.5117 11.8164C53.069 11.8164 52.6849 12.0052 52.3594 12.3828C52.0339 12.7604 51.8711 13.2357 51.8711 13.8086C51.8711 14.3815 52.0664 15.0781 52.457 15.8984C52.8607 16.7057 53.4076 17.194 54.0977 17.3633C53.7461 18.1966 53.1602 18.6133 52.3398 18.6133C51.5326 18.6133 50.7839 18.3464 50.0938 17.8125C50.1589 17.8776 50.0156 18.1966 49.6641 18.7695C49.5078 19.0299 49.319 19.2904 49.0977 19.5508C48.8763 19.8112 48.5898 20.0326 48.2383 20.2148C47.8867 20.3971 47.5286 20.4883 47.1641 20.4883C46.7995 20.4883 46.5391 20.3906 46.3828 20.1953C47.0599 19.5182 47.3984 18.8802 47.3984 18.2812C47.3984 18.0599 47.3073 17.5911 47.125 16.875C46.9427 16.1458 46.8516 15.6055 46.8516 15.2539C46.8516 13.6654 47.457 12.3828 48.668 11.4062C49.2018 10.9635 49.944 10.5143 50.8945 10.0586C51.8451 9.60286 52.9388 9.375 54.1758 9.375C59.3711 9.375 61.9688 12.2135 61.9688 17.8906C61.9688 19.2578 62.2292 20.4818 62.75 21.5625C62.9974 22.0573 63.5443 22.5521 64.3906 23.0469C64.3906 23.099 64.3125 23.1771 64.1562 23.2812C64.013 23.3854 63.8307 23.5547 63.6094 23.7891C63.388 24.0104 63.1667 24.2969 62.9453 24.6484C62.724 25 62.5352 25.5078 62.3789 26.1719C62.2357 26.8359 62.1641 27.8125 62.1641 29.1016C62.1641 30.3906 62.3333 31.5234 62.6719 32.5C63.0104 33.4635 63.5052 34.2904 64.1562 34.9805C64.0391 35.2018 63.7917 35.4167 63.4141 35.625C63.2318 35.7161 62.9714 35.7943 62.6328 35.8594C62.3073 35.9375 61.9232 35.9766 61.4805 35.9766C61.0508 35.9766 60.6146 35.8659 60.1719 35.6445C59.0651 35.0977 58.1927 34.1862 57.5547 32.9102ZM51.5586 28.8672C51.5586 31.7969 52.1771 33.2617 53.4141 33.2617C53.9349 33.2617 54.3255 33.1641 54.5859 32.9688C54.7422 32.8646 54.8789 32.7604 54.9961 32.6562C55.1133 32.5521 55.2109 32.3893 55.2891 32.168C55.3802 31.9466 55.4909 31.6667 55.6211 31.3281C55.7643 30.9896 55.8359 29.8893 55.8359 28.0273C55.8359 28.0273 55.8359 26.901 55.8359 24.6484C55.8359 22.6562 55.8424 21.6602 55.8555 21.6602C55.5169 22.0117 54.9766 22.4674 54.2344 23.0273C53.4922 23.5872 52.8997 24.1536 52.457 24.7266C51.8581 25.4948 51.5586 26.7318 51.5586 28.4375V28.8672ZM74.1953 35.9961C72.9453 35.9961 71.9753 35.5599 71.2852 34.6875C70.9206 35.2344 70.3021 35.625 69.4297 35.8594C69.0911 35.9505 68.7461 35.9961 68.3945 35.9961C68.043 35.9961 67.7435 35.957 67.4961 35.8789C67.2487 35.8138 67.0599 35.7292 66.9297 35.625C66.6823 35.4167 66.5391 35.1888 66.5 34.9414C67.4375 34.4336 68.0104 33.8542 68.2188 33.2031C68.4531 32.5 68.5768 31.7578 68.5898 30.9766C68.6159 30.1823 68.6289 29.3685 68.6289 28.5352C68.6289 27.7018 68.5638 26.9336 68.4336 26.2305C68.3034 25.5143 68.1406 24.9805 67.9453 24.6289C67.763 24.2773 67.5742 23.9974 67.3789 23.7891C67.1836 23.5807 67.0208 23.431 66.8906 23.3398C66.7604 23.2357 66.6953 23.125 66.6953 23.0078C66.6953 22.8776 66.7604 22.7409 66.8906 22.5977C67.0208 22.4414 67.1836 22.2135 67.3789 21.9141C67.5742 21.6146 67.763 21.1849 67.9453 20.625C68.401 19.3099 68.6289 17.1289 68.6289 14.082C68.6289 11.0352 68.4727 8.76953 68.1602 7.28516C67.8477 5.78776 67.2878 4.45312 66.4805 3.28125C66.4805 2.86458 66.8125 2.55208 67.4766 2.34375C67.724 2.26562 68.0169 2.22656 68.3555 2.22656C69.6966 2.22656 70.6797 2.72786 71.3047 3.73047C71.7083 3.13151 72.3464 2.68229 73.2188 2.38281C73.5443 2.27865 73.8763 2.22656 74.2148 2.22656C74.5534 2.22656 74.8464 2.26562 75.0938 2.34375C75.3411 2.40885 75.5234 2.49349 75.6406 2.59766C75.901 2.80599 76.0508 3.03385 76.0898 3.28125C75.2826 4.45312 74.7227 5.78776 74.4102 7.28516C74.0977 8.76953 73.9414 10.6055 73.9414 12.793C73.9414 14.9805 74.0065 16.6992 74.1367 17.9492C74.2669 19.1862 74.4297 20.0846 74.625 20.6445C74.8203 21.1914 75.0091 21.6146 75.1914 21.9141C75.3867 22.2135 75.5495 22.4414 75.6797 22.5977C75.8099 22.7409 75.875 22.8776 75.875 23.0078C75.875 23.125 75.8099 23.2357 75.6797 23.3398C75.5495 23.431 75.3867 23.5807 75.1914 23.7891C75.0091 23.9974 74.8203 24.2773 74.625 24.6289C74.1693 25.4492 73.9414 26.8164 73.9414 28.7305C73.9414 30.8138 73.9805 32.0052 74.0586 32.3047C74.1497 32.6042 74.2409 32.9036 74.332 33.2031C74.4362 33.4896 74.5664 33.7109 74.7227 33.8672C75.1654 34.3359 75.6146 34.694 76.0703 34.9414C76.0703 35.3581 75.7448 35.6706 75.0938 35.8789C74.8333 35.957 74.5339 35.9961 74.1953 35.9961ZM78.9219 29.7656L79.1367 27.4609C79.1367 26.6406 78.8633 25.9245 78.3164 25.3125C78.5117 25.1302 78.7331 25.0391 78.9805 25.0391C79.2279 25.0391 79.4818 25.0781 79.7422 25.1562C80.0156 25.2214 80.3086 25.3711 80.6211 25.6055C80.9336 25.8398 81.181 26.0807 81.3633 26.3281C81.5456 26.5755 81.6953 26.8294 81.8125 27.0898C82.0339 27.5456 82.1445 27.8516 82.1445 28.0078C82.9128 27.3958 83.5703 27.0898 84.1172 27.0898C84.6771 27.0898 85.0872 27.1419 85.3477 27.2461C85.6081 27.3503 85.7904 27.487 85.8945 27.6562C86.0768 27.9297 86.168 28.151 86.168 28.3203V28.3789C85.6081 28.4961 85.1263 28.7435 84.7227 29.1211C84.319 29.4857 84.1172 30.0195 84.1172 30.7227C84.1172 31.4128 84.3646 31.9531 84.8594 32.3438C85.3672 32.7214 85.9531 32.9102 86.6172 32.9102C87.2812 32.9102 87.8151 32.819 88.2188 32.6367C88.6354 32.4414 88.9479 32.194 89.1562 31.8945C89.5599 31.3086 89.7617 30.7357 89.7617 30.1758C89.7617 28.7826 89.3841 27.6758 88.6289 26.8555C87.8867 26.0221 87.0273 25.6055 86.0508 25.6055C85.7122 25.6055 85.3281 25.6576 84.8984 25.7617C84.4688 25.8659 84.2279 25.918 84.1758 25.918C84.1367 25.918 84.0716 25.8984 83.9805 25.8594C83.9023 25.8073 83.8177 25.638 83.7266 25.3516C83.4401 24.4401 82.9518 23.7044 82.2617 23.1445C80.0612 21.582 78.9609 19.5638 78.9609 17.0898C78.9609 14.6029 79.6966 12.7018 81.168 11.3867C82.6523 10.0586 84.6576 9.39453 87.1836 9.39453C88.4596 9.39453 89.5794 9.60286 90.543 10.0195C91.5065 10.4232 92.2617 10.8464 92.8086 11.2891C94.0586 12.3047 94.6836 13.6914 94.6836 15.4492L94.2344 17.9688C94.2344 18.6719 94.5143 19.3099 95.0742 19.8828C94.8919 20.0521 94.6185 20.1367 94.2539 20.1367C93.8893 20.1367 93.5378 20.0456 93.1992 19.8633C92.8607 19.668 92.5807 19.4401 92.3594 19.1797C92.138 18.9193 91.9427 18.6458 91.7734 18.3594C91.4609 17.8516 91.3047 17.5195 91.3047 17.3633C90.4844 17.9102 89.8203 18.1836 89.3125 18.1836C88.8047 18.1836 88.4271 18.138 88.1797 18.0469C87.9453 17.9427 87.776 17.8125 87.6719 17.6562C87.5156 17.3958 87.4375 17.1615 87.4375 16.9531C88.1797 16.862 88.7982 16.6341 89.293 16.2695C89.8008 15.9049 90.0547 15.4102 90.0547 14.7852C90.0547 14.1602 89.8138 13.6979 89.332 13.3984C88.8633 13.099 88.2708 12.9492 87.5547 12.9492C85.8229 12.9492 84.957 13.9323 84.957 15.8984C84.957 17.8646 85.6927 19.1732 87.1641 19.8242C87.3073 19.8893 87.5221 19.9219 87.8086 19.9219C88.1081 19.9219 88.5378 19.8698 89.0977 19.7656C89.6576 19.6615 89.9766 19.6094 90.0547 19.6094C90.1458 19.6094 90.237 19.7656 90.3281 20.0781C90.6667 21.0938 91.1159 21.7643 91.6758 22.0898C92.8997 22.9883 93.8307 24.0495 94.4688 25.2734C95.1198 26.4974 95.4453 27.6758 95.4453 28.8086C95.4453 29.9284 95.2565 30.9245 94.8789 31.7969C94.5143 32.6693 93.974 33.4505 93.2578 34.1406C91.7214 35.625 89.5208 36.3672 86.6562 36.3672C84.9115 36.3672 83.2188 35.8073 81.5781 34.6875C80.8099 34.1667 80.1719 33.4766 79.6641 32.6172C79.1693 31.7448 78.9219 30.7943 78.9219 29.7656ZM111.91 33.9258C111.845 34.056 111.682 34.2708 111.422 34.5703C111.174 34.8568 110.934 35.0911 110.699 35.2734C110.061 35.7422 109.417 35.9766 108.766 35.9766C108.128 35.9766 107.639 35.8789 107.301 35.6836C106.962 35.4883 106.767 35.293 106.715 35.0977L106.637 34.8047C107.496 34.0234 108.102 33.0534 108.453 31.8945C108.818 30.7357 109 29.401 109 27.8906C109 26.3672 108.928 25.1497 108.785 24.2383C108.642 23.3268 108.466 22.6497 108.258 22.207C108.049 21.7643 107.835 21.4128 107.613 21.1523C107.405 20.8919 107.229 20.7031 107.086 20.5859C106.943 20.4557 106.871 20.332 106.871 20.2148C106.871 20.0846 106.943 19.9544 107.086 19.8242C107.229 19.681 107.405 19.4792 107.613 19.2188C107.835 18.9583 108.049 18.5938 108.258 18.125C108.753 17.0312 109 15.3581 109 13.1055C109 10.8398 108.824 9.23828 108.473 8.30078C108.134 7.36328 107.522 6.47786 106.637 5.64453C106.637 5.17578 106.995 4.83073 107.711 4.60938C107.997 4.53125 108.342 4.49219 108.746 4.49219C109.163 4.49219 109.586 4.5638 110.016 4.70703C110.445 4.83724 110.81 5 111.109 5.19531C111.708 5.58594 112.19 6.0026 112.555 6.44531C112.62 6.26302 112.783 6.04818 113.043 5.80078C113.303 5.55339 113.596 5.34505 113.922 5.17578C114.807 4.72005 115.803 4.49219 116.91 4.49219C118.017 4.49219 118.844 4.51172 119.391 4.55078C119.951 4.58984 120.504 4.66146 121.051 4.76562C121.598 4.85677 122.092 4.98698 122.535 5.15625C122.978 5.3125 123.395 5.52083 123.785 5.78125C124.176 6.04167 124.508 6.34115 124.781 6.67969C125.367 7.40885 125.706 8.1901 125.797 9.02344C125.901 9.85677 126.038 10.4818 126.207 10.8984C126.376 11.3021 126.539 11.5951 126.695 11.7773C127.125 12.2461 127.34 12.5195 127.34 12.5977C127.34 12.6628 127.275 12.7734 127.145 12.9297C127.014 13.0859 126.865 13.2812 126.695 13.5156C126.266 14.1276 125.999 14.9414 125.895 15.957C125.803 16.9727 125.478 17.8125 124.918 18.4766C124.358 19.1406 123.655 19.5117 122.809 19.5898C124.345 20.0977 125.354 21.1849 125.836 22.8516C126.096 23.8021 126.311 25.1237 126.48 26.8164C126.65 28.5091 126.812 29.7656 126.969 30.5859C127.32 32.4219 128.128 33.7435 129.391 34.5508C128.271 35.6836 126.806 36.25 124.996 36.25C123.993 36.25 123.154 35.9766 122.477 35.4297C121.799 34.8828 121.305 34.1732 120.992 33.3008C120.693 32.4284 120.458 31.4714 120.289 30.4297C120.133 29.375 120.016 28.3203 119.938 27.2656C119.872 26.2109 119.781 25.2474 119.664 24.375C119.378 22.4089 118.714 21.4258 117.672 21.4258H115.055V27.4805C115.055 29.3945 115.211 30.8724 115.523 31.9141C115.836 32.9427 116.402 33.9062 117.223 34.8047C117.223 35.2865 116.865 35.638 116.148 35.8594C115.862 35.9375 115.53 35.9766 115.152 35.9766C114.788 35.9766 114.423 35.9049 114.059 35.7617C113.694 35.6185 113.388 35.4492 113.141 35.2539C112.62 34.8503 112.21 34.4076 111.91 33.9258ZM119.547 9.57031C119.547 9.23177 119.358 8.91927 118.98 8.63281C118.603 8.34635 118.134 8.20312 117.574 8.20312C117.027 8.20312 116.467 8.30729 115.895 8.51562C115.335 8.72396 115.055 8.94531 115.055 9.17969V18.3789C116.591 18.3789 117.724 18.2096 118.453 17.8711C119.182 17.5195 119.547 16.9596 119.547 16.1914V9.57031ZM132.184 9.41406C133.316 9.41406 134.293 9.91536 135.113 10.918C135.517 10.319 136.161 9.86979 137.047 9.57031C137.372 9.46615 137.704 9.41406 138.043 9.41406C138.382 9.41406 138.674 9.45312 138.922 9.53125C139.169 9.59635 139.352 9.68099 139.469 9.78516C139.729 9.99349 139.879 10.2214 139.918 10.4688C139.098 11.263 138.531 12.0964 138.219 12.9688C137.919 13.8411 137.77 14.987 137.77 16.4062C137.77 17.8255 137.835 18.9453 137.965 19.7656C138.095 20.5729 138.258 21.1589 138.453 21.5234C138.648 21.875 138.837 22.1419 139.02 22.3242C139.215 22.5065 139.378 22.6497 139.508 22.7539C139.638 22.8451 139.703 22.9427 139.703 23.0469C139.703 23.138 139.638 23.2357 139.508 23.3398C139.378 23.431 139.215 23.5807 139.02 23.7891C138.837 23.9974 138.648 24.2773 138.453 24.6289C137.997 25.4492 137.77 26.7448 137.77 28.5156C137.77 30.2865 137.926 31.6211 138.238 32.5195C138.551 33.4049 139.111 34.2122 139.918 34.9414C139.918 35.3581 139.586 35.6706 138.922 35.8789C138.674 35.957 138.329 35.9961 137.887 35.9961C137.444 35.9961 136.975 35.8659 136.48 35.6055C135.999 35.3581 135.654 35.1107 135.445 34.8633L135.113 34.4922C134.71 35.0911 134.065 35.5339 133.18 35.8203C132.854 35.9375 132.477 35.9961 132.047 35.9961C131.617 35.9961 131.246 35.9049 130.934 35.7227C130.621 35.5534 130.439 35.3776 130.387 35.1953L130.309 34.9414C131.116 34.2122 131.676 33.4049 131.988 32.5195C132.301 31.6211 132.457 30.5339 132.457 29.2578C132.457 27.9818 132.392 26.9792 132.262 26.25C132.132 25.5208 131.969 24.9805 131.773 24.6289C131.591 24.2773 131.402 23.9974 131.207 23.7891C131.012 23.5807 130.849 23.431 130.719 23.3398C130.589 23.2357 130.523 23.138 130.523 23.0469C130.523 22.9427 130.589 22.8451 130.719 22.7539C130.849 22.6497 131.012 22.5065 131.207 22.3242C131.402 22.1419 131.591 21.875 131.773 21.5234C132.229 20.6641 132.457 19.2448 132.457 17.2656C132.457 15.2865 132.301 13.8607 131.988 12.9883C131.689 12.1159 131.129 11.276 130.309 10.4688C130.309 10.0521 130.641 9.73958 131.305 9.53125C131.552 9.45312 131.845 9.41406 132.184 9.41406ZM135.074 0.742188L139.176 4.33594L135.055 8.04688L134.02 7.14844C133.329 6.5625 132.646 5.97005 131.969 5.37109L130.934 4.47266C130.934 4.39453 131.591 3.75651 132.906 2.55859C134.234 1.34766 134.957 0.742188 135.074 0.742188ZM154.84 29.3164V28.0469C154.84 26.6146 154.697 25.6055 154.41 25.0195C154.137 24.4206 153.922 24.0104 153.766 23.7891C153.609 23.5677 153.473 23.4049 153.355 23.3008C153.238 23.1836 153.18 23.099 153.18 23.0469C153.18 22.9818 153.264 22.8711 153.434 22.7148C153.616 22.5456 153.811 22.3307 154.02 22.0703C154.228 21.8099 154.417 21.2956 154.586 20.5273C154.768 19.7461 154.859 18.7826 154.859 17.6367C154.859 14.2513 154.013 12.5586 152.32 12.5586C150.641 12.5586 149.801 14.2513 149.801 17.6367C149.801 20.2539 150.309 21.9792 151.324 22.8125C151.441 22.9167 151.493 22.9948 151.48 23.0469C151.48 23.0859 151.389 23.1836 151.207 23.3398C151.038 23.4831 150.888 23.6523 150.758 23.8477C150.628 24.043 150.484 24.3099 150.328 24.6484C149.977 25.3906 149.801 26.3151 149.801 27.4219C149.801 28.5156 149.801 29.2253 149.801 29.5508C149.814 29.8763 149.833 30.2799 149.859 30.7617C149.898 31.2305 149.944 31.582 149.996 31.8164C150.061 32.0378 150.152 32.2917 150.27 32.5781C150.4 32.8646 150.556 33.0729 150.738 33.2031C151.194 33.5026 151.637 33.6523 152.066 33.6523C152.496 33.6523 152.809 33.6393 153.004 33.6133C153.212 33.5742 153.395 33.5156 153.551 33.4375C153.72 33.3464 153.863 33.2617 153.98 33.1836C154.098 33.1055 154.202 32.9753 154.293 32.793C154.384 32.5977 154.462 32.4414 154.527 32.3242C154.592 32.194 154.645 31.9922 154.684 31.7188C154.723 31.4323 154.755 31.2044 154.781 31.0352C154.82 30.6445 154.84 30.0716 154.84 29.3164ZM156.969 33.6523C155.654 35.4622 153.831 36.3672 151.5 36.3672C149.547 36.3672 147.815 35.6641 146.305 34.2578C145.576 33.5807 144.99 32.7279 144.547 31.6992C144.104 30.6576 143.883 29.6615 143.883 28.7109C143.883 27.7604 143.844 27.0117 143.766 26.4648C143.688 25.9049 143.59 25.4622 143.473 25.1367C143.368 24.8112 143.232 24.5117 143.062 24.2383C142.893 23.9648 142.75 23.776 142.633 23.6719C142.516 23.5547 142.372 23.431 142.203 23.3008C142.047 23.1706 141.956 23.0924 141.93 23.0664C141.93 23.0143 141.995 22.9362 142.125 22.832C142.268 22.7279 142.431 22.5716 142.613 22.3633C142.809 22.1549 142.997 21.8815 143.18 21.543C143.648 20.7096 143.883 19.4076 143.883 17.6367C143.883 15.0195 144.488 12.9948 145.699 11.5625C146.923 10.1172 148.486 9.39453 150.387 9.39453C152.288 9.39453 153.753 10.0846 154.781 11.4648C154.521 8.36589 153.792 5.67057 152.594 3.37891C152.594 2.92318 152.958 2.57812 153.688 2.34375C153.961 2.26562 154.286 2.22656 154.664 2.22656C155.94 2.22656 157.014 2.91016 157.887 4.27734C157.952 4.14714 158.108 3.9388 158.355 3.65234C158.616 3.35286 158.863 3.11198 159.098 2.92969C159.736 2.46094 160.374 2.22656 161.012 2.22656C161.663 2.22656 162.158 2.32422 162.496 2.51953C162.835 2.71484 163.03 2.90365 163.082 3.08594L163.16 3.37891C162.275 4.51172 161.656 5.74219 161.305 7.07031C160.966 8.38542 160.797 10.2539 160.797 12.6758V17.6367C160.797 20.306 161.448 22.0378 162.75 22.832C162.906 22.9232 162.984 22.9948 162.984 23.0469C162.984 23.099 162.913 23.1706 162.77 23.2617C162.626 23.3529 162.451 23.4961 162.242 23.6914C162.034 23.8867 161.826 24.1406 161.617 24.4531C161.122 25.2214 160.849 26.3932 160.797 27.9688C160.81 29.7266 160.986 31.1003 161.324 32.0898C161.676 33.0794 162.288 33.9909 163.16 34.8242C163.16 35.293 162.796 35.638 162.066 35.8594C161.793 35.9505 161.474 35.9961 161.109 35.9961C159.612 35.9961 158.232 35.2148 156.969 33.6523ZM180.719 27.168C180.719 26.9336 180.836 26.7513 181.07 26.6211C181.318 26.4909 181.637 26.4258 182.027 26.4258C182.431 26.4258 182.796 26.4974 183.121 26.6406C183.46 26.7839 183.629 26.9792 183.629 27.2266C183.629 31.4323 182.398 34.2057 179.938 35.5469C179.13 35.9896 178.382 36.237 177.691 36.2891C177.014 36.3411 176.48 36.3672 176.09 36.3672C173.642 36.3672 171.676 35.6185 170.191 34.1211C168.707 32.6107 167.828 30.332 167.555 27.2852C167.398 25.3841 166.721 24.056 165.523 23.3008C165.289 23.1576 165.159 23.0729 165.133 23.0469C165.133 23.0078 165.217 22.9492 165.387 22.8711C165.556 22.7799 165.758 22.6497 165.992 22.4805C166.227 22.2982 166.461 22.0638 166.695 21.7773C167.268 21.0742 167.555 20.0391 167.555 18.6719C167.555 12.474 170.27 9.375 175.699 9.375C178.277 9.375 180.23 10.2083 181.559 11.875C182.704 13.3073 183.277 15.3841 183.277 18.1055C183.277 19.7982 183.329 20.8659 183.434 21.3086C183.551 21.7513 183.701 22.1289 183.883 22.4414C184.078 22.7539 184.202 22.9622 184.254 23.0664C183.746 23.6523 183.193 23.9453 182.594 23.9453C182.385 23.9453 182.19 23.9062 182.008 23.8281C180.966 23.2812 179.566 23.0078 177.809 23.0078C176.051 23.0078 174.84 23.1315 174.176 23.3789C173.642 24.069 173.375 25.319 173.375 27.1289C173.375 28.9388 173.701 30.3451 174.352 31.3477C175.016 32.3372 175.973 32.832 177.223 32.832C178.473 32.832 179.365 32.3633 179.898 31.4258C180.445 30.4883 180.719 29.069 180.719 27.168ZM177.906 19.7461L177.945 17.2461C177.945 14.3555 177.301 12.9102 176.012 12.9102C175.126 12.9102 174.475 13.151 174.059 13.6328C173.746 13.9974 173.577 14.5312 173.551 15.2344C173.525 15.9245 173.512 16.8945 173.512 18.1445C173.512 19.3815 173.648 20.3385 173.922 21.0156C174.951 20.9766 175.868 20.8398 176.676 20.6055C177.496 20.3581 177.906 20.0716 177.906 19.7461ZM202.555 20.3516L202.027 20.5273C200.96 20.5273 200.191 19.9609 199.723 18.8281C199.527 18.3724 199.43 18.0469 199.43 17.8516V17.832C198.935 18.1055 198.46 18.2422 198.004 18.2422C197.561 18.2422 197.197 18.1836 196.91 18.0664C196.637 17.9492 196.435 17.8125 196.305 17.6562C196.031 17.3047 195.862 16.9401 195.797 16.5625C195.862 16.5755 195.966 16.582 196.109 16.582C196.852 16.582 197.464 16.3021 197.945 15.7422C198.44 15.1823 198.688 14.668 198.688 14.1992C198.688 13.7174 198.635 13.3464 198.531 13.0859C198.44 12.8255 198.31 12.6042 198.141 12.4219C197.789 12.0312 197.418 11.8359 197.027 11.8359C196.637 11.8359 196.305 11.9271 196.031 12.1094C195.758 12.2917 195.497 12.5651 195.25 12.9297C194.729 13.75 194.469 15.0326 194.469 16.7773C194.469 18.1576 194.625 19.2708 194.938 20.1172C195.263 20.9505 195.53 21.5625 195.738 21.9531C196.142 22.7344 196.422 23.125 196.578 23.125L196.188 23.4766C195.94 23.7109 195.706 23.9779 195.484 24.2773C195.263 24.5638 195.048 25.0716 194.84 25.8008C194.645 26.5169 194.547 27.5391 194.547 28.8672C194.547 30.1953 194.723 31.3281 195.074 32.2656C195.426 33.2031 196.064 34.0951 196.988 34.9414C196.897 35.2018 196.669 35.4427 196.305 35.6641C195.953 35.8854 195.556 35.9961 195.113 35.9961C193.811 35.9961 192.587 35.2995 191.441 33.9062C190.4 35.2995 189.332 35.9961 188.238 35.9961C187.717 35.9961 187.288 35.918 186.949 35.7617C186.507 35.5534 186.233 35.2799 186.129 34.9414C187.04 34.0951 187.678 33.1966 188.043 32.2461C188.408 31.2956 188.59 30.2018 188.59 28.9648C188.59 27.7148 188.538 26.7904 188.434 26.1914C188.342 25.5794 188.199 25.0911 188.004 24.7266C187.822 24.362 187.659 24.0885 187.516 23.9062C187.385 23.7109 187.21 23.5286 186.988 23.3594C186.767 23.1901 186.65 23.099 186.637 23.0859C186.637 23.0469 186.702 22.9818 186.832 22.8906C186.975 22.7865 187.138 22.6302 187.32 22.4219C187.516 22.2135 187.711 21.9401 187.906 21.6016C188.362 20.7943 188.59 19.5378 188.59 17.832C188.59 16.1263 188.395 14.7656 188.004 13.75C187.613 12.7344 186.91 11.7643 185.895 10.8398C186.233 10.1628 187.06 9.82422 188.375 9.82422C189.703 9.82422 190.96 10.8268 192.145 12.832C193.876 10.5534 195.862 9.41406 198.102 9.41406C200.81 9.41406 202.47 10.4167 203.082 12.4219C203.251 12.9688 203.336 13.5742 203.336 14.2383C203.336 15.6966 202.861 17.1875 201.91 18.7109C201.871 18.7891 201.852 18.8737 201.852 18.9648C201.852 19.056 201.865 19.1406 201.891 19.2188C201.917 19.2969 201.956 19.388 202.008 19.4922C202.06 19.5833 202.105 19.668 202.145 19.7461C202.197 19.8112 202.268 19.9154 202.359 20.0586C202.451 20.1888 202.516 20.2865 202.555 20.3516ZM204.508 29.7656L204.723 27.4609C204.723 26.6406 204.449 25.9245 203.902 25.3125C204.098 25.1302 204.319 25.0391 204.566 25.0391C204.814 25.0391 205.068 25.0781 205.328 25.1562C205.602 25.2214 205.895 25.3711 206.207 25.6055C206.52 25.8398 206.767 26.0807 206.949 26.3281C207.132 26.5755 207.281 26.8294 207.398 27.0898C207.62 27.5456 207.73 27.8516 207.73 28.0078C208.499 27.3958 209.156 27.0898 209.703 27.0898C210.263 27.0898 210.673 27.1419 210.934 27.2461C211.194 27.3503 211.376 27.487 211.48 27.6562C211.663 27.9297 211.754 28.151 211.754 28.3203V28.3789C211.194 28.4961 210.712 28.7435 210.309 29.1211C209.905 29.4857 209.703 30.0195 209.703 30.7227C209.703 31.4128 209.951 31.9531 210.445 32.3438C210.953 32.7214 211.539 32.9102 212.203 32.9102C212.867 32.9102 213.401 32.819 213.805 32.6367C214.221 32.4414 214.534 32.194 214.742 31.8945C215.146 31.3086 215.348 30.7357 215.348 30.1758C215.348 28.7826 214.97 27.6758 214.215 26.8555C213.473 26.0221 212.613 25.6055 211.637 25.6055C211.298 25.6055 210.914 25.6576 210.484 25.7617C210.055 25.8659 209.814 25.918 209.762 25.918C209.723 25.918 209.658 25.8984 209.566 25.8594C209.488 25.8073 209.404 25.638 209.312 25.3516C209.026 24.4401 208.538 23.7044 207.848 23.1445C205.647 21.582 204.547 19.5638 204.547 17.0898C204.547 14.6029 205.283 12.7018 206.754 11.3867C208.238 10.0586 210.243 9.39453 212.77 9.39453C214.046 9.39453 215.165 9.60286 216.129 10.0195C217.092 10.4232 217.848 10.8464 218.395 11.2891C219.645 12.3047 220.27 13.6914 220.27 15.4492L219.82 17.9688C219.82 18.6719 220.1 19.3099 220.66 19.8828C220.478 20.0521 220.204 20.1367 219.84 20.1367C219.475 20.1367 219.124 20.0456 218.785 19.8633C218.447 19.668 218.167 19.4401 217.945 19.1797C217.724 18.9193 217.529 18.6458 217.359 18.3594C217.047 17.8516 216.891 17.5195 216.891 17.3633C216.07 17.9102 215.406 18.1836 214.898 18.1836C214.391 18.1836 214.013 18.138 213.766 18.0469C213.531 17.9427 213.362 17.8125 213.258 17.6562C213.102 17.3958 213.023 17.1615 213.023 16.9531C213.766 16.862 214.384 16.6341 214.879 16.2695C215.387 15.9049 215.641 15.4102 215.641 14.7852C215.641 14.1602 215.4 13.6979 214.918 13.3984C214.449 13.099 213.857 12.9492 213.141 12.9492C211.409 12.9492 210.543 13.9323 210.543 15.8984C210.543 17.8646 211.279 19.1732 212.75 19.8242C212.893 19.8893 213.108 19.9219 213.395 19.9219C213.694 19.9219 214.124 19.8698 214.684 19.7656C215.243 19.6615 215.562 19.6094 215.641 19.6094C215.732 19.6094 215.823 19.7656 215.914 20.0781C216.253 21.0938 216.702 21.7643 217.262 22.0898C218.486 22.9883 219.417 24.0495 220.055 25.2734C220.706 26.4974 221.031 27.6758 221.031 28.8086C221.031 29.9284 220.842 30.9245 220.465 31.7969C220.1 32.6693 219.56 33.4505 218.844 34.1406C217.307 35.625 215.107 36.3672 212.242 36.3672C210.497 36.3672 208.805 35.8073 207.164 34.6875C206.396 34.1667 205.758 33.4766 205.25 32.6172C204.755 31.7448 204.508 30.7943 204.508 29.7656Z" fill="white"/>
</svg>
