<svg width="24" height="9" viewBox="0 0 24 9" fill="none" xmlns="http://www.w3.org/2000/svg">
<path d="M2.97305 6.92014C2.66851 6.92014 2.5163 6.78761 2.51641 6.52255V4.95547V3.05437V2.41039L2.44371 2.35107H1.84183C1.61731 2.32767 1.39214 2.38684 1.19841 2.52018C1.13012 2.59557 1.07774 2.68815 1.04535 2.79072C1.01296 2.89329 1.00142 3.00312 1.01163 3.11169V3.24348H1.0185V4.81167H1.01163V6.75119C1.01163 7.50706 1.43712 7.88495 2.28809 7.88483C2.7035 7.88483 3.16015 7.85661 3.65801 7.80017C3.69134 7.69172 3.70547 7.57661 3.69955 7.46171C3.69274 7.2729 3.65025 7.08811 3.57509 6.92032L2.97305 6.92014Z" fill="white"/>
<path d="M0.450486 2.94367H2.37452V2.93554L2.73273 2.94367H3.62285C3.70058 2.47191 3.70199 1.98756 3.627 1.51521H0.0520035C0.013553 1.74576 -0.00454168 1.98024 -0.00200117 2.21502C-0.00551387 2.46653 0.0153878 2.7177 0.0603116 2.96382L0.450486 2.95698V2.94367Z" fill="white"/>
<path d="M8.71494 4.31167V6.52347C8.69496 6.89517 8.77863 7.2645 8.95365 7.57707C8.69085 7.80134 8.37219 7.92076 8.04564 7.91735C7.71 7.91735 7.47998 7.83584 7.35557 7.67281C7.21714 7.45922 7.15074 7.1946 7.16879 6.92846V4.61001C7.18186 4.4128 7.14588 4.21538 7.06509 4.04107C7.02049 3.978 6.96292 3.92889 6.89765 3.89824C6.83239 3.86759 6.76151 3.85637 6.69153 3.86564C6.37794 3.87624 6.0787 4.02009 5.85095 4.2697V7.83215C5.60559 7.87742 5.35739 7.89875 5.10895 7.89592C4.85019 7.89774 4.5917 7.87642 4.33578 7.83215V0.0799222L4.40849 0.00598145H5.01036C5.31469 0.00598145 5.53092 0.0786381 5.65906 0.223923C5.7872 0.369208 5.85111 0.615662 5.85079 0.963286V3.04755C6.25096 2.67245 6.7462 2.45908 7.26098 2.43998C7.46254 2.42513 7.66438 2.46335 7.85132 2.55178C8.03827 2.64021 8.20544 2.77654 8.34027 2.9505C8.60314 3.337 8.73622 3.8205 8.71494 4.31167Z" fill="white"/>
<path d="M13.7704 5.69389H11.0203C11.0243 5.98279 11.112 6.26178 11.2694 6.48612C11.4147 6.67404 11.6707 6.76801 12.0373 6.76801C12.4866 6.74808 12.9293 6.63644 13.3449 6.43824C13.5765 6.68779 13.7268 7.02198 13.7704 7.38463C13.1557 7.80547 12.4503 8.01566 11.7363 7.99073C11.3567 8.00118 10.9791 7.92342 10.6259 7.76207C10.3406 7.63303 10.0924 7.41379 9.90973 7.12936C9.58679 6.53534 9.42754 5.84178 9.4531 5.14066C9.42756 4.41951 9.6305 3.71241 10.0238 3.15215C10.4042 2.6346 10.9542 2.37581 11.674 2.37581C12.3937 2.37581 12.9455 2.58673 13.3293 3.00854C13.5188 3.21648 13.668 3.46853 13.7672 3.74808C13.8663 4.02763 13.9131 4.32832 13.9045 4.63031C13.9058 4.99058 13.8606 5.34907 13.7704 5.69389V5.69389ZM12.2968 3.7745C12.2317 3.68165 12.1482 3.60846 12.0533 3.56123C11.9584 3.514 11.855 3.49414 11.752 3.50336C11.6501 3.4936 11.5477 3.51271 11.4537 3.55902C11.3596 3.60533 11.2768 3.67746 11.2122 3.76915C11.0791 4.01833 11.009 4.30562 11.0098 4.59852H12.4729V4.47099C12.4822 4.22277 12.4204 3.97792 12.2971 3.7745H12.2968Z" fill="white"/>
<path d="M23.8622 5.69389H21.1121C21.1161 5.98279 21.2039 6.26177 21.3612 6.48612C21.5065 6.67404 21.7626 6.76801 22.1293 6.76801C22.5786 6.74809 23.0212 6.63644 23.4369 6.43824C23.6685 6.68777 23.8188 7.02197 23.8624 7.38463C23.2477 7.80543 22.5423 8.01563 21.8284 7.99073C21.4488 8.00118 21.0712 7.92341 20.718 7.76207C20.4327 7.63302 20.1846 7.41377 20.0019 7.12936C19.6789 6.53534 19.5197 5.84178 19.5452 5.14066C19.5197 4.41949 19.7227 3.71238 20.1161 3.15215C20.4965 2.6346 21.0465 2.37581 21.7661 2.37581C22.4857 2.37581 23.0375 2.58673 23.4214 3.00854C23.6109 3.21648 23.7601 3.46853 23.8593 3.74808C23.9584 4.02763 24.0052 4.32832 23.9966 4.63031C23.9978 4.9906 23.9525 5.34909 23.8622 5.69389V5.69389ZM22.3886 3.7745C22.3236 3.68163 22.24 3.60844 22.1451 3.56121C22.0502 3.51397 21.9468 3.49412 21.8438 3.50336C21.7419 3.4936 21.6395 3.51271 21.5455 3.55902C21.4514 3.60533 21.3686 3.67746 21.304 3.76915C21.1709 4.01832 21.1008 4.30562 21.1016 4.59852H22.565V4.47099C22.574 4.22262 22.5118 3.97776 22.3881 3.7745H22.3886Z" fill="white"/>
<path d="M19.1935 7.19942C19.0855 6.98934 18.9929 6.76909 18.9168 6.54101L18.6452 5.71532C18.5633 5.4845 18.4381 5.27765 18.2785 5.10974C18.119 4.94183 17.9292 4.81709 17.7228 4.74455C17.9453 4.59079 18.1318 4.37627 18.266 4.11979L19.1448 2.42368L19.0798 2.33442C18.6892 2.31963 18.389 2.31216 18.1791 2.31204C17.9924 2.3021 17.8071 2.35472 17.6456 2.46358C17.484 2.57243 17.3531 2.7329 17.2684 2.92572L16.6499 4.09743C16.6198 4.15959 16.5756 4.21111 16.5222 4.2465C16.4687 4.28189 16.4079 4.29982 16.3463 4.29835H16.1511V3.14069H14.567V7.91347C14.8327 7.9604 15.1012 7.98277 15.3699 7.98037C15.6315 7.98349 15.8928 7.96112 16.1511 7.91347V5.67096L16.5091 5.6597C16.6491 5.65114 16.7877 5.69409 16.9052 5.78243C17.0318 5.91228 17.1271 6.07785 17.182 6.26301L17.5074 7.24488C17.569 7.47013 17.6789 7.67365 17.827 7.83639C17.9808 7.95981 18.1664 8.0188 18.3531 8.00365C18.5557 8.0095 18.757 7.96583 18.944 7.87547C19.131 7.7851 19.2994 7.6501 19.4382 7.47927C19.3399 7.40781 19.2564 7.31228 19.1935 7.19942V7.19942Z" fill="white"/>
<path d="M16.1457 4.32884V3.22535C16.1457 2.8781 16.0788 2.63164 15.945 2.48599C15.8112 2.34033 15.5852 2.2677 15.2669 2.26807H14.6377L14.5618 2.34201V4.32812L16.1457 4.32884Z" fill="white"/>
</svg>
