<svg width="42" height="42" viewBox="0 0 42 42" fill="none" xmlns="http://www.w3.org/2000/svg">
<path d="M22.2083 1.02494C21.9988 1.06206 21.78 1.27801 21.3422 1.87189C21.0984 2.20595 20.9702 2.34767 20.7982 2.4759C20.6981 2.55013 20.5887 2.57375 19.7008 2.71885L19.4725 2.75934L19.2067 3.19125C19.0629 3.42745 18.8534 3.80875 18.7409 4.0382L18.5408 4.45662L18.7252 4.66583C18.966 4.93915 19.0317 4.94589 19.4975 4.73669C20.1541 4.43975 20.7388 4.07532 21.1234 3.71764C21.3141 3.54218 21.5048 3.48144 21.8706 3.48482C22.4709 3.49156 23.115 3.83237 23.9592 4.59159L24.3313 4.92565H24.6314C24.8785 4.92902 24.9629 4.94252 25.1036 5.01001C25.5007 5.19559 25.8915 5.54315 26.0978 5.89745C26.1666 6.01218 26.4042 6.5082 26.6294 7.00085C26.9389 7.67572 27.0952 7.97603 27.2672 8.22236C27.3923 8.40457 27.5048 8.55304 27.5142 8.55304C27.5236 8.55304 27.5267 8.42819 27.5173 8.27297C27.5017 7.93554 27.5548 7.16282 27.6205 6.74778C27.9207 4.87166 28.8024 3.13726 29.9561 2.15196C30.1468 1.98999 30.1843 1.90901 30.1312 1.78416C30.0499 1.5952 29.5809 1.332 29.0994 1.20715C28.8211 1.13629 28.1114 1.12617 27.855 1.19365C27.3891 1.31176 27.0139 1.48385 26.6325 1.75717C26.4011 1.92251 26.3167 1.936 25.9071 1.86852C25.5601 1.81453 25.2411 1.72005 24.4782 1.4501C23.6903 1.17003 23.3745 1.07893 23.0556 1.02831C22.8149 0.991196 22.4053 0.991196 22.2083 1.02494Z" fill="url(#paint0_linear_87_2)"/>
<path d="M31.185 1.47708C30.9536 1.56144 30.8661 1.6323 30.6972 1.86175C30.6066 1.9866 30.2689 2.37802 29.95 2.73233C29.631 3.08326 29.3059 3.4578 29.2277 3.55903C28.9995 3.8526 28.7744 4.24739 28.543 4.75692C28.0458 5.86032 27.8551 6.68703 27.8989 7.5576C27.9239 8.12111 27.9927 8.40455 28.2209 8.92757L28.3616 9.25151L28.5868 9.29537C29.1433 9.39998 29.556 9.6733 30.1219 10.3077C30.888 11.1681 31.3163 11.6169 31.4914 11.7418L31.6727 11.8734L32.2574 11.7148C33.1016 11.4887 33.1735 11.4752 33.6394 11.4752C34.4117 11.4718 34.79 11.6473 35.3747 12.2816C35.6561 12.5853 35.8999 12.9228 36.4534 13.7832C37.2632 15.0418 37.6384 15.4704 38.3168 15.909C38.5607 16.0676 39.1266 16.675 39.3205 16.9888C39.6238 17.4781 39.8458 18.0484 39.9708 18.6456C40.0427 18.9898 40.0709 19.8975 40.0146 20.1708C39.9521 20.4947 39.7801 20.7343 39.3768 21.065C39.186 21.2168 38.9547 21.4125 38.8609 21.4969C38.7671 21.5813 38.5419 21.7534 38.3606 21.8816C37.7603 22.3 37.4914 22.6982 37.4601 23.2144C37.4414 23.5755 37.4633 23.6025 37.7916 23.6025C38.0604 23.6025 38.3387 23.535 38.6389 23.4C39.6894 22.9242 39.8708 22.8129 40.2084 22.435C40.5492 22.0503 40.7806 21.6015 40.9276 21.038C40.9964 20.7782 41.0026 20.6904 40.9995 20.0763C40.9964 19.6815 40.9682 19.0708 40.9276 18.6085C40.8932 18.1732 40.8619 17.6232 40.8619 17.3836V16.9483L40.7181 16.5906C40.2647 15.4704 39.5206 14.4108 38.4075 13.3108C37.9541 12.8587 37.8728 12.7372 37.7415 12.2985C37.6102 11.8632 37.5789 11.6304 37.4508 10.1221C37.4132 9.68342 37.3257 9.15028 37.2506 8.92757C37.1537 8.63063 36.7879 7.99289 35.9218 6.61279C35.0651 5.24619 34.7056 4.45323 34.543 3.56578C34.4867 3.26209 34.4805 3.1305 34.493 2.73233C34.5023 2.4725 34.5305 2.16544 34.5555 2.04734C34.5774 1.92924 34.5899 1.82801 34.5774 1.82126C34.5461 1.80101 34.0052 1.66942 33.7207 1.61543C32.9484 1.46358 31.4445 1.3826 31.185 1.47708Z" fill="url(#paint1_linear_87_2)"/>
<path d="M10.6898 2.29704C9.36097 2.41177 8.47613 2.62435 7.51001 3.05964L7.28176 3.16087V3.43419C7.28176 3.58603 7.27238 3.8796 7.25988 4.08543L7.24112 4.46335L7.45685 4.51397C7.70073 4.57471 7.94773 4.61182 8.57931 4.68943C9.46415 4.79741 9.95816 4.95938 10.2833 5.24957C10.349 5.30693 10.3521 5.31706 10.299 5.30018C10.2052 5.27656 9.60797 5.15509 9.3766 5.1146C8.78254 5.00999 8.62309 4.9965 8.04779 4.9965C7.33179 4.9965 6.97535 5.05386 6.76587 5.20233C6.43445 5.43516 6.28124 5.62074 6.28124 5.78946C6.28124 5.89069 6.44695 6.04591 6.75649 6.23487C6.99724 6.38334 7.51626 6.79163 7.49437 6.81525C7.48812 6.822 7.36618 6.79838 7.21923 6.76464C6.81277 6.67353 6.38442 6.61954 6.23121 6.64654C6.04674 6.67353 5.90292 6.81188 5.78098 7.07508C5.73095 7.1898 5.68718 7.29778 5.68718 7.31803C5.68718 7.33827 5.84664 7.42263 6.04049 7.50361C6.81277 7.83092 7.31303 8.16498 7.61318 8.54965L7.70073 8.66438L7.62569 8.64751C6.81589 8.44505 6.77212 8.4383 6.21871 8.4383C5.59026 8.43492 5.37139 8.48216 4.91803 8.72512C4.67103 8.85334 4.66165 8.86684 4.621 9.01531C4.58973 9.14016 4.58973 9.22789 4.61787 9.44722C4.6679 9.82177 4.66477 9.89263 4.58661 10.1052C4.53033 10.2604 4.51782 10.3583 4.51782 10.6957C4.51782 11.1614 4.55847 11.3402 4.81485 11.9881C5.14315 12.8114 5.17129 12.9025 5.24945 13.4458C5.35263 14.151 5.39953 14.5829 5.43392 15.2004C5.55586 17.3026 5.54336 17.2081 5.76222 17.5692C6.33127 18.514 6.8284 19.8806 7.2036 21.5273C7.23174 21.6555 7.27863 21.8073 7.30365 21.8647C7.49125 22.2662 7.91647 22.931 8.32606 23.4608C8.73877 24.0006 9.90813 24.6856 11.0806 25.0838C11.906 25.3605 12.7565 25.5495 14.2072 25.7823C14.398 25.8093 14.7263 25.8633 14.942 25.897L15.3328 25.9611L15.4172 25.8531C15.5329 25.7114 15.7424 25.2761 15.8206 25.0129C16.0082 24.3752 15.9519 23.7543 15.6517 23.1638C15.583 23.0255 15.3641 22.6239 15.1671 22.2696C14.473 21.0211 14.2604 20.4441 14.2291 19.7591C14.2072 19.1787 14.2792 18.8886 14.6137 18.2373C15.2859 16.9281 15.4298 15.6593 15.1609 13.3108C15.1421 13.1522 15.1077 12.835 15.0827 12.6022C14.9983 11.8396 14.9045 11.4009 14.7044 10.8307C14.3479 9.80827 14.1603 9.05917 14.1603 8.65425C14.1603 8.49904 14.151 8.44842 14.1228 8.46192C14.1009 8.47204 13.8133 8.60027 13.4881 8.74536C12.6189 9.13341 12.225 9.38986 11.9623 9.74753C11.6622 10.1592 11.5684 10.5709 11.5434 11.573C11.5152 12.7338 11.6246 13.4357 12.1593 15.5547C12.5939 17.2756 12.744 18.0551 12.7752 18.7435C12.7878 19.0438 12.7784 19.1787 12.7377 19.3508C12.6908 19.5465 12.5095 19.9751 12.4845 19.9481C12.4782 19.9447 12.4532 19.6512 12.4251 19.3002C12.325 17.9606 12.0999 16.8268 11.6278 15.3017C11.4245 14.6335 10.8868 13.1151 10.7836 12.9059C10.7648 12.8721 10.6992 12.5178 10.6366 12.1231C10.5335 11.4786 10.5209 11.3402 10.5209 10.7801C10.5178 10.2267 10.5272 10.1255 10.5897 9.89263C10.7117 9.44047 10.8711 9.14353 11.1713 8.81622C11.8341 8.09412 12.6596 7.57447 13.6382 7.27079C13.9696 7.16956 13.979 7.16618 14.5887 7.1763C15.1265 7.18643 15.2297 7.17968 15.3735 7.12569C15.4641 7.08857 15.5579 7.02783 15.5798 6.99072C15.6048 6.95023 15.6611 6.77139 15.708 6.59592C15.7518 6.42046 15.8456 6.15051 15.9113 6.00204L16.0363 5.72535L16.2614 5.62412C16.7429 5.41154 17.1463 5.30356 17.6841 5.24282L18.0655 5.20233L17.8591 4.95263C17.2338 4.19678 16.3584 3.60965 14.8013 2.89092C13.7851 2.42189 13.8852 2.45226 13.1129 2.35778C12.7315 2.31054 11.0243 2.26668 10.6898 2.29704Z" fill="url(#paint2_linear_87_2)"/>
<path d="M21.1391 4.36886C20.4951 4.76028 20.1886 4.90538 19.4132 5.17195C17.8656 5.70847 17.5154 5.83669 17.1683 5.98853C16.8306 6.13363 16.7494 6.18762 16.5024 6.4137C16.3491 6.55542 16.2241 6.68702 16.2241 6.70389C16.2241 6.76462 16.3804 7.1358 16.5649 7.50023C16.8713 8.11098 17.0714 8.66437 17.0308 8.78922C17.0276 8.80609 16.8869 8.69811 16.7243 8.54626C16.5618 8.39779 16.3742 8.23583 16.3054 8.19196C16.1209 8.06374 15.8583 7.97938 15.6582 7.97938C15.4799 7.97938 15.4799 7.97938 15.3205 8.16834C15.1079 8.41804 14.9234 8.76222 14.8077 9.1199C14.717 9.39659 14.7108 9.44383 14.7108 9.93648C14.7077 10.6687 14.7765 10.9825 15.2705 12.4672C15.6863 13.7292 15.7395 14.0127 15.7707 15.1329C15.7864 15.7538 15.7801 16.0136 15.7426 16.3308C15.6363 17.2385 15.4581 17.9606 15.0422 19.1821C14.8734 19.6748 14.864 19.722 14.864 20.0088C14.864 20.5251 14.9859 20.8018 15.5737 21.6217C16.1115 22.3708 16.1991 22.5935 16.2585 23.3426C16.3116 24.0614 16.2616 24.4056 15.9145 25.7249C15.5956 26.9262 15.5862 26.9835 15.5862 27.6348C15.5862 28.1713 15.5925 28.2253 15.6675 28.4547C15.7864 28.8124 15.9271 29.0452 16.1928 29.3354C16.7775 29.9698 17.1527 30.2566 17.5279 30.3511C17.7686 30.4118 18.2877 30.4051 18.8692 30.3342C19.1318 30.3039 19.3663 30.2836 19.3945 30.2904C19.4758 30.3072 19.0943 30.5671 18.7723 30.7189C18.616 30.7898 18.322 30.9146 18.1157 30.9922C17.3497 31.279 17.3778 31.2655 17.4185 31.3195C17.4841 31.4073 18.0532 31.7987 18.2595 31.8999C18.6347 32.0821 19.0506 32.234 19.6946 32.4229C21.0235 32.8177 21.111 32.8548 22.5211 33.6681C22.865 33.8671 23.1496 34.0224 23.1558 34.019C23.1589 34.0122 23.087 33.5095 22.9932 32.8987C22.7056 31.0293 22.6024 30.0575 22.6024 29.1836C22.6024 28.4008 22.4805 27.8845 22.0959 27.0443C21.8426 26.4943 20.6952 24.6316 20.4669 24.4022C20.3762 24.3111 20.1355 24.1255 19.9323 23.9838C19.5696 23.7374 19.5414 23.7239 18.9317 23.535C18.5847 23.4304 18.2001 23.3157 18.0782 23.2819C17.9531 23.2515 17.8499 23.211 17.8499 23.1976C17.8499 23.1402 18.3158 22.7083 18.5722 22.5261C18.7223 22.4215 18.9786 22.2662 19.1412 22.1853C19.482 22.0132 19.4664 22.0435 19.482 21.5644L19.4914 21.2978L19.1318 21.1662C18.5972 20.9705 17.7874 20.7208 17.3997 20.6297L17.0589 20.5521L17.1965 20.4913C17.5279 20.3395 18.1094 20.2147 18.7598 20.1607C19.0068 20.1404 19.3007 20.1134 19.4132 20.0999L19.6165 20.0763L19.6571 19.9076C19.7603 19.4723 19.7978 19.118 19.7947 18.541C19.7947 17.6131 19.6665 16.8741 19.1944 15.0654C18.9536 14.1443 18.9849 13.6719 19.382 12.2479C19.6821 11.185 19.6946 11.1074 19.6634 10.7463C19.5446 9.45058 19.5446 8.51252 19.6571 8.04687C19.754 7.65207 19.8416 7.42937 20.0042 7.16279C20.1855 6.85911 20.2731 6.77812 20.8046 6.39682C21.6332 5.80632 22.3179 5.49588 22.8807 5.46214C23.2965 5.43515 23.5685 5.34741 23.6936 5.19557C23.8093 5.05385 23.8155 4.99311 23.7217 4.93912C23.6811 4.9155 23.4435 4.75691 23.1933 4.58482C22.543 4.13603 22.2428 3.99769 21.8989 3.99769C21.7582 3.99769 21.6863 4.03143 21.1391 4.36886Z" fill="url(#paint3_linear_87_2)"/>
<path d="M23.8841 5.60386C23.7903 5.62748 23.6152 5.67472 23.4933 5.71184C23.3589 5.75571 23.1306 5.78607 22.8992 5.79957C22.3239 5.82657 21.9112 5.97504 21.4297 6.32596C21.1421 6.53517 20.7575 6.92322 20.5105 7.2539C20.104 7.79379 20.0665 7.89165 20.004 8.53614C19.9696 8.8702 19.9758 8.99842 20.054 9.85213C20.1853 11.2862 20.1478 11.7755 19.8508 12.3997C19.6757 12.7709 19.6507 12.8789 19.6538 13.2939C19.6569 13.7022 19.6976 13.9351 19.8821 14.6437C19.9508 14.9035 20.0353 15.2612 20.0696 15.4366C20.104 15.6121 20.1603 15.8922 20.1947 16.0609C20.3979 17.0867 20.423 18.1597 20.2885 20.1101C20.1822 21.642 20.1572 22.3405 20.2166 22.1616C20.2229 22.1414 20.498 21.6859 20.8232 21.1493C21.7455 19.641 22.0488 19.0708 22.3302 18.3048C22.5897 17.6063 22.7648 16.6278 22.7179 16.152C22.7054 16.0474 22.6773 15.7471 22.6491 15.4872C22.5741 14.7078 22.6053 13.8946 22.7429 13.1151C22.8242 12.6494 22.7585 12.3896 22.3083 11.4381C22.0613 10.915 22.0332 10.8442 22.0175 10.6215C21.9925 10.2975 22.0551 10.1221 22.2739 9.89262C22.8961 9.22788 24.2374 8.76897 25.2004 8.88707C25.6538 8.94106 26.4667 9.16377 26.7512 9.30886C26.9232 9.39997 27.0545 9.5012 27.2327 9.69016C27.3703 9.83188 27.4798 9.93311 27.4798 9.91286C27.4798 9.89262 27.4516 9.72053 27.4172 9.52819C27.2453 8.59013 26.8232 7.64532 26.1822 6.75788C25.8946 6.36308 25.3224 5.69834 25.2286 5.65448C24.991 5.54312 24.2468 5.51613 23.8841 5.60386Z" fill="url(#paint4_linear_87_2)"/>
<path d="M27.8582 10.0411C27.4299 10.1018 26.9702 10.311 26.667 10.5776L26.5575 10.6754L26.6982 10.8003C26.7764 10.8678 27.0453 11.1478 27.2954 11.4178C27.7488 11.9071 28.1677 12.4503 28.5961 13.0948C28.7212 13.2804 28.8462 13.4559 28.8775 13.4896C28.9088 13.52 29.1808 13.682 29.4778 13.8507C30.0906 14.1982 30.3376 14.3669 30.5221 14.5728C30.6847 14.755 30.8191 15.0654 30.8441 15.3185C30.8598 15.5142 30.8535 15.5311 30.7128 15.7976C30.3376 16.5063 29.7467 17.0428 29.0026 17.3566C28.6743 17.4916 28.1584 17.6299 27.9676 17.6299C27.5549 17.6299 26.2386 18.3554 25.3694 19.0674C25.0724 19.3069 24.8473 19.5195 24.9629 19.4453C25.013 19.4149 25.7321 19.2563 26.1823 19.1787C26.6294 19.1011 28.1177 19.0437 28.0583 19.1045C28.0208 19.145 27.605 19.3002 26.7139 19.6039C26.1104 19.8097 26.0323 19.8468 25.7446 20.0493C24.9723 20.5959 24.3032 21.1999 23.928 21.6858C23.556 22.1616 23.4465 22.3135 23.4465 22.3337C23.4465 22.3472 24.175 21.9625 25.0661 21.4766C25.9541 20.9941 26.7107 20.5993 26.7451 20.5993C26.7826 20.5993 26.9702 20.5622 27.1672 20.5149C29.1776 20.0527 30.9067 19.2158 32.2261 18.0686L32.5357 17.802L32.5544 17.6063C32.5825 17.3363 32.6982 16.8606 32.9171 16.1182C33.2173 15.1025 33.2954 14.7415 33.2954 14.3467C33.2954 14.0093 33.1485 13.8709 32.5669 13.6583C32.1104 13.493 31.8634 13.3243 31.4945 12.9261C31.2725 12.6832 31.088 12.4335 30.8535 12.0657C30.2157 11.05 29.8874 10.6181 29.6216 10.4359C29.1714 10.1322 28.4148 9.96345 27.8582 10.0411Z" fill="url(#paint5_linear_87_2)"/>
<path d="M24.9785 10.7159C24.8847 10.7328 24.7409 10.7699 24.6627 10.7969L24.522 10.8475L24.2281 11.6C23.8904 12.4706 23.731 12.9632 23.6122 13.5099C23.5371 13.8642 23.5278 13.9722 23.5215 14.6268C23.5184 15.025 23.5027 15.4636 23.4871 15.5952C23.4715 15.7302 23.4684 15.8415 23.4809 15.8415C23.4996 15.8415 23.9405 15.3421 24.2406 14.9811L24.3251 14.8799L24.3063 15.2072C24.2719 15.7707 24.1031 16.513 23.8873 17.0394C23.8498 17.1272 23.8217 17.2115 23.8217 17.2284C23.8217 17.2756 24.1468 17.2621 24.397 17.2081C24.522 17.1811 24.7503 17.1103 24.9035 17.0529C25.8133 16.7189 26.101 16.6851 26.6419 16.8505C27.5142 17.1137 28.4678 17.0732 29.2307 16.7425C29.7028 16.5366 30.3032 16.0406 30.422 15.7572C30.5126 15.548 30.5033 15.0317 30.4063 14.8292C30.3125 14.6302 30.1249 14.4783 29.8592 14.3872L29.6403 14.3096L29.3871 14.3838C29.2464 14.4243 28.8962 14.5492 28.6085 14.6572C27.8957 14.9271 27.5892 15.0081 27.2422 15.0115L26.9577 15.0148L26.6825 14.7348C26.2104 14.2489 25.879 14.0498 25.4413 13.9755C25.2005 13.9384 25.1817 13.9283 25.1255 13.8237C25.0254 13.6415 25.0098 13.4998 24.9785 12.6359C24.9472 11.7451 24.9629 11.5899 25.0848 11.5055C25.1223 11.4785 25.2537 11.4414 25.3725 11.4246C25.4913 11.4043 25.6695 11.3739 25.7696 11.3571C26.1104 11.2862 26.3073 11.2491 26.4949 11.2153C26.5981 11.1951 26.6857 11.1749 26.695 11.1681C26.7138 11.1479 26.3449 10.9724 26.0541 10.8644C25.8196 10.7767 25.3475 10.6755 25.213 10.6822C25.1786 10.6856 25.0723 10.6991 24.9785 10.7159Z" fill="url(#paint6_linear_87_2)"/>
<path d="M3.6081 11.9205C2.66698 12.5279 1.81028 13.2095 1.3194 13.7359L1.03488 14.043L1.01299 14.2691C0.966094 14.728 1.03801 15.0384 1.36318 15.7909C1.71649 16.6041 1.69147 16.4624 1.56953 17.0056C1.48199 17.4038 1.46636 17.5287 1.47573 17.7986C1.48199 18.0787 1.49449 18.1428 1.57579 18.298C1.62581 18.3959 1.71336 18.5241 1.76964 18.5781C1.87282 18.6726 1.88532 18.6759 2.19486 18.6759C2.52003 18.6726 2.70137 18.6557 3.2798 18.5646C3.6675 18.5038 3.96766 18.4768 3.96766 18.5038C3.96766 18.5173 3.67063 18.6827 3.31107 18.875C2.94838 19.0674 2.52941 19.3137 2.3762 19.4183C2.04478 19.6511 1.63207 20.0628 1.56641 20.2281C1.53201 20.3159 1.51325 20.5622 1.49449 21.1729C1.47886 21.7499 1.45698 22.057 1.42258 22.1852C1.37881 22.3506 1.20059 23.373 1.16307 23.6699C1.14431 23.8319 1.32253 24.1558 1.59142 24.446C1.7884 24.6586 2.42936 25.2424 2.82019 25.5663C3.37047 26.0218 4.02707 26.2277 5.15578 26.2985C6.59403 26.393 7.01613 26.4571 7.51639 26.6731L7.61019 26.7136L7.53202 26.7574C7.41634 26.8215 6.95672 26.9869 6.3908 27.1657C6.11566 27.2501 5.87803 27.3344 5.86553 27.3479C5.84989 27.3614 5.92806 27.385 6.03749 27.3985C6.25323 27.4222 7.06928 27.5943 7.26626 27.655L7.39132 27.6955L7.12556 27.7933C6.74411 27.9317 6.2376 28.0228 5.83739 28.0228C5.65292 28.0228 5.49971 28.0329 5.49971 28.043C5.49971 28.1072 5.90617 28.9305 6.07501 29.2004C6.62842 30.1014 7.38194 30.7729 8.2105 31.1137C8.39185 31.1913 8.47626 31.2048 8.76704 31.2048C9.26105 31.2081 9.63625 31.0698 9.90514 30.783C10.1553 30.5198 10.5523 29.7268 11.0026 28.5964C11.4403 27.4964 11.7342 26.9565 12.1532 26.4976C12.3345 26.2985 12.4064 26.1973 12.3752 26.1838C12.3502 26.177 12.197 26.1231 12.0344 26.0691C11.1745 25.7856 10.593 25.4617 8.88273 24.311C7.68835 23.508 7.75089 23.5687 7.43822 22.877C7.23812 22.4383 7.11305 22.0435 6.89106 21.1561C6.71597 20.4711 6.56277 19.9514 6.4377 19.6207C6.36891 19.4385 6.30638 19.3407 6.1907 19.2293C5.77485 18.8244 5.48095 18.2204 5.34338 17.4949C5.26521 17.0664 5.25896 16.2296 5.32775 15.7234C5.3809 15.3489 5.37152 15.1565 5.27459 14.6436C5.15891 14.0194 4.865 13.1825 4.53671 12.5347C4.36162 12.1905 4.05833 11.6574 4.03332 11.6574C4.02394 11.6574 3.83009 11.7755 3.6081 11.9205Z" fill="url(#paint7_linear_87_2)"/>
<path d="M33.2641 12.1129C32.9483 12.1871 32.6263 12.3221 32.2198 12.5414C32.0166 12.6494 31.854 12.7472 31.8602 12.7506C31.8665 12.7574 32.1323 12.8653 32.4512 12.9902C33.1109 13.25 33.3767 13.3951 33.5643 13.6043C33.8144 13.881 33.8582 14.2286 33.6956 14.6436C33.3516 15.5142 33.3798 15.4062 33.3548 15.9596C33.311 16.9584 33.0765 17.7446 32.4887 18.8885L32.2479 19.3541L31.804 19.6207C31.1599 20.0121 30.9785 20.083 30.4095 20.1606C29.3089 20.3125 28.5429 20.5352 27.7143 20.9435C27.5267 21.0346 27.3173 21.1358 27.2547 21.1662C27.1891 21.1999 27.1359 21.2303 27.1359 21.2404C27.1359 21.2674 27.5611 21.3349 28.0207 21.3821C29.0807 21.4901 30.447 21.1763 31.6539 20.552C32.1792 20.2787 32.5137 20.0628 32.9577 19.7017C33.1328 19.56 33.4454 19.3575 33.6987 19.2225C34.1114 18.9998 34.6492 18.7771 34.7774 18.7771C34.818 18.7771 34.7493 18.8784 34.5429 19.1179C33.6925 20.1134 33.386 20.633 33.2328 21.3517C33.0671 22.1346 32.8358 22.6778 32.52 23.0355C32.2542 23.3392 32.076 23.4438 31.5757 23.6058C31.0473 23.7779 30.2813 23.8521 29.5434 23.8015C28.9931 23.7644 28.9368 23.7543 27.2766 23.3122C26.5231 23.1131 25.9916 23.0288 25.46 23.0288C24.8066 23.0288 24.472 23.0963 23.8592 23.3561C23.434 23.5349 23.2714 23.6193 22.6805 23.9736C22.4397 24.1187 22.1208 24.3009 21.9707 24.3819C21.6893 24.5337 21.6643 24.5607 21.6643 24.7767C21.6643 24.9015 21.7112 25.0129 21.8926 25.3132L22.0207 25.5258H22.3678C22.7023 25.5258 22.8524 25.5089 23.9155 25.3571C24.3282 25.2963 24.5252 25.2862 24.9004 25.2997C25.4788 25.3199 25.6726 25.3773 26.2354 25.681C27.1171 26.1568 27.5111 26.2816 28.0927 26.2614C28.4428 26.2513 28.4835 26.2445 28.5804 26.1669C29.3277 25.5629 29.7623 25.4515 31.6695 25.3604L32.3417 25.3267L32.5575 25.1985C32.6732 25.1276 33.0359 24.8543 33.3579 24.5911C33.9926 24.0782 34.2521 23.9027 34.5929 23.7509C34.7805 23.6699 34.8712 23.653 35.2495 23.6328C35.4903 23.6193 35.7685 23.5855 35.8655 23.5552C36.4533 23.3831 37.0067 22.9478 37.6508 22.1582C37.904 21.8511 38.0697 21.6925 38.4543 21.3821C39.3454 20.6634 39.5518 20.3563 39.6581 19.6038C39.78 18.7366 39.6174 18.2001 38.867 16.9719C38.4012 16.2059 38.3824 16.1857 37.2037 15.3185C36.9066 15.0958 36.6471 14.8731 36.4501 14.6605C36.1781 14.3703 36.1312 14.2994 35.9811 13.9687C35.7935 13.5503 35.3777 12.9294 35.0869 12.6258C34.693 12.2107 34.4522 12.1061 33.8582 12.0791C33.5768 12.069 33.4111 12.0757 33.2641 12.1129Z" fill="url(#paint8_linear_87_2)"/>
<path d="M25.9481 12.231C25.9481 12.4065 26.0325 12.582 26.1951 12.7541C26.267 12.8249 26.3233 12.8958 26.3233 12.9093C26.3233 12.9228 26.2576 12.943 26.1763 12.9565C25.8261 13.0139 25.6135 13.1927 25.6479 13.4053C25.6823 13.6516 25.9199 13.8541 26.2764 13.9486C26.4358 13.9924 27.3269 14.0093 27.3863 13.9688C27.452 13.925 27.5208 13.5706 27.502 13.3682C27.4833 13.1556 27.3144 12.7338 27.2081 12.6292C27.0893 12.5145 26.1451 12.0961 26.0044 12.0961C25.9606 12.0961 25.9481 12.1231 25.9481 12.231Z" fill="url(#paint9_linear_87_2)"/>
<path d="M25.6667 17.3397C24.9038 17.4949 24.1253 17.9639 23.353 18.7299C22.7902 19.29 22.2743 19.9312 21.4833 21.0481C21.1175 21.5643 20.4671 22.6374 20.4984 22.6711C20.5109 22.6812 20.661 22.6913 20.8361 22.6913C21.377 22.6913 21.7303 22.5226 22.39 21.9557C22.9716 21.453 23.2311 21.1763 24.0252 20.2112C25.1758 18.8143 25.5698 18.4363 26.5172 17.8391C27.033 17.5151 27.1143 17.4612 27.0987 17.4443C27.0925 17.4375 26.9424 17.4004 26.7642 17.3633C26.4046 17.2857 25.9888 17.2756 25.6667 17.3397Z" fill="url(#paint10_linear_87_2)"/>
<path d="M35.4839 23.9399C35.1431 23.9838 34.746 24.1019 34.5303 24.2233C34.2833 24.3617 34.0613 24.6046 33.6642 25.1715C33.3109 25.6743 33.1733 25.816 32.9138 25.9476C32.7199 26.0455 32.3917 26.0623 32.2197 25.9847C31.8445 25.816 31.1347 25.7654 30.6626 25.8768C30.3937 25.9409 30.0842 26.059 29.8622 26.1838C29.6152 26.3222 29.6246 26.2952 29.734 26.609C30.0654 27.5774 30.2311 28.4784 30.2311 29.3186C30.2311 29.7302 30.1061 30.6278 30.0467 30.6683C30.0342 30.6784 29.956 30.4456 29.8747 30.1554C29.5058 28.836 29.1181 28.0228 28.6178 27.52C28.3395 27.24 28.0237 27.0915 27.7767 27.1219C27.6986 27.1286 27.6235 27.1455 27.6142 27.159C27.6048 27.1691 27.6517 27.3716 27.7236 27.6078C27.9706 28.4412 28.0894 29.0891 28.1238 29.7977C28.1426 30.233 28.1082 30.729 28.0363 31.0091C28.0019 31.1441 28.0019 31.1407 27.9143 30.6885C27.5297 28.6403 27.0045 27.5437 26.0102 26.7136C25.463 26.2547 25.0191 26.0252 24.4563 25.9105C24.0342 25.8261 23.2681 25.8565 22.7741 25.978C22.5678 26.032 22.3958 26.0758 22.3896 26.0792C22.3864 26.086 22.4646 26.2344 22.5646 26.4133C22.7741 26.7844 22.9211 27.1657 23.0243 27.6044C23.165 28.1983 23.1806 28.3839 23.1837 29.7269L23.1868 31.0091L23.3182 31.3971C23.462 31.8358 23.5558 32.2812 23.6058 32.7705C23.6465 33.1687 23.6465 34.4171 23.6058 35.038C23.5808 35.4058 23.5839 35.5104 23.6214 35.6285C23.7309 35.9558 23.9091 36.6239 23.931 36.7758L23.9529 36.9411L23.8591 36.8264C23.809 36.7623 23.4714 36.2865 23.1118 35.7669C22.4208 34.7715 22.0175 34.2822 21.6016 33.9245C21.1452 33.5331 20.9169 33.415 20.0071 33.0978C18.4062 32.5377 17.834 32.2407 17.29 31.684C17.1087 31.4984 16.9461 31.2622 16.5084 30.5536C15.9549 29.656 15.6423 29.0452 15.5078 28.5965C15.4109 28.2725 15.3484 27.9317 15.3484 27.7124C15.3484 27.5335 15.3421 27.5133 15.2202 27.3885C15.0388 27.2029 14.7137 27.024 14.4198 26.943C14.1665 26.8756 13.5068 26.8081 13.0972 26.8081C12.7908 26.8081 12.6313 26.9059 12.3093 27.2872C12.1154 27.5167 12.0498 27.6247 11.9716 27.8406C11.8184 28.2489 11.5464 28.809 11.0962 29.6256C10.4052 30.8741 10.1332 31.5254 9.94243 32.3757C9.90803 32.5343 9.84863 32.7739 9.81424 32.9122C9.74545 33.1855 9.73294 33.5972 9.7861 33.749C9.83925 33.9043 9.97369 34.0325 10.2051 34.1472C10.5115 34.3024 10.6709 34.4543 11.0805 34.9773C11.4682 35.4733 11.6683 35.6623 11.9497 35.804C12.2124 35.9322 12.4156 35.939 12.8752 35.8377C13.0878 35.7905 13.3192 35.75 13.3911 35.75C13.5631 35.75 13.71 35.8512 13.7882 36.0267C13.9351 36.3506 14.4823 36.6442 15.067 36.7083C15.1608 36.7218 15.4859 36.7454 15.7861 36.7623C16.6178 36.8129 17.1587 36.9783 18.2561 37.5148C19.9039 38.3212 20.0102 38.3583 21.2733 38.5541C23.6715 38.9219 24.9878 39.3268 26.1509 40.0489C26.4542 40.2378 26.5355 40.2648 27.2921 40.4268C27.4391 40.4605 27.6485 40.4808 27.7642 40.4774C28.0112 40.4673 28.4583 40.5651 28.8398 40.7102C29.1118 40.8148 29.9779 41.0274 30.006 40.9971C30.0467 40.9532 30.103 40.5112 30.1061 40.2142C30.1092 39.2424 29.8216 38.5979 28.4552 36.4924C28.0456 35.8647 27.6579 35.1426 27.7267 35.1426C27.7423 35.1426 27.9956 35.3957 28.2895 35.7028C29.0336 36.4822 29.562 37.1537 30.3844 38.3651C30.6095 38.6992 30.8346 39.0265 30.8815 39.0872L30.969 39.2053L31.1004 38.9185C31.2692 38.5372 31.5193 38.2537 32.1728 37.6902C33.0232 36.9546 33.1327 36.7893 33.4985 35.6656C33.8299 34.6432 34.08 33.938 34.2676 33.4858C34.6491 32.5579 35.0931 31.7683 35.4933 31.3094C35.8028 30.9517 36.0404 30.5974 36.4406 29.9023C37.0941 28.7685 37.3536 28.4277 38.0602 27.7866C38.3979 27.4829 38.6324 27.1826 38.77 26.8823C38.8544 26.6967 38.8763 26.6056 38.8857 26.3795L38.8982 26.1028L38.7512 25.8228C38.2728 24.9218 37.6944 24.3718 36.9378 24.0884C36.5688 23.9534 35.9154 23.8859 35.4839 23.9399Z" fill="url(#paint11_linear_87_2)"/>
<defs>
<linearGradient id="paint0_linear_87_2" x1="24.347" y1="8.55304" x2="24.347" y2="1.00004" gradientUnits="userSpaceOnUse">
<stop stop-color="#3D0305"/>
<stop offset="0.0001" stop-color="#260002"/>
<stop offset="1" stop-color="#B31C21"/>
</linearGradient>
<linearGradient id="paint1_linear_87_2" x1="34.4465" y1="23.6025" x2="34.4465" y2="1.43659" gradientUnits="userSpaceOnUse">
<stop stop-color="#3D0305"/>
<stop offset="0.0001" stop-color="#260002"/>
<stop offset="1" stop-color="#B31C21"/>
</linearGradient>
<linearGradient id="paint2_linear_87_2" x1="11.2917" y1="25.9611" x2="11.2917" y2="2.28701" gradientUnits="userSpaceOnUse">
<stop stop-color="#3D0305"/>
<stop offset="0.0001" stop-color="#260002"/>
<stop offset="1" stop-color="#B31C21"/>
</linearGradient>
<linearGradient id="paint3_linear_87_2" x1="19.2487" y1="34.019" x2="19.2487" y2="3.99769" gradientUnits="userSpaceOnUse">
<stop stop-color="#3D0305"/>
<stop offset="0.0001" stop-color="#260002"/>
<stop offset="1" stop-color="#B31C21"/>
</linearGradient>
<linearGradient id="paint4_linear_87_2" x1="23.5667" y1="22.189" x2="23.5667" y2="5.5517" gradientUnits="userSpaceOnUse">
<stop stop-color="#3D0305"/>
<stop offset="0.0001" stop-color="#260002"/>
<stop offset="1" stop-color="#B31C21"/>
</linearGradient>
<linearGradient id="paint5_linear_87_2" x1="28.371" y1="22.334" x2="28.371" y2="10.0223" gradientUnits="userSpaceOnUse">
<stop stop-color="#3D0305"/>
<stop offset="0.0001" stop-color="#260002"/>
<stop offset="1" stop-color="#B31C21"/>
</linearGradient>
<linearGradient id="paint6_linear_87_2" x1="26.979" y1="17.2573" x2="26.979" y2="10.6819" gradientUnits="userSpaceOnUse">
<stop stop-color="#3D0305"/>
<stop offset="0.0001" stop-color="#260002"/>
<stop offset="1" stop-color="#B31C21"/>
</linearGradient>
<linearGradient id="paint7_linear_87_2" x1="6.69113" y1="31.2048" x2="6.69113" y2="11.6574" gradientUnits="userSpaceOnUse">
<stop stop-color="#3D0305"/>
<stop offset="0.0001" stop-color="#260002"/>
<stop offset="1" stop-color="#B31C21"/>
</linearGradient>
<linearGradient id="paint8_linear_87_2" x1="30.6795" y1="26.2634" x2="30.6795" y2="12.0749" gradientUnits="userSpaceOnUse">
<stop stop-color="#3D0305"/>
<stop offset="0.0001" stop-color="#260002"/>
<stop offset="1" stop-color="#B31C21"/>
</linearGradient>
<linearGradient id="paint9_linear_87_2" x1="26.5747" y1="13.9918" x2="26.5747" y2="12.0961" gradientUnits="userSpaceOnUse">
<stop stop-color="#3D0305"/>
<stop offset="0.0001" stop-color="#260002"/>
<stop offset="1" stop-color="#B31C21"/>
</linearGradient>
<linearGradient id="paint10_linear_87_2" x1="23.7989" y1="22.6913" x2="23.7989" y2="17.2976" gradientUnits="userSpaceOnUse">
<stop stop-color="#3D0305"/>
<stop offset="0.0001" stop-color="#260002"/>
<stop offset="1" stop-color="#B31C21"/>
</linearGradient>
<linearGradient id="paint11_linear_87_2" x1="24.3257" y1="41" x2="24.3257" y2="23.9213" gradientUnits="userSpaceOnUse">
<stop stop-color="#3D0305"/>
<stop offset="0.0001" stop-color="#260002"/>
<stop offset="1" stop-color="#B31C21"/>
</linearGradient>
</defs>
</svg>
