<svg width="24" height="14" viewBox="0 0 24 14" fill="#C1563E" xmlns="http://www.w3.org/2000/svg">
<path d="M3.925 14C2.84167 14 1.91667 13.6208 1.15 12.8625C0.383333 12.1042 0 11.175 0 10.075C0 8.975 0.379167 8.04583 1.1375 7.2875C1.89583 6.52917 2.81667 6.15 3.9 6.15L2.725 5.25H0V4H4.525L7 5.5L10.975 4H14.475L12.525 1.5H10.3V0H13.275L15.425 2.775L18.65 1.175V3.775H16.2L18.325 6.525C18.6083 6.40833 18.8917 6.32083 19.175 6.2625C19.4583 6.20417 19.75 6.175 20.05 6.175C21.15 6.175 22.0833 6.55417 22.85 7.3125C23.6167 8.07083 24 9 24 10.1C24 11.2 23.6167 12.125 22.85 12.875C22.0833 13.625 21.15 14 20.05 14C18.9667 14 18.0458 13.6208 17.2875 12.8625C16.5292 12.1042 16.15 11.1833 16.15 10.1C16.15 9.6 16.2333 9.125 16.4 8.675C16.5667 8.225 16.8167 7.81667 17.15 7.45L16.275 6.325L12.625 11.9H9.875L7.85 10.075C7.85 11.175 7.47083 12.1042 6.7125 12.8625C5.95417 13.6208 5.025 14 3.925 14ZM3.925 12.5C4.60833 12.5 5.18333 12.2625 5.65 11.7875C6.11667 11.3125 6.35 10.7417 6.35 10.075C6.35 9.40833 6.11667 8.8375 5.65 8.3625C5.18333 7.8875 4.60833 7.65 3.925 7.65C3.25833 7.65 2.6875 7.88333 2.2125 8.35C1.7375 8.81667 1.5 9.39167 1.5 10.075C1.5 10.7583 1.7375 11.3333 2.2125 11.8C2.6875 12.2667 3.25833 12.5 3.925 12.5ZM20.05 12.5C20.7333 12.5 21.3125 12.2667 21.7875 11.8C22.2625 11.3333 22.5 10.7667 22.5 10.1C22.5 9.41667 22.2625 8.8375 21.7875 8.3625C21.3125 7.8875 20.7333 7.65 20.05 7.65C19.3833 7.65 18.8167 7.8875 18.35 8.3625C17.8833 8.8375 17.65 9.41667 17.65 10.1C17.65 10.7667 17.8833 11.3333 18.35 11.8C18.8167 12.2667 19.3833 12.5 20.05 12.5ZM11.825 10.4L15.025 5.5H11.275L6.95 7.125L10.425 10.4H11.825Z" fill="#C1563E"/>
</svg>
