<svg width="49" height="45" viewBox="0 0 49 45" fill="none" xmlns="http://www.w3.org/2000/svg">
<path d="M25.9699 0.0341372C25.7134 0.0758742 25.4454 0.318707 24.9095 0.986498C24.6109 1.36213 24.4539 1.52149 24.2434 1.66567C24.1209 1.74915 23.9869 1.77571 22.8997 1.93886L22.6203 1.98439L22.2949 2.47006C22.1188 2.73565 21.8623 3.16441 21.7245 3.42242L21.4795 3.89291L21.7054 4.12815C22.0001 4.43549 22.0805 4.44307 22.6509 4.20783C23.4548 3.87393 24.1707 3.46415 24.6415 3.06196C24.875 2.86466 25.1086 2.79636 25.5564 2.80016C26.2914 2.80775 27.08 3.19097 28.1136 4.04468L28.5692 4.42031H28.9367C29.2391 4.4241 29.3425 4.43928 29.5147 4.51517C30.0009 4.72385 30.4794 5.11466 30.7321 5.51306C30.8163 5.64206 31.1072 6.19982 31.3828 6.75378C31.7618 7.51264 31.9532 7.85033 32.1638 8.12731C32.3169 8.3322 32.4547 8.49915 32.4662 8.49915C32.4777 8.49915 32.4815 8.35876 32.47 8.18422C32.4509 7.80479 32.516 6.93591 32.5964 6.46921C32.9639 4.3596 34.0434 2.40935 35.456 1.30142C35.6895 1.1193 35.7354 1.02824 35.6703 0.887847C35.5708 0.675368 34.9966 0.379415 34.4071 0.239028C34.0664 0.159348 33.1974 0.147965 32.8835 0.223851C32.3131 0.35665 31.8537 0.550157 31.3867 0.857493C31.1034 1.04341 31 1.05859 30.4986 0.982704C30.0736 0.921996 29.6832 0.815756 28.7491 0.512215C27.7844 0.197291 27.3978 0.0948455 27.0073 0.0379315C26.7125 -0.00380544 26.2111 -0.00380544 25.9699 0.0341372Z" fill="url(#paint0_linear_77_3)"/>
<path d="M36.9605 0.542564C36.6772 0.63742 36.57 0.7171 36.3633 0.97511C36.2523 1.1155 35.8388 1.55563 35.4484 1.95403C35.0579 2.34863 34.6598 2.7698 34.5641 2.88363C34.2846 3.21373 34.009 3.65766 33.7257 4.23059C33.117 5.47132 32.8835 6.40091 32.9371 7.37983C32.9677 8.01347 33.052 8.33219 33.3314 8.9203L33.5037 9.28455L33.7793 9.33388C34.4607 9.4515 34.966 9.75884 35.6589 10.4722C36.5968 11.4397 37.1213 11.9443 37.3356 12.0847L37.5577 12.2327L38.2735 12.0544C39.3071 11.8002 39.3952 11.785 39.9656 11.785C40.9111 11.7812 41.3743 11.9785 42.0902 12.6918C42.4347 13.0333 42.7333 13.4127 43.4109 14.3803C44.4024 15.7955 44.8617 16.2774 45.6924 16.7706C45.991 16.949 46.6839 17.6319 46.9213 17.9848C47.2926 18.535 47.5644 19.1762 47.7175 19.8478C47.8056 20.2348 47.84 21.2555 47.7711 21.5628C47.6945 21.9271 47.484 22.1964 46.9902 22.5683C46.7567 22.739 46.4734 22.9591 46.3585 23.0539C46.2437 23.1488 45.9681 23.3423 45.746 23.4865C45.011 23.957 44.6818 24.4047 44.6435 24.9852C44.6206 25.3912 44.6474 25.4216 45.0493 25.4216C45.3785 25.4216 45.7192 25.3457 46.0867 25.1939C47.373 24.6589 47.595 24.5337 48.0085 24.1088C48.4257 23.6762 48.709 23.1716 48.8889 22.5379C48.9731 22.2458 48.9808 22.1471 48.977 21.4566C48.9731 21.0126 48.9387 20.3259 48.8889 19.8061C48.8468 19.3166 48.8085 18.6981 48.8085 18.4287V17.9393L48.6324 17.5371C48.0774 16.2774 47.1663 15.086 45.8035 13.8491C45.2484 13.3406 45.1488 13.204 44.9881 12.7108C44.8273 12.2213 44.789 11.9595 44.632 10.2635C44.5861 9.77022 44.4789 9.17073 44.387 8.9203C44.2684 8.58641 43.8205 7.86929 42.7601 6.31744C41.7112 4.78076 41.271 3.88911 41.0719 2.89121C41.003 2.54973 40.9953 2.40175 41.0106 1.95403C41.0221 1.66187 41.0566 1.31659 41.0872 1.18379C41.114 1.051 41.1293 0.937167 41.114 0.929579C41.0757 0.906813 40.4135 0.758837 40.0651 0.698129C39.1195 0.527387 37.2782 0.436324 36.9605 0.542564Z" fill="url(#paint1_linear_77_3)"/>
<path d="M11.867 1.46455C10.2401 1.59355 9.1567 1.83259 7.97382 2.32205L7.69436 2.43588V2.74321C7.69436 2.91396 7.68288 3.24406 7.66757 3.47551L7.6446 3.90047L7.90874 3.95738C8.20733 4.02568 8.50975 4.06741 9.28303 4.15468C10.3664 4.2761 10.9712 4.45822 11.3694 4.78453C11.4497 4.84903 11.4536 4.86041 11.3885 4.84144C11.2737 4.81488 10.5425 4.67829 10.2592 4.63276C9.53186 4.51514 9.33663 4.49996 8.63225 4.49996C7.75561 4.49996 7.31921 4.56446 7.06272 4.73141C6.65694 4.99321 6.46936 5.2019 6.46936 5.39161C6.46936 5.50544 6.67225 5.67998 7.05124 5.89245C7.346 6.0594 7.98147 6.51851 7.95467 6.54507C7.94702 6.55266 7.79772 6.5261 7.6178 6.48815C7.12014 6.38571 6.59569 6.325 6.40811 6.35536C6.18225 6.38571 6.00616 6.54127 5.85686 6.83723C5.79561 6.96623 5.74202 7.08765 5.74202 7.11041C5.74202 7.13318 5.93725 7.22804 6.1746 7.3191C7.12014 7.68714 7.73264 8.06277 8.10014 8.49532L8.20733 8.62433L8.11546 8.60535C7.12397 8.3777 7.07038 8.37011 6.3928 8.37011C5.62335 8.36632 5.35538 8.41944 4.8003 8.69262C4.49788 8.8368 4.4864 8.85198 4.43663 9.01893C4.39835 9.15932 4.39835 9.25797 4.4328 9.5046C4.49405 9.92576 4.49022 10.0054 4.39452 10.2445C4.32562 10.419 4.3103 10.529 4.3103 10.9085C4.3103 11.4321 4.36007 11.6332 4.67397 12.3617C5.07593 13.2875 5.11038 13.3899 5.20608 14.0008C5.33241 14.7938 5.38983 15.2795 5.43194 15.9738C5.58124 18.3376 5.56593 18.2314 5.8339 18.6374C6.53061 19.6998 7.13928 21.2365 7.59866 23.0881C7.63311 23.2322 7.69053 23.403 7.72116 23.4675C7.95085 23.919 8.47147 24.6665 8.97296 25.2622C9.47827 25.8693 10.91 26.6395 12.3455 27.0872C13.3562 27.3984 14.3974 27.6108 16.1737 27.8726C16.4072 27.903 16.8091 27.9637 17.0733 28.0016L17.5518 28.0737L17.6551 27.9523C17.7968 27.793 18.0533 27.3035 18.149 27.0075C18.3787 26.2904 18.3097 25.5923 17.9422 24.9283C17.858 24.7727 17.5901 24.3212 17.3489 23.9228C16.499 22.5189 16.2387 21.8701 16.2004 21.0999C16.1737 20.4473 16.2617 20.121 16.6713 19.3887C17.4944 17.9165 17.6704 16.4898 17.3412 13.849C17.3183 13.6707 17.2762 13.314 17.2455 13.0522C17.1422 12.1947 17.0273 11.7015 16.7823 11.0602C16.3459 9.91058 16.1162 9.06825 16.1162 8.61294C16.1162 8.43841 16.1047 8.38149 16.0703 8.39667C16.0435 8.40805 15.6913 8.55223 15.2932 8.71539C14.229 9.15173 13.7466 9.44009 13.4251 9.84229C13.0576 10.3052 12.9427 10.7681 12.9121 11.895C12.8776 13.2002 13.0116 13.9894 13.6662 16.3722C14.1983 18.3073 14.3821 19.1838 14.4204 19.9578C14.4357 20.2955 14.4242 20.4473 14.3744 20.6408C14.317 20.8608 14.095 21.3427 14.0644 21.3123C14.0567 21.3086 14.0261 20.9785 13.9916 20.5839C13.8691 19.0775 13.5935 17.8027 13.0155 16.0876C12.7666 15.3364 12.1082 13.629 11.9819 13.3937C11.9589 13.3558 11.8785 12.9574 11.8019 12.5134C11.6756 11.7887 11.6603 11.6332 11.6603 11.0033C11.6565 10.3811 11.668 10.2672 11.7445 10.0054C11.8938 9.49701 12.089 9.16311 12.4565 8.79507C13.2681 7.98309 14.2787 7.39878 15.4769 7.05729C15.8827 6.94347 15.8942 6.93967 16.6407 6.95105C17.2991 6.96244 17.4254 6.95485 17.6015 6.89414C17.7126 6.8524 17.8274 6.78411 17.8542 6.74237C17.8848 6.69684 17.9537 6.49574 18.0112 6.29844C18.0647 6.10114 18.1796 5.7976 18.26 5.63065L18.4131 5.31952L18.6887 5.20569C19.2783 4.96665 19.7721 4.84524 20.4305 4.77694L20.8976 4.73141L20.6449 4.45063C19.8793 3.60072 18.8074 2.94052 16.901 2.13234C15.6569 1.60493 15.7794 1.63908 14.8338 1.53284C14.3668 1.47972 12.2766 1.4304 11.867 1.46455Z" fill="url(#paint2_linear_77_3)"/>
<path d="M24.6608 3.79424C23.8722 4.23437 23.497 4.39752 22.5477 4.69727C20.6527 5.30056 20.224 5.44474 19.7991 5.61548C19.3856 5.77864 19.2861 5.83934 18.9837 6.09356C18.7961 6.25292 18.643 6.4009 18.643 6.41987C18.643 6.48816 18.8344 6.90553 19.0602 7.31531C19.4354 8.00208 19.6804 8.62434 19.6306 8.76472C19.6268 8.7837 19.4545 8.66228 19.2555 8.49154C19.0564 8.32459 18.8267 8.14246 18.7425 8.09314C18.5166 7.94896 18.1951 7.8541 17.9501 7.8541C17.7319 7.8541 17.7319 7.8541 17.5366 8.06658C17.2763 8.34735 17.0505 8.73437 16.9088 9.13656C16.7978 9.44769 16.7902 9.50081 16.7902 10.0548C16.7863 10.8781 16.8706 11.231 17.4754 12.9005C17.9845 14.3195 18.0496 14.6382 18.0879 15.8979C18.107 16.5961 18.0994 16.8882 18.0534 17.2449C17.9233 18.2656 17.7051 19.0775 17.1959 20.4511C16.9892 21.005 16.9777 21.0581 16.9777 21.3807C16.9777 21.9612 17.127 22.2723 17.8467 23.1943C18.5052 24.0366 18.6123 24.2871 18.6851 25.1294C18.7502 25.9376 18.6889 26.3246 18.264 27.8082C17.8735 29.1589 17.862 29.2234 17.862 29.9557C17.862 30.559 17.8697 30.6197 17.9616 30.8777C18.107 31.2799 18.2793 31.5417 18.6047 31.868C19.3205 32.5813 19.7799 32.9039 20.2393 33.0101C20.5341 33.0784 21.1695 33.0708 21.8816 32.9911C22.2031 32.957 22.4902 32.9342 22.5247 32.9418C22.6242 32.9608 22.1572 33.2529 21.7629 33.4237C21.5715 33.5033 21.2116 33.6437 20.959 33.731C20.0211 34.0535 20.0555 34.0383 20.1053 34.099C20.1857 34.1977 20.8824 34.6378 21.1351 34.7517C21.5945 34.9566 22.1036 35.1273 22.8922 35.3398C24.5191 35.7837 24.6263 35.8254 26.3528 36.7399C26.7739 36.9637 27.1223 37.1383 27.1299 37.1345C27.1338 37.1269 27.0457 36.5615 26.9309 35.8748C26.5787 33.7727 26.4523 32.68 26.4523 31.6973C26.4523 30.817 26.303 30.2365 25.8322 29.2917C25.5221 28.6732 24.1172 26.5788 23.8377 26.3208C23.7267 26.2184 23.432 26.0097 23.1831 25.8503C22.7391 25.5733 22.7046 25.5582 21.9581 25.3457C21.5332 25.228 21.0623 25.099 20.913 25.0611C20.7599 25.027 20.6336 24.9814 20.6336 24.9662C20.6336 24.9017 21.204 24.4161 21.5179 24.2112C21.7016 24.0936 22.0155 23.919 22.2146 23.828C22.6319 23.6345 22.6127 23.6686 22.6319 23.1298L22.6434 22.8301L22.2031 22.6821C21.5485 22.462 20.557 22.1813 20.0823 22.0788L19.6651 21.9915L19.8335 21.9232C20.2393 21.7525 20.9513 21.6121 21.7476 21.5514C22.05 21.5286 22.4098 21.4983 22.5477 21.4831L22.7965 21.4565L22.8463 21.2668C22.9726 20.7774 23.0185 20.379 23.0147 19.7302C23.0147 18.6867 22.8577 17.8558 22.2797 15.8221C21.9849 14.7862 22.0232 14.255 22.5094 12.6538C22.8769 11.4587 22.8922 11.3714 22.8539 10.9654C22.7084 9.5084 22.7084 8.45359 22.8463 7.92998C22.9649 7.48606 23.0721 7.23563 23.2712 6.93589C23.4932 6.5944 23.6004 6.50334 24.2512 6.07459C25.2656 5.41059 26.104 5.06152 26.793 5.02358C27.3022 4.99322 27.6352 4.89457 27.7884 4.72383C27.93 4.56447 27.9377 4.49617 27.8228 4.43547C27.773 4.40891 27.4821 4.23058 27.1759 4.03707C26.3796 3.53243 26.0121 3.37687 25.591 3.37687C25.4188 3.37687 25.3307 3.41481 24.6608 3.79424Z" fill="url(#paint3_linear_77_3)"/>
<path d="M28.0218 5.18295C27.9069 5.20951 27.6926 5.26263 27.5433 5.30436C27.3787 5.35369 27.0992 5.38784 26.8159 5.40302C26.1116 5.43337 25.6062 5.60032 25.0167 5.99492C24.6645 6.23017 24.1937 6.66651 23.8912 7.03834C23.3936 7.64543 23.3476 7.75546 23.2711 8.48017C23.229 8.8558 23.2366 8.99998 23.3323 9.95993C23.4931 11.5725 23.4472 12.1227 23.0835 12.8246C22.8691 13.242 22.8385 13.3634 22.8423 13.8301C22.8462 14.2892 22.8959 14.551 23.1218 15.3478C23.206 15.6399 23.3094 16.0421 23.3515 16.2394C23.3936 16.4367 23.4625 16.7517 23.5046 16.9414C23.7534 18.0948 23.7841 19.3014 23.6194 21.4945C23.4893 23.2171 23.4587 24.0025 23.5314 23.8014C23.5391 23.7787 23.8759 23.2664 24.2741 22.6631C25.4033 20.9671 25.7747 20.3259 26.1192 19.4646C26.4369 18.6792 26.6513 17.5788 26.5939 17.0438C26.5786 16.9262 26.5441 16.5885 26.5097 16.2964C26.4178 15.4199 26.4561 14.5055 26.6245 13.629C26.7241 13.1054 26.6437 12.8132 26.0924 11.7432C25.79 11.1551 25.7555 11.0754 25.7364 10.825C25.7058 10.4608 25.7823 10.2635 26.0503 10.0055C26.8121 9.25799 28.4544 8.74197 29.6334 8.87477C30.1885 8.93548 31.1838 9.1859 31.5322 9.34905C31.7427 9.4515 31.9035 9.56533 32.1217 9.77781C32.2901 9.93716 32.4241 10.051 32.4241 10.0282C32.4241 10.0055 32.3897 9.81195 32.3476 9.59568C32.137 8.54087 31.6202 7.47848 30.8355 6.48059C30.4833 6.03666 29.7827 5.28919 29.6679 5.23986C29.3769 5.11465 28.4658 5.0843 28.0218 5.18295Z" fill="url(#paint4_linear_77_3)"/>
<path d="M32.8873 10.1724C32.3629 10.2407 31.8001 10.4759 31.4288 10.7757L31.2948 10.8857L31.4671 11.0261C31.5628 11.102 31.892 11.4169 32.1983 11.7205C32.7533 12.2706 33.2663 12.8815 33.7908 13.6062C33.9439 13.8149 34.097 14.0122 34.1353 14.0501C34.1736 14.0843 34.5066 14.2664 34.8703 14.4561C35.6206 14.8469 35.923 15.0366 36.1489 15.2681C36.348 15.473 36.5126 15.8221 36.5432 16.1066C36.5623 16.3267 36.5547 16.3457 36.3824 16.6454C35.923 17.4422 35.1995 18.0455 34.2884 18.3984C33.8865 18.5501 33.2548 18.7057 33.0213 18.7057C32.516 18.7057 30.9044 19.5215 29.8401 20.3221C29.4765 20.5915 29.2008 20.8305 29.3425 20.747C29.4037 20.7129 30.2842 20.5345 30.8354 20.4473C31.3829 20.36 33.2051 20.2955 33.1323 20.3638C33.0864 20.4093 32.5772 20.5839 31.4862 20.9254C30.7474 21.1568 30.6517 21.1985 30.2995 21.4262C29.354 22.0409 28.5347 22.72 28.0754 23.2664C27.6198 23.8014 27.4858 23.9721 27.4858 23.9949C27.4858 24.0101 28.3778 23.5775 29.4688 23.0312C30.556 22.4886 31.4824 22.0447 31.5245 22.0447C31.5704 22.0447 31.8001 22.0029 32.0413 21.9498C34.5028 21.43 36.6197 20.489 38.2352 19.199L38.6142 18.8992L38.6372 18.6791C38.6716 18.3756 38.8133 17.8406 39.0812 17.0059C39.4487 15.8638 39.5444 15.4578 39.5444 15.0139C39.5444 14.6345 39.3645 14.4789 38.6525 14.2399C38.0936 14.0539 37.7912 13.8642 37.3394 13.4165C37.0676 13.1433 36.8418 12.8625 36.5547 12.449C35.7737 11.3069 35.3718 10.8212 35.0464 10.6163C34.4951 10.2748 33.5687 10.0851 32.8873 10.1724Z" fill="url(#paint5_linear_77_3)"/>
<path d="M29.3617 10.9313C29.2468 10.9502 29.0707 10.992 28.975 11.0223L28.8028 11.0792L28.4429 11.9254C28.0295 12.9043 27.8343 13.4583 27.6888 14.0729C27.5969 14.4713 27.5854 14.5927 27.5778 15.3288C27.5739 15.7766 27.5548 16.2698 27.5357 16.4178C27.5165 16.5696 27.5127 16.6948 27.528 16.6948C27.551 16.6948 28.0907 16.1332 28.4582 15.7272L28.5616 15.6134L28.5386 15.9814C28.4965 16.6151 28.2898 17.4498 28.0257 18.0417C27.9797 18.1404 27.9453 18.2352 27.9453 18.2542C27.9453 18.3073 28.3434 18.2921 28.6496 18.2314C28.8028 18.2011 29.0822 18.1214 29.2698 18.0569C30.3838 17.6813 30.736 17.6433 31.3982 17.8292C32.4663 18.1252 33.6339 18.0797 34.5679 17.7078C35.146 17.4764 35.881 16.9186 36.0264 16.5999C36.1374 16.3647 36.126 15.7841 36.0073 15.5565C35.8924 15.3326 35.6628 15.1619 35.3374 15.0594L35.0694 14.9722L34.7593 15.0556C34.5871 15.1012 34.1583 15.2416 33.8061 15.363C32.9333 15.6665 32.5582 15.7576 32.1332 15.7614L31.7849 15.7652L31.448 15.4502C30.87 14.9039 30.4642 14.68 29.9282 14.5965C29.6335 14.5548 29.6105 14.5434 29.5416 14.4258C29.4191 14.2209 29.4 14.0615 29.3617 13.0902C29.3234 12.0885 29.3425 11.914 29.4918 11.8191C29.5378 11.7888 29.6985 11.747 29.844 11.7281C29.9895 11.7053 30.2077 11.6712 30.3302 11.6522C30.7475 11.5725 30.9886 11.5308 31.2183 11.4928C31.3446 11.4701 31.4518 11.4473 31.4633 11.4397C31.4863 11.4169 31.0346 11.2196 30.6785 11.0982C30.3914 10.9996 29.8134 10.8857 29.6488 10.8933C29.6067 10.8971 29.4765 10.9123 29.3617 10.9313Z" fill="url(#paint6_linear_77_3)"/>
<path d="M3.19643 12.2858C2.04416 12.9688 0.995255 13.7352 0.394239 14.3271L0.0458793 14.6724L0.0190824 14.9266C-0.0383395 15.4426 0.0497074 15.7917 0.447833 16.6378C0.880411 17.5522 0.849786 17.3929 0.700489 18.0038C0.593301 18.4515 0.574161 18.5919 0.585645 18.8954C0.593301 19.2103 0.608614 19.2824 0.708145 19.457C0.769395 19.567 0.876583 19.7112 0.945489 19.7719C1.07182 19.8781 1.08713 19.8819 1.46611 19.8819C1.86424 19.8781 2.08627 19.8591 2.79447 19.7567C3.26916 19.6884 3.63666 19.6581 3.63666 19.6884C3.63666 19.7036 3.27299 19.8895 2.83276 20.1058C2.38869 20.322 1.87572 20.599 1.68815 20.7167C1.28236 20.9785 0.777052 21.4414 0.696661 21.6273C0.654551 21.7259 0.631583 22.0029 0.608614 22.6897C0.589473 23.3385 0.562676 23.6838 0.520567 23.828C0.466973 24.0139 0.24877 25.1635 0.202833 25.4974C0.179864 25.6796 0.398067 26.0438 0.727286 26.3701C0.968458 26.6091 1.75322 27.2656 2.23174 27.6298C2.90549 28.142 3.7094 28.3735 5.09135 28.4532C6.85229 28.5594 7.36909 28.6315 7.98159 28.8743L8.09643 28.9199L8.00073 28.9692C7.85909 29.0413 7.29635 29.2272 6.60346 29.4283C6.26659 29.5231 5.97565 29.618 5.96034 29.6332C5.94119 29.6484 6.0369 29.6749 6.17088 29.6901C6.43502 29.7167 7.43416 29.9102 7.67534 29.9785L7.82846 30.024L7.50307 30.134C7.03604 30.2896 6.41588 30.392 5.92588 30.392C5.70002 30.392 5.51244 30.4034 5.51244 30.4148C5.51244 30.4869 6.0101 31.4127 6.21682 31.7162C6.8944 32.7293 7.81698 33.4844 8.83143 33.8676C9.05346 33.9548 9.15682 33.97 9.51284 33.97C10.1177 33.9738 10.5771 33.8183 10.9063 33.4957C11.2125 33.1998 11.6987 32.3081 12.2499 31.0371C12.7859 29.8001 13.1457 29.193 13.6587 28.677C13.8807 28.4532 13.9688 28.3393 13.9305 28.3242C13.8999 28.3166 13.7123 28.2559 13.5132 28.1952C12.4605 27.8764 11.7485 27.5122 9.65448 26.2183C8.19213 25.3153 8.2687 25.3836 7.88588 24.6058C7.64088 24.1125 7.48776 23.6686 7.21596 22.6707C7.00159 21.9005 6.81401 21.3161 6.66088 20.9443C6.57666 20.7394 6.5001 20.6294 6.35846 20.5042C5.84932 20.0489 5.48948 19.3697 5.32104 18.5539C5.22533 18.072 5.21768 17.1311 5.3019 16.5619C5.36698 16.1408 5.35549 15.9245 5.23682 15.3478C5.09518 14.6458 4.73533 13.7048 4.33338 12.9763C4.11901 12.5893 3.74768 11.9898 3.71705 11.9898C3.70557 11.9898 3.46822 12.1226 3.19643 12.2858Z" fill="url(#paint7_linear_77_3)"/>
<path d="M39.5063 12.5021C39.1197 12.5856 38.7254 12.7373 38.2277 12.984C37.9789 13.1054 37.7798 13.2154 37.7875 13.2192C37.7951 13.2268 38.1205 13.3482 38.511 13.4886C39.3187 13.7808 39.6441 13.9439 39.8738 14.1792C40.18 14.4903 40.2336 14.8811 40.0346 15.3478C39.6135 16.3267 39.6479 16.2053 39.6173 16.8276C39.5637 17.9507 39.2766 18.8347 38.5569 20.121L38.2622 20.6446L37.7186 20.9443C36.93 21.3845 36.7079 21.4641 36.0112 21.5514C34.6637 21.7222 33.7258 21.9726 32.7114 22.4317C32.4817 22.5341 32.2252 22.648 32.1486 22.6821C32.0682 22.72 32.0032 22.7542 32.0032 22.7656C32.0032 22.7959 32.5238 22.8718 33.0865 22.9249C34.3843 23.0464 36.0572 22.6935 37.5348 21.9915C38.1779 21.6842 38.5875 21.4414 39.1311 21.0354C39.3455 20.876 39.7283 20.6484 40.0384 20.4966C40.5437 20.2462 41.2022 19.9958 41.3591 19.9958C41.4089 19.9958 41.3247 20.1096 41.072 20.379C40.0307 21.4983 39.6556 22.0826 39.468 22.8908C39.2651 23.7711 38.9818 24.3819 38.5952 24.7841C38.2698 25.1256 38.0516 25.2432 37.4391 25.4254C36.7922 25.6189 35.8543 25.7023 34.9508 25.6454C34.2771 25.6037 34.2082 25.5923 32.1754 25.0953C31.2529 24.8714 30.6021 24.7765 29.9513 24.7765C29.1512 24.7765 28.7416 24.8524 27.9913 25.1446C27.4707 25.3457 27.2716 25.4405 26.5481 25.8389C26.2533 26.0021 25.8629 26.207 25.6791 26.298C25.3346 26.4688 25.304 26.4991 25.304 26.742C25.304 26.8824 25.3614 27.0076 25.5834 27.3453L25.7404 27.5843H26.1653C26.5749 27.5843 26.7586 27.5653 28.0602 27.3946C28.5655 27.3263 28.8067 27.3149 29.2661 27.3301C29.9743 27.3528 30.2116 27.4174 30.9007 27.7588C31.9802 28.2938 32.4625 28.4342 33.1746 28.4114C33.6033 28.4001 33.6531 28.3925 33.7718 28.3052C34.6867 27.626 35.2188 27.5008 37.5539 27.3984L38.377 27.3604L38.6411 27.2163C38.7828 27.1366 39.2268 26.8292 39.6211 26.5333C40.3982 25.9566 40.716 25.7593 41.1332 25.5885C41.3629 25.4975 41.4739 25.4785 41.9372 25.4557C42.2319 25.4405 42.5726 25.4026 42.6913 25.3684C43.411 25.1749 44.0886 24.6855 44.8771 23.7976C45.1872 23.4523 45.3901 23.274 45.861 22.9249C46.952 22.1168 47.2046 21.7715 47.3348 20.9254C47.4841 19.9502 47.285 19.3469 46.3663 17.9658C45.7959 17.1045 45.7729 17.0818 44.3297 16.1066C43.9661 15.8562 43.6483 15.6058 43.4071 15.3668C43.0741 15.0405 43.0167 14.9608 42.8329 14.5889C42.6032 14.1184 42.0941 13.4203 41.7381 13.0788C41.2557 12.6121 40.961 12.4945 40.2336 12.4641C39.8891 12.4528 39.6862 12.4604 39.5063 12.5021Z" fill="url(#paint8_linear_77_3)"/>
<path d="M30.5485 12.6349C30.5485 12.8322 30.6518 13.0295 30.8509 13.223C30.9389 13.3027 31.0078 13.3824 31.0078 13.3975C31.0078 13.4127 30.9274 13.4355 30.8279 13.4507C30.3992 13.5152 30.1388 13.7163 30.181 13.9553C30.2231 14.2323 30.514 14.4599 30.9504 14.5662C31.1456 14.6155 32.2367 14.6345 32.3094 14.5889C32.3898 14.5396 32.474 14.1412 32.451 13.9136C32.4281 13.6745 32.2214 13.2002 32.0912 13.0826C31.9457 12.9536 30.7896 12.4831 30.6174 12.4831C30.5638 12.4831 30.5485 12.5135 30.5485 12.6349Z" fill="url(#paint9_linear_77_3)"/>
<path d="M30.2037 18.3794C29.2697 18.5539 28.3165 19.0813 27.3709 19.9426C26.6819 20.5725 26.0502 21.2934 25.0817 22.5493C24.6338 23.1298 23.8376 24.3364 23.8758 24.3743C23.8912 24.3857 24.0749 24.3971 24.2893 24.3971C24.9515 24.3971 25.3841 24.2074 26.1919 23.5699C26.9039 23.0046 27.2216 22.6935 28.194 21.6083C29.6027 20.0375 30.085 19.6125 31.245 18.9409C31.8766 18.5767 31.9761 18.516 31.957 18.497C31.9493 18.4894 31.7656 18.4477 31.5474 18.4059C31.1072 18.3187 30.598 18.3073 30.2037 18.3794Z" fill="url(#paint10_linear_77_3)"/>
<path d="M42.2241 25.801C41.8069 25.8503 41.3207 25.9831 41.0566 26.1197C40.7541 26.2753 40.4823 26.5485 39.9962 27.1859C39.5636 27.7513 39.3952 27.9106 39.0774 28.0586C38.8401 28.1686 38.4381 28.1876 38.2276 28.1003C37.7682 27.9106 36.8992 27.8537 36.3212 27.9789C35.992 28.051 35.613 28.1838 35.3412 28.3242C35.0388 28.4798 35.0502 28.4494 35.1842 28.8023C35.59 29.8912 35.7929 30.9043 35.7929 31.8491C35.7929 32.312 35.6398 33.3212 35.567 33.3668C35.5517 33.3782 35.456 33.1163 35.3565 32.79C34.9048 31.3065 34.4301 30.3921 33.8176 29.8267C33.4769 29.5118 33.0902 29.3448 32.7878 29.379C32.6921 29.3866 32.6002 29.4056 32.5887 29.4207C32.5773 29.4321 32.6347 29.6598 32.7227 29.9254C33.0252 30.8626 33.1706 31.5911 33.2127 32.3878C33.2357 32.8773 33.1936 33.4351 33.1055 33.75C33.0634 33.9018 33.0634 33.898 32.9562 33.3895C32.4854 31.0864 31.8423 29.8533 30.6249 28.9199C29.955 28.4039 29.4114 28.1459 28.7223 28.0169C28.2055 27.922 27.2677 27.9561 26.6628 28.0927C26.4102 28.1534 26.1996 28.2028 26.1919 28.2066C26.1881 28.2142 26.2838 28.3811 26.4063 28.5822C26.6628 28.9996 26.8427 29.4283 26.9691 29.9216C27.1413 30.5894 27.1605 30.7981 27.1643 32.3082L27.1681 33.75L27.3289 34.1863C27.505 34.6796 27.6198 35.1804 27.6811 35.7306C27.7309 36.1783 27.7309 37.5822 27.6811 38.2803C27.6505 38.6939 27.6543 38.8115 27.7002 38.9443C27.8342 39.3124 28.0524 40.0636 28.0792 40.2344L28.106 40.4203L27.9912 40.2913C27.9299 40.2192 27.5165 39.6842 27.0762 39.0999C26.2302 37.9806 25.7364 37.4304 25.2273 37.0282C24.6684 36.5881 24.3889 36.4553 23.2749 36.0986C21.3149 35.4688 20.6144 35.1349 19.9483 34.5088C19.7262 34.3002 19.5272 34.0346 18.9912 33.2378C18.3137 32.2285 17.9309 31.5417 17.7662 31.0371C17.6476 30.6728 17.571 30.2896 17.571 30.043C17.571 29.8419 17.5633 29.8191 17.4141 29.6787C17.192 29.4701 16.7939 29.269 16.4341 29.1779C16.124 29.102 15.3162 29.0261 14.8148 29.0261C14.4396 29.0261 14.2444 29.1362 13.8501 29.5649C13.6127 29.8229 13.5323 29.9443 13.4366 30.1872C13.2491 30.6463 12.916 31.2761 12.3648 32.1943C11.5187 33.5982 11.1857 34.3305 10.9522 35.2867C10.9101 35.465 10.8373 35.7344 10.7952 35.89C10.711 36.1973 10.6957 36.6602 10.7608 36.8309C10.8258 37.0055 10.9905 37.1496 11.2737 37.2787C11.6489 37.4532 11.8441 37.6239 12.3456 38.212C12.8203 38.7698 13.0653 38.9823 13.4098 39.1416C13.7314 39.2858 13.9802 39.2934 14.543 39.1796C14.8033 39.1265 15.0866 39.0809 15.1746 39.0809C15.3851 39.0809 15.5651 39.1948 15.6608 39.3921C15.8407 39.7563 16.5106 40.0864 17.2265 40.1585C17.3413 40.1737 17.7394 40.2002 18.1069 40.2192C19.1252 40.2761 19.7875 40.462 21.1312 41.0653C23.1486 41.9722 23.2787 42.0139 24.8253 42.234C27.7615 42.6475 29.3731 43.1028 30.7972 43.9148C31.1685 44.1273 31.268 44.1577 32.1945 44.3398C32.3744 44.3777 32.6309 44.4005 32.7725 44.3967C33.0749 44.3853 33.6223 44.4953 34.0894 44.6585C34.4224 44.7761 35.4828 45.0152 35.5173 44.981C35.567 44.9317 35.6359 44.4346 35.6398 44.1007C35.6436 43.008 35.2914 42.2833 33.6185 39.9157C33.117 39.2099 32.6423 38.398 32.7266 38.398C32.7457 38.398 33.0558 38.6825 33.4156 39.0278C34.3267 39.9043 34.9737 40.6593 35.9805 42.0215C36.2561 42.3971 36.5317 42.7652 36.5891 42.8335L36.6963 42.9663L36.8571 42.6437C37.0638 42.215 37.3701 41.8963 38.1702 41.2626C39.2114 40.4355 39.3454 40.2496 39.7933 38.9861C40.1991 37.8364 40.5053 37.0434 40.735 36.535C41.202 35.4916 41.7456 34.6037 42.2356 34.0877C42.6146 33.6855 42.9056 33.2871 43.3956 32.5055C44.1956 31.2306 44.5134 30.8474 45.3785 30.1265C45.792 29.785 46.0791 29.4473 46.2475 29.1096C46.3509 28.9009 46.3777 28.7985 46.3891 28.5443L46.4045 28.2331L46.2245 27.9182C45.6388 26.9051 44.9306 26.2867 44.0042 25.968C43.5525 25.8162 42.7524 25.7403 42.2241 25.801Z" fill="url(#paint11_linear_77_3)"/>
<defs>
<linearGradient id="paint0_linear_77_3" x1="28.5884" y1="8.49915" x2="28.5884" y2="0.00613785" gradientUnits="userSpaceOnUse">
<stop stop-color="#3D0305"/>
<stop offset="0.0001" stop-color="#260002"/>
<stop offset="1" stop-color="#B31C21"/>
</linearGradient>
<linearGradient id="paint1_linear_77_3" x1="40.9537" y1="25.4216" x2="40.9537" y2="0.497032" gradientUnits="userSpaceOnUse">
<stop stop-color="#3D0305"/>
<stop offset="0.0001" stop-color="#260002"/>
<stop offset="1" stop-color="#B31C21"/>
</linearGradient>
<linearGradient id="paint2_linear_77_3" x1="12.6039" y1="28.0737" x2="12.6039" y2="1.45326" gradientUnits="userSpaceOnUse">
<stop stop-color="#3D0305"/>
<stop offset="0.0001" stop-color="#260002"/>
<stop offset="1" stop-color="#B31C21"/>
</linearGradient>
<linearGradient id="paint3_linear_77_3" x1="22.3462" y1="37.1345" x2="22.3462" y2="3.37687" gradientUnits="userSpaceOnUse">
<stop stop-color="#3D0305"/>
<stop offset="0.0001" stop-color="#260002"/>
<stop offset="1" stop-color="#B31C21"/>
</linearGradient>
<linearGradient id="paint4_linear_77_3" x1="27.6331" y1="23.8322" x2="27.6331" y2="5.1243" gradientUnits="userSpaceOnUse">
<stop stop-color="#3D0305"/>
<stop offset="0.0001" stop-color="#260002"/>
<stop offset="1" stop-color="#B31C21"/>
</linearGradient>
<linearGradient id="paint5_linear_77_3" x1="33.5151" y1="23.9953" x2="33.5151" y2="10.1513" gradientUnits="userSpaceOnUse">
<stop stop-color="#3D0305"/>
<stop offset="0.0001" stop-color="#260002"/>
<stop offset="1" stop-color="#B31C21"/>
</linearGradient>
<linearGradient id="paint6_linear_77_3" x1="31.811" y1="18.2867" x2="31.811" y2="10.893" gradientUnits="userSpaceOnUse">
<stop stop-color="#3D0305"/>
<stop offset="0.0001" stop-color="#260002"/>
<stop offset="1" stop-color="#B31C21"/>
</linearGradient>
<linearGradient id="paint7_linear_77_3" x1="6.97117" y1="33.9701" x2="6.97117" y2="11.9898" gradientUnits="userSpaceOnUse">
<stop stop-color="#3D0305"/>
<stop offset="0.0001" stop-color="#260002"/>
<stop offset="1" stop-color="#B31C21"/>
</linearGradient>
<linearGradient id="paint8_linear_77_3" x1="36.3418" y1="28.4138" x2="36.3418" y2="12.4594" gradientUnits="userSpaceOnUse">
<stop stop-color="#3D0305"/>
<stop offset="0.0001" stop-color="#260002"/>
<stop offset="1" stop-color="#B31C21"/>
</linearGradient>
<linearGradient id="paint9_linear_77_3" x1="31.3157" y1="14.6148" x2="31.3157" y2="12.4831" gradientUnits="userSpaceOnUse">
<stop stop-color="#3D0305"/>
<stop offset="0.0001" stop-color="#260002"/>
<stop offset="1" stop-color="#B31C21"/>
</linearGradient>
<linearGradient id="paint10_linear_77_3" x1="27.9168" y1="24.3971" x2="27.9168" y2="18.3321" gradientUnits="userSpaceOnUse">
<stop stop-color="#3D0305"/>
<stop offset="0.0001" stop-color="#260002"/>
<stop offset="1" stop-color="#B31C21"/>
</linearGradient>
<linearGradient id="paint11_linear_77_3" x1="28.5625" y1="44.9843" x2="28.5625" y2="25.78" gradientUnits="userSpaceOnUse">
<stop stop-color="#3D0305"/>
<stop offset="0.0001" stop-color="#260002"/>
<stop offset="1" stop-color="#B31C21"/>
</linearGradient>
</defs>
</svg>
