<svg width="512" height="512" viewBox="0 0 512 512" fill="none" xmlns="http://www.w3.org/2000/svg">
<g clip-path="url(#clip0_3_21)">
<path d="M288 167.2V139.1C259.75 102.72 240.87 59.81 233.87 13.9C231.7 0.40537 214.8 -5.02003 206.1 5.48097C184.1 30.36 168.4 59.7 157.2 92.07C191.4 130.3 237.2 156.7 288 167.2ZM400 63.97C355.75 63.97 320.9 99.79 320.9 144.05L320.901 203.49C216.501 197.239 127.901 133.03 87.9015 41.79C81.4801 29.25 63.7601 28.58 58.0101 40.83C41.3801 75.96 32.0101 115.2 32.0101 156.6C32.0101 227.36 66.1201 293.5 117.12 342.5C130.24 355.25 143.25 365.77 156 375.27L12.1201 411.2C1.37005 413.95 -3.37995 426.29 2.62005 435.67C20.0001 462.55 63.0401 508.21 155.82 511.96C163.82 512.21 171.81 509.327 177.94 504.077L243.17 447.957L320.01 448.013C408.39 448.013 480.01 376.523 480.01 288.113L480.011 127.913L511.111 63.9231L400 63.97ZM400 160.1C391.25 160.1 383.99 152.841 383.99 144.09C383.99 135.214 391.251 128.04 400 128.04C408.749 128.04 415.99 135.176 415.99 144.05C416 152.8 408.8 160.1 400 160.1Z" fill="#981018"/>
</g>
<defs>
<clipPath id="clip0_3_21">
<rect width="512" height="512" fill="white"/>
</clipPath>
</defs>
</svg>
