<svg width="640" height="512" viewBox="0 0 640 512" fill="none" xmlns="http://www.w3.org/2000/svg">
<path d="M584.2 96.36C555.32 94.659 529.49 113.38 504.46 122.85C490 88.22 455.9 64 416 64C404.75 64 394 66.252 384 69.877V56C384 42.75 373.2 32 360 32H344C330.8 32 320 42.75 320 56V105C285.1 79.62 241.2 64 192 64C85.1 64 0 135.6 0 224V456C0 469.3 10.75 480 24 480H72C85.25 480 96 469.3 96 456V393.13C128.4 407.5 166.8 416 208 416C249.2 416 287.63 407.508 320 393.13V456C320 469.25 330.75 480 344 480H392C405.25 480 416 469.25 416 456V288H544V320C544 328.837 551.163 336 560 336H592C600.837 336 608 328.837 608 320V288C625.62 288 640 273.62 640 256L640 159.93C639.1 127.8 616.4 98.25 584.2 96.36ZM447.1 176C438.225 176 431.1 168.875 431.1 160C431.1 151.125 439.1 144 448 144C456.9 144 464 151.125 464 160C464 168.875 456.9 176 447.1 176Z" fill="#981018"/>
</svg>
