<svg width="576" height="512" viewBox="0 0 576 512" fill="none" xmlns="http://www.w3.org/2000/svg">
<g clip-path="url(#clip0_3_25)">
<path d="M575.9 76.61C575.9 68.485 572.85 60.77 567.35 54.77C563.475 50.77 558.755 45.645 553.63 40.27C564.75 33.52 573.1 22.76 575.85 9.64002C576.85 4.64002 573.001 -0.000976562 567.876 -0.000976562L447.9 2.34375e-05C377.28 2.34375e-05 320 57.25 320 128H159.1C130.23 128 104.72 140.1 87.1 161.12V160C39.5 160 0.0001 199.5 0.0001 248L0 304C0 312.875 7.125 319.1 15.1 319.1L31.1 320C39.974 320 46.2 312.875 46.2 304L46.2005 248C46.2005 234.75 53.0845 223.6 62.9605 216.35C62.8355 218.85 62.2025 221.374 62.2025 223.999C62.2025 251.619 74.0725 276.369 92.7025 293.869L67.0525 362.479C62.4665 374.759 61.7405 388.159 64.9245 400.879L86.6545 487.769C92.02 502 104.8 512 119.5 512H152.48C173.29 512 188.56 492.45 183.53 472.26L162.2 386.9L185.98 323.29L319.08 345.63L319.1 480C319.1 497.67 333.43 512 350.2 512H381.3C398.97 512 412.4 497.67 412.4 480L412.417 318.2C435.7 297.1 447.1 270.5 447.1 240C447.1 239.75 446.997 239.617 446.997 239.367V136.9L463.9 144L482.85 181.72C490.331 196.58 507.93 203.27 523.37 197.06L555.91 184.01C568.04 179.132 576.02 167.34 576 154.27L575.9 76.61ZM511.9 96C503.15 96 496.8 88.875 496.8 80C496.8 71.125 503.1 64 511.9 64C520.774 64 527 71.125 527 80C527 88.875 520.8 96 511.9 96Z" fill="#981018"/>
</g>
<defs>
<clipPath id="clip0_3_25">
<rect width="576" height="512" fill="white"/>
</clipPath>
</defs>
</svg>
