<svg width="640" height="512" viewBox="0 0 640 512" fill="none" xmlns="http://www.w3.org/2000/svg">
<path d="M224 160C232.836 160 240 152.836 240 144C240 135.2 232.8 128 224 128C215.2 128 208 135.2 208 144C208 152.8 215.2 160 224 160ZM96 128C87.16 128 80 135.2 80 144C80 152.8 87.16 160 96 160C104.84 160 112 152.836 112 144C112 135.2 104.8 128 96 128ZM474.4 64.12C466.8 63.07 460 69.07 460 76.73C460 82.689 464.188 86.83 469.991 89.09C514.2 99.46 544 160 544 192V304C544 312.844 536.844 320 528 320C519.156 320 512 312.8 512 304V212C512 197.13 496.35 187.46 483.06 194.11C454.1 208.59 435.23 237.1 432.55 268.99C403.7 285.6 384 316.3 384 352V384H224C241.67 384 256 369.67 256 352C256 334.33 241.67 320 224 320H132.4C117.94 320 105.03 310.402 101.32 296.43C97.86 283.5 96 269.1 96 256V254.4C101.1 255.3 106.3 256 111.7 256C122.48 256 133.15 253.811 143.06 249.564L160 242.3L176.98 249.571C186.9 253.8 197.6 256 208.3 256C215.476 256 222.41 255.072 229.13 253.574C241.7 292 277.4 320 320 320L356.56 319.963C363.1 294.7 377.1 272.7 396.2 256H320C320 230.27 337.56 224.39 352.31 224C369.8 223.8 384 209.6 384 192C384 174.33 369.69 160 352 160C336.91 160 319.01 164.086 302.72 173.06C303.3 168.9 304 164.7 304 160.3V144.3C304 142.616 303.576 141.052 303.504 139.388C313.2 133.9 320 123.9 320 112C320 103.2 312.8 96 304 96H292.7C274.6 58.26 236.3 32 191.7 32H128.3C83.68 32 45.44 58.26 27.33 96H16C7.164 96 0 103.2 0 112C0 123.93 6.816 133.93 16.5 139.43C16.42 141.1 16 142.7 16 144.3V160.3C16 179.86 21.926 198.01 32 213.16V256C32 379.7 132.3 480 256 480H416C539.9 478.834 640 378.9 640 253.8C639.9 156.9 567.8 76.96 474.4 64.12ZM64 160.3V144.3C64 108.9 92.86 80 128.3 80H191.62C227.1 80 256 108.9 256 144.3V160.3C256 186.6 234.6 208 208.3 208C203.991 208 199.798 207.139 195.84 205.442L162.1 191.4C164.686 191.093 167.307 190.857 169.698 189.769L178.012 185.992C186.9 182.3 192 174.9 192 166.7V160C192 153.277 186.004 147.83 178.61 147.83H141.4C133.1 147.8 128 153.3 128 160V166.701C128 174.851 133.068 182.301 141.09 185.951L149.404 189.728C151.795 190.816 154.416 191.052 157.002 191.359L124.122 205.439C120.2 207.1 115.1 208 111.7 208C85.38 208 64 186.6 64 160.3Z" fill="#981018"/>
</svg>
