<svg width="576" height="512" viewBox="0 0 576 512" fill="none" xmlns="http://www.w3.org/2000/svg">
<g clip-path="url(#clip0_3_29)">
<path d="M563.3 401.6C565.908 410.043 561.151 419 552.68 420.7L537.33 425.409C528.85 428.009 519.86 423.27 517.25 414.819L493.2 338L413.41 306.2L466.88 368.35C471.96 374.254 473.852 382.24 471.96 389.79L443.73 499.89C441.579 508.46 432.86 513.67 424.26 511.53L408.68 507.657C400.071 505.516 394.84 496.827 396.99 488.257L422.19 390.237L383.68 345.467C383.833 347.672 384.343 349.774 384.343 352.016C384.343 405.036 341.193 448.016 287.973 448.016C234.753 448.016 191.6 405 191.6 352C191.6 349.758 192.112 347.66 192.263 345.457L153.753 390.217L178.953 488.237C181.104 496.811 175.869 505.497 167.263 507.637L151.683 511.51C143.08 513.651 134.363 508.438 132.213 499.87L103.983 389.77C102.089 382.227 103.983 374.24 109.063 368.33L162.533 306.18L82.7428 337.98L58.7328 415.72C56.1248 424.167 47.1328 428.91 38.6528 426.31L23.3028 421.601C14.8248 419.001 10.0728 410.051 12.6728 402.501L40.0728 313.811C42.2158 306.872 47.3958 301.271 54.1628 298.571L158.9 256L54.2001 214.27C47.4301 211.6 42.2601 205.1 40.1101 199.1L12.7201 110.4C10.1121 101.957 14.8691 92.9999 23.3401 91.2999L38.6901 86.5909C47.1701 83.9909 56.1601 88.7299 58.7701 97.1809L82.7801 174.921L162.57 206.721L109.1 143.6C104 137.7 102.1 129.7 104 122.2L132.23 12.0999C134.381 3.52993 143.1 -1.68007 151.7 0.459928L167.28 4.33293C175.9 6.49393 181.1 15.1799 178.1 23.7599L153.8 121.8L207.7 184.4L207.854 159.96C206.1 123.4 228.9 91.7699 261.4 80.4299C266.541 78.6369 271.9 82.6449 271.9 88.0709V112H304.02V88.0899C304.02 82.6469 309.414 78.6469 314.57 80.4489C345.9 91.3899 368.3 121 368.3 155.9C368.3 157.293 368.121 158.589 368.051 159.964L368.3 184.4L422.21 121.74L397.01 23.7199C394.859 15.1459 400.094 6.45993 408.7 4.31993L424.28 0.446928C432.883 -1.69407 441.6 3.51893 443.75 12.0869L471.98 122.187C473.874 129.73 471.98 137.717 466.9 143.627L413.43 205.777L493.22 173.977L517.23 96.2369C519.838 87.7899 528.83 83.0469 537.31 85.6469L552.66 90.3559C561.138 92.9559 565.89 101.906 563.29 109.456L535.89 198.146C533.747 205.085 528.567 210.686 521.8 213.386L417.1 256L521.8 297.73C528.554 300.421 533.72 306.013 535.87 312.94L563.3 401.6Z" fill="#981018"/>
</g>
<defs>
<clipPath id="clip0_3_29">
<rect width="576" height="512" fill="white"/>
</clipPath>
</defs>
</svg>
